<svg id="Layer_1" data-name="Layer 1" xmlns="http://www.w3.org/2000/svg" viewBox="0 0 37.64 41.4"><defs><style>.cls-1{fill:#080808;}.cls-2{fill:#b5b5b5;}.cls-3{fill:#a4a4a4;}.cls-4{fill:#e6e6e6;}.cls-5{fill:#dcdcdc;}.cls-6{fill:#f0f0f0;}.cls-7{fill:#c3c3c3;}.cls-8{fill:#373737;}.cls-9{fill:#cfcfcf;}.cls-10{fill:#7f7f7f;}.cls-11{fill:#676767;}.cls-12{fill:#8f8f8f;}.cls-13{fill:#1b1b1b;}.cls-14{fill:#939393;}.cls-15{fill:#4f4f4f;}.cls-16{fill:#fff;}</style></defs><title>anti-aliasing</title><path class="cls-1" d="M26.35,3.75l3.75,0V7.53h3.77l0,3.76c0,.12,0,.23,0,.34q0,11,0,21.91c0,.11,0,.22,0,.34l0,3.76H26.36V33.87H22.59V30.12h3.74V7.53H15v3.75l-3.75,0-3.76,0V7.52H11.3V3.75H26.35Z"/><path class="cls-1" d="M11.29,37.65l-3.75,0V33.86H3.76V26.34H7.53V22.58h3.76V33.87h7.53v3.79H11.29Z"/><path class="cls-2" d="M33.89,33.87c0-.12,0-.23,0-.34q0-11,0-21.91c0-.11,0-.22,0-.34h3.74q0,7.13,0,14.25c0,2.78,0,5.56,0,8.34Z"/><path class="cls-1" d="M11.3,18.83l3.75,0h7.53v3.78H11.29Z"/><path class="cls-2" d="M22.58,3.75H15.05V0h7.52Z"/><path class="cls-3" d="M7.52,7.52v7.53H3.8V7.52Z"/><path class="cls-4" d="M15.05,37.65h3.77V41.4H15.05Z"/><path class="cls-5" d="M3.75,26.34v3.77H0V26.34Z"/><path class="cls-6" d="M0,30.11H3.75v3.76H0Z"/><path class="cls-7" d="M3.77,33.86H7.54v3.77H3.77Z"/><path class="cls-8" d="M18.81,37.63V33.88h3.77v3.76Z"/><path class="cls-9" d="M22.57,37.63V33.87h3.78v3.76Z"/><path class="cls-10" d="M33.89,33.87h3.74v3.75H33.87Z"/><path class="cls-5" d="M15.05,37.65V41.4H11.29V37.65Z"/><path class="cls-4" d="M15.06,0V3.75H11.29V0Z"/><path class="cls-7" d="M22.58,3.75V0h3.77V3.75Z"/><path class="cls-11" d="M11.3,3.77V7.53H7.53V3.77Z"/><path class="cls-3" d="M33.87,7.53H30.1V3.77h3.77Z"/><path class="cls-5" d="M37.63,11.29H33.89l0-3.76h3.76Z"/><path class="cls-12" d="M7.53,15.05V11.28l3.76,0v3.74Z"/><path class="cls-3" d="M11.29,15.05V11.31l3.75,0,0,0,0,3.75H11.29Z"/><path class="cls-5" d="M18.82,18.8H15.05V15.05h3.77Z"/><path class="cls-4" d="M3.77,22.59V18.82H7.54l0,3.75H3.77Z"/><path class="cls-11" d="M7.52,22.57l0-3.75H11.3v3.75Z"/><path class="cls-13" d="M3.77,22.59H7.53v3.77H3.77Z"/><path class="cls-5" d="M26.34,22.59v3.75H22.59c0-1.25,0-2.51,0-3.76v0Z"/><path class="cls-2" d="M22.59,26.35h3.74v3.78H22.59l0,0Z"/><path class="cls-14" d="M22.59,33.87H18.81V30.12l3.75,0,0,0Z"/><path class="cls-2" d="M15,11.28V7.53h3.78c0,1.25,0,2.5,0,3.75l-3.74,0Z"/><path class="cls-5" d="M18.81,11.28V7.53h3.75l0,3.75,0,0Z"/><path class="cls-11" d="M22.59,11.28l0-3.75h3.77V11.3Z"/><path class="cls-5" d="M22.59,11.28l3.75,0V15l-3.75,0V11.3Z"/><path class="cls-10" d="M22.59,15.07l3.75,0v3.77l-3.77,0V15.07Z"/><path class="cls-15" d="M22.57,18.83l3.77,0v3.78l-3.76,0Z"/><path class="cls-15" d="M11.29,22.58h3.77v3.75H11.3Z"/><path class="cls-2" d="M11.3,26.35h3.75l0,3.75,0,0-3.76,0Z"/><path class="cls-13" d="M11.29,30.1l3.76,0v3.75H11.29Z"/><path class="cls-3" d="M15.06,33.87V30.12l0,0,3.75,0v3.74Z"/><path class="cls-4" d="M18.82,22.59v3.75H15.06V22.59Z"/><path class="cls-2" d="M22.59,15.07v3.74H18.82V15.06l3.76,0Z"/><path class="cls-16" d="M16.8,38.45c-7.54,0-11.69-3.56-11.69-10,0-5.57,2.71-9.27,16.15-10.53l.53,0c4.44-.29,5.63-.37,5.63-4.25,0-4.19-2.39-6.32-7.1-6.32-1.15,0-4.67,0-6.71,2.1A6.07,6.07,0,0,0,12.07,14v.22H6.27V14C6.27,10.67,7.64,2.9,20.32,2.9c4.75,0,8.28,1.15,10.51,3.43a10.33,10.33,0,0,1,2.65,7.75l-.32,15.19c0,1.34,0,2.4.6,3a3.42,3.42,0,0,0,2.57.53h.23v4.36l-.16,0a9.67,9.67,0,0,1-2.62.26c-3.37,0-5.17-.67-5.93-4.36C25.72,36.49,21.73,38.45,16.8,38.45ZM20.32,6.88c3.43,0,7.52,1.17,7.52,6.74,0,4.27-1.64,4.38-6,4.67l-.52,0C8.17,19.54,5.53,23.1,5.53,28.43c0,4.38,2,9.6,11.27,9.6,5,0,9-2.06,11-5.66l.3-.54.1.61c.7,4.24,2.68,4.56,5.62,4.56a9.55,9.55,0,0,0,2.36-.21V33.2a3.54,3.54,0,0,1-2.67-.66c-.73-.69-.73-1.83-.73-3.27v-.13l.32-15.07a10,10,0,0,0-2.53-7.45C28.38,4.43,25,3.32,20.32,3.32c-12,0-13.57,7.16-13.63,10.48h5a6.38,6.38,0,0,1,1.66-4.7C15.47,6.88,19.12,6.88,20.32,6.88ZM17.44,34.47c-4,0-6.49-2.44-6.49-6.23,0-5,3.87-5.66,8.35-6.37l1.12-.18c1-.14,1.84-.23,2.6-.3,2-.19,3.31-.32,4.48-1.26l.36-.3-.15,3.23C27.15,33,21,34.47,17.44,34.47Zm10-13.75c-1.17.78-2.47.91-4.34,1.09-.75.07-1.61.15-2.58.29-.37.07-.75.12-1.11.18-4.47.72-8,1.28-8,6,0,3.59,2.32,5.81,6.07,5.81,4.21,0,9.33-1.91,9.85-11Z"/></svg>