<svg width="1115" height="140" viewBox="0 0 1115 140" fill="none" xmlns="http://www.w3.org/2000/svg">
<path d="M15.372 44.982H0V42.462H5.796L21.168 0.251992H23.94L39.438 42.462H45.108V44.982H24.381V42.462H32.445L28.413 31.374H12.978L9.072 42.462H15.372V44.982ZM20.475 10.143L13.986 28.602H27.468L20.727 10.143H20.475ZM84.7237 44.982H65.0047V42.462H70.6747V3.40199H65.0047V0.881992H84.7237C91.5277 0.881992 99.7807 2.26799 99.7807 11.34C99.7807 18.9 92.8507 21.294 88.3147 21.42V21.672C92.7877 21.672 101.545 23.184 101.545 32.886C101.545 42.966 91.5277 44.982 84.7237 44.982ZM77.1007 22.932V42.462H84.7237C90.9607 42.462 94.7407 38.871 94.7407 32.886C94.7407 25.326 90.5827 22.932 84.7237 22.932H77.1007ZM77.1007 3.40199V20.412H84.7867C89.8267 20.412 92.9767 17.01 92.9767 11.34C92.9767 4.97699 90.3307 3.40199 84.7237 3.40199H77.1007ZM148.091 45.864C134.546 45.864 126.356 35.784 126.356 22.806C126.356 10.962 134.546 -8.28505e-06 148.091 -8.28505e-06C152.942 -8.28505e-06 155.588 1.38599 157.226 2.26799C157.982 2.64599 158.549 2.89799 158.927 2.89799C159.872 2.89799 160.124 2.20499 160.376 0.629991H162.896L163.4 15.12H160.88C159.683 7.93799 156.533 2.51999 148.721 2.51999C137.696 2.51999 133.412 10.332 133.412 22.806C133.412 36.414 137.696 43.344 148.721 43.344C156.533 43.344 160.817 37.863 161.888 30.051H164.408L163.967 45.234H161.447C160.817 43.029 160.502 42.714 159.557 42.714C158.99 42.714 158.234 42.966 157.163 43.47C155.336 44.352 152.06 45.864 148.091 45.864ZM208.323 44.982H191.061V42.462H196.731V3.40199H191.061V0.881992H208.323C222.813 0.881992 233.145 5.66999 233.145 23.121C233.145 38.115 222.813 44.982 208.323 44.982ZM203.157 3.40199V42.462H208.323C220.293 42.462 226.089 37.737 226.089 23.121C226.089 8.31599 220.293 3.40199 208.323 3.40199H203.157ZM293.057 33.516L292.616 45.36C290.6 45.171 286.82 44.982 282.032 44.982H256.643V42.462H262.313V3.40199H256.643V0.881992H286.253C287.513 0.881992 290.033 0.818992 291.356 0.629991L291.86 11.97H289.34C287.828 3.84299 285.623 3.40199 276.11 3.40199H268.739V20.412H272.393C280.646 20.412 280.646 20.349 281.276 12.537H283.796V31.563H281.276C280.709 23.121 280.646 22.932 272.456 22.932H268.739V42.462H276.614C287.765 42.462 289.718 42.336 290.537 33.516H293.057ZM336.182 44.982H318.164V42.462H323.834V3.40199H318.164V0.881992H338.576C343.49 0.881992 347.396 0.881992 352.184 0.377994L352.688 12.096H350.168C349.034 6.04799 348.53 3.40199 341.474 3.40199H330.26V20.601H334.796C341.096 20.601 342.419 19.341 342.419 12.537H344.939V31.815H342.419C342.419 25.452 341.978 23.121 334.796 23.121H330.26V42.462H336.182V44.982ZM396.264 45.864C382.215 45.864 374.655 35.784 374.655 22.806C374.655 10.962 382.215 -8.28505e-06 396.264 -8.28505e-06C400.737 -8.28505e-06 403.509 1.25999 405.021 1.95299C405.84 2.33099 406.596 2.64599 407.163 2.64599C408.045 2.64599 408.36 1.82699 408.423 0.818992H410.943L411.447 15.183H408.927C408.423 7.18199 403.761 2.51999 397.02 2.51999C385.995 2.51999 381.711 10.332 381.711 22.806C381.711 36.414 385.995 43.344 397.02 43.344C399.981 43.344 403.572 42.273 405.147 40.446V31.5H399.477V28.98H416.613V31.5H411.573V39.942C407.919 43.659 401.934 45.864 396.264 45.864ZM455.834 44.982H438.068V42.462H443.738V3.40199H438.068V0.881992H455.834V3.40199H450.164V20.034H471.962V3.40199H466.292V0.881992H484.058V3.40199H478.388V42.462H484.058V44.982H466.292V42.462H471.962V22.932H450.164V42.462H455.834V44.982ZM525.907 44.982H508.141V42.462H513.811V3.40199H508.141V0.881992H525.907V3.40199H520.237V42.462H525.907V44.982ZM555.896 45.864C551.864 45.864 548.651 42.966 548.651 39.627C548.651 37.044 550.478 35.28 552.683 35.28C554.825 35.28 556.148 37.044 556.148 39.06C556.148 40.887 554.825 41.832 554.006 42.21C554.006 42.588 555.014 43.281 556.337 43.281C559.361 43.281 560.495 40.761 560.495 32.004V3.40199H554.321V0.881992H572.339V3.40199H566.921V32.004C566.921 39.816 562.7 45.864 555.896 45.864ZM612.588 44.982H594.822V42.462H600.492V3.40199H594.822V0.881992H612.588V3.40199H606.918V20.286H609.69L626.574 3.40199H621.156V0.881992H636.276V3.40199H630.858L614.793 19.341L634.638 42.462H640.308V44.982H620.526V42.462H626.448L609.69 22.806H606.918V42.462H612.588V44.982ZM695.622 33.138L695.181 45.423C690.015 45.171 685.101 44.982 672.627 44.982H660.342V42.462H666.012V3.40199H660.342V0.881992H678.108V3.40199H672.438V42.462H683.841C690.141 42.462 692.472 41.265 693.102 33.138H695.622ZM730.749 44.982H716.511V42.462H722.181V3.40199H716.511V0.881992H729.615L742.593 35.154H742.656L754.815 0.881992H768.045V3.40199H762.375V42.462H768.045V44.982H750.279V42.462H755.949V6.80399L755.823 6.61499L742.089 44.982H739.569L725.205 6.99299L725.079 7.18199V42.462H730.749V44.982ZM805.562 44.982H791.198V42.462H796.868V6.80399C796.868 4.22099 795.608 3.40199 792.899 3.40199H791.198V0.881992H802.538L825.974 33.768V3.40199H820.304V0.881992H834.29V3.40199H828.998V44.982H826.352L799.892 7.62299V42.462H805.562V44.982ZM878.024 45.864C867.314 45.864 856.856 37.611 856.856 23.121C856.856 8.63099 867.314 -8.28505e-06 878.024 -8.28505e-06C888.734 -8.28505e-06 899.192 8.63099 899.192 23.121C899.192 37.611 888.734 45.864 878.024 45.864ZM878.024 43.344C889.364 43.344 892.136 33.201 892.136 23.121C892.136 13.041 889.364 2.51999 878.024 2.51999C866.684 2.51999 863.912 13.041 863.912 23.121C863.912 33.201 866.621 43.344 878.024 43.344ZM940.686 44.982H922.668V42.462H928.338V3.40199H922.668V0.881992H941.694C951.648 0.881992 957.066 5.92199 957.066 13.104C957.066 21.294 949.506 25.578 941.694 25.578H934.764V42.462H940.686V44.982ZM934.764 3.40199V22.932H941.694C947.112 22.932 950.262 20.79 950.262 13.104C950.262 6.80399 948.057 3.40199 941.694 3.40199H934.764ZM1014.5 58.212H1007.13C1000.39 58.212 996.612 55.125 996.612 48.006V45.549C987.477 44.037 979.098 36.036 979.098 23.121C979.098 8.63099 989.556 -8.28505e-06 1000.27 -8.28505e-06C1010.98 -8.28505e-06 1021.43 8.63099 1021.43 23.121C1021.43 36.477 1012.42 44.415 1003.29 45.675V47.943C1003.29 54.873 1006 55.692 1012.68 55.692H1014.5V58.212ZM1000.27 43.344C1011.61 43.344 1014.38 33.201 1014.38 23.121C1014.38 13.041 1011.61 2.51999 1000.27 2.51999C988.926 2.51999 986.154 13.041 986.154 23.121C986.154 33.201 988.863 43.344 1000.27 43.344ZM1080 45.864C1074.02 45.864 1072.19 41.58 1071.69 36.855C1071.5 35.091 1071.56 33.012 1071.18 29.925C1070.61 25.389 1066.96 23.688 1061.98 23.688H1057.01V42.462H1062.68V44.982H1044.91V42.462H1050.58V3.40199H1044.91V0.881992H1064.13C1069.92 0.881992 1079.31 2.70899 1079.31 11.277C1079.31 18.837 1074.58 21.609 1067.84 22.176V22.491C1069.54 22.743 1073.07 23.373 1075.59 25.956C1078.55 28.98 1078.24 33.138 1078.68 38.43C1078.87 40.698 1079.5 43.092 1081.01 43.092C1082.21 43.092 1082.9 41.895 1083.28 40.635L1085.61 41.454C1084.98 43.974 1082.9 45.864 1080 45.864ZM1057.01 3.40199V21.168H1061.98C1067.97 21.168 1072.5 18.333 1072.5 11.34C1072.5 4.66199 1067.91 3.40199 1064.13 3.40199H1057.01ZM17.388 123.864C13.671 123.864 10.647 122.667 8.883 121.974C7.938 121.596 7.119 121.344 6.615 121.344C5.607 121.344 5.544 122.415 5.481 123.801H2.961L3.402 110.067H5.922C7.056 116.997 10.647 121.344 17.136 121.344C20.727 121.344 26.208 120.273 26.208 114.162C26.208 108.492 19.971 105.153 15.813 103.074C10.143 100.239 3.339 96.774 3.339 89.844C3.339 82.221 8.379 78 16.128 78C19.593 78 22.113 78.882 23.751 79.449C24.57 79.764 25.263 79.953 25.704 79.953C26.838 79.953 26.964 78.756 27.027 78H29.547L29.673 89.151H27.153C26.208 83.418 20.349 80.52 16.317 80.52C12.978 80.52 8.442 81.528 8.442 87.072C8.442 92.364 14.553 95.514 18.585 97.53C24.192 100.365 31.941 104.586 31.941 111.264C31.941 119.328 25.893 123.864 17.388 123.864ZM81.3163 122.982H63.0463V120.462H68.9683V81.402H63.9283C58.2583 81.402 57.5023 83.922 56.4943 90.222H53.9743L54.4153 78.378C55.6753 78.567 58.8253 78.882 60.7783 78.882H83.5843C85.5373 78.882 88.6243 78.567 89.8843 78.378L90.3883 90.222H87.8683C86.8603 83.922 86.1043 81.402 80.4343 81.402H75.3943V120.462H81.3163V122.982ZM134.516 123.864C123.869 123.864 116.498 119.328 116.498 107.043V81.402H110.828V78.882H128.594V81.402H122.924V107.547C122.924 115.296 125.381 121.092 134.516 121.092C144.974 121.092 147.494 113.28 147.494 103.704V81.402H141.824V78.882H156.188V81.402H150.518V106.035C150.518 116.556 145.793 123.864 134.516 123.864ZM198.607 123.612H196.087L179.707 81.402H174.415V78.882H193.252V81.402H186.07L198.859 114.918H199.111L211.27 81.402H205.348V78.882H219.649V81.402H214.357L198.607 123.612ZM259.457 123.612H256.937L240.305 81.402H235.013V78.882H251.582V81.402H247.109L259.961 114.855H260.213L266.765 99.168L259.394 81.402H254.858V78.882H284.027V81.402H278.231L271.931 95.262L279.617 114.54H279.869L291.713 81.402H287.303V78.882H300.029V81.402H294.737L279.365 123.612H276.845L268.34 102.885H268.151L259.457 123.612ZM266.324 81.402L270.356 92.049H270.608L275.144 81.402H266.324ZM332.528 122.982H316.652V120.462H322.7L335.237 101.499L323.708 81.402H318.038V78.882H336.686V81.402H330.89L338.954 96.018L348.404 81.402H342.86V78.882H357.854V81.402H352.184L340.655 98.79L353.192 120.462H359.618V122.982H339.584V120.462H346.01L336.938 104.271L326.48 120.462H332.528V122.982ZM405.766 122.982H388V120.462H393.67V104.712L381.133 81.402H375.589V78.882H394.237V81.402H388.189L398.269 100.617L408.349 81.402H402.805V78.882H416.917V81.402H411.625L400.096 103.2V120.462H405.766V122.982ZM471.373 108.933L469.735 123.486C467.404 123.234 464.317 122.982 461.356 122.982H436.975L462.175 81.402H452.725C444.22 81.402 442.015 81.654 440.503 92.301H437.983L439.369 78.378C441.7 78.63 446.551 78.882 449.512 78.882H470.554L445.354 120.462H454.93C464.443 120.462 466.9 119.706 468.853 108.933H471.373ZM510.446 122.982H494.57V120.462H500.618L513.155 101.499L501.626 81.402H495.956V78.882H514.604V81.402H508.808L516.872 96.018L526.322 81.402H520.778V78.882H535.772V81.402H530.102L518.573 98.79L531.11 120.462H537.536V122.982H517.502V120.462H523.928L514.856 104.271L504.398 120.462H510.446V122.982ZM566.599 123.864C562.126 123.864 559.039 120.525 559.039 116.745C559.039 108.996 569.812 106.854 576.427 106.854V103.452C576.427 98.979 574.663 96.144 570.253 96.144C567.733 96.144 564.961 97.152 563.953 98.79C565.087 98.79 566.851 99.672 566.851 102.066C566.851 103.704 565.276 105.342 563.323 105.342C561.748 105.342 559.921 104.208 559.921 101.562C559.921 97.278 564.961 93.75 570.631 93.75C577.624 93.75 582.223 96.396 582.223 103.452V115.926C582.223 119.517 582.412 121.092 583.609 121.092C584.491 121.092 585.373 119.706 585.625 118.509L587.893 119.328C587.263 121.722 585.751 123.864 582.223 123.864C579.01 123.864 577.12 122.415 576.679 119.454H576.427C574.411 122.226 570.442 123.864 566.599 123.864ZM568.489 120.966C572.143 120.966 576.427 117.186 576.427 114.225V109.248C572.458 109.248 564.835 109.878 564.835 115.674C564.835 119.328 566.536 120.966 568.489 120.966ZM627.24 123.864C623.964 123.864 621.192 122.541 619.428 121.596C618.294 120.966 617.412 120.588 616.656 120.588C615.522 120.588 614.766 122.1 614.388 123.234H612.12V81.276H607.206V78.882H612.057C614.01 78.882 615.018 78.882 615.648 78H617.916V98.286L618.042 98.475C619.491 96.585 622.452 93.75 627.24 93.75C635.682 93.75 640.596 100.491 640.596 107.799C640.596 119.202 633.477 123.864 627.24 123.864ZM626.61 121.47C633.477 121.47 634.17 114.099 634.17 107.799C634.17 101.121 632.847 96.144 626.61 96.144C622.452 96.144 619.239 99.987 618.546 102.192C618.042 103.767 617.916 104.964 617.916 106.728V112.209C617.916 113.91 618.042 115.044 618.357 116.178C618.861 117.879 621.822 121.47 626.61 121.47ZM679.722 123.864C670.335 123.864 665.106 116.556 665.106 108.87C665.106 100.554 670.335 93.75 679.659 93.75C685.896 93.75 691.062 97.404 691.062 101.31C691.062 103.83 689.55 105.216 687.66 105.216C685.392 105.216 684.132 103.389 684.132 101.688C684.132 100.05 685.14 98.916 685.959 98.412C684.825 97.215 682.998 96.144 680.289 96.144C672.666 96.144 671.532 102.192 671.532 108.87C671.532 115.17 672.666 121.47 680.289 121.47C684.636 121.47 687.849 118.572 688.92 115.548L691.188 116.43C689.991 119.643 686.652 123.864 679.722 123.864ZM728.547 123.864C719.916 123.864 714.876 116.745 714.876 108.555C714.876 100.428 719.916 93.75 728.547 93.75C731.949 93.75 735.288 95.325 737.43 98.349L737.556 98.16V81.276H732.642V78.882H736.8C739.194 78.882 740.454 78.882 741.084 78H743.352V120.588H748.266V122.982H744.108C741.777 122.982 740.517 123.045 739.824 123.864H737.556V119.643L737.367 119.517C735.981 121.281 733.02 123.864 728.547 123.864ZM729.177 121.47C732.516 121.47 736.044 118.635 736.863 115.926C737.367 114.225 737.556 112.65 737.556 109.752V106.287C737.556 104.712 737.367 103.452 737.115 102.57C736.422 100.176 733.524 96.144 729.177 96.144C721.806 96.144 721.302 103.074 721.302 108.555C721.302 113.217 721.806 121.47 729.177 121.47ZM784.189 123.864C776.062 123.864 769.384 118.257 769.384 108.744C769.384 98.664 776.377 93.75 783.559 93.75C790.3 93.75 796.978 98.097 796.978 107.925H775.81V109.374C775.81 116.304 777.7 121.47 784.189 121.47C790.048 121.47 793.135 118.635 794.521 115.044L796.789 115.926C795.151 120.399 791.056 123.864 784.189 123.864ZM775.873 105.531H790.552C790.552 99.924 788.284 96.144 783.559 96.144C779.275 96.144 776.188 99.609 775.873 105.531ZM837.036 122.982H821.034V120.588H825.948V97.026H821.034V94.632H825.948C825.948 85.812 827.838 78 836.721 78C841.005 78 843.588 80.898 843.588 83.67C843.588 85.938 841.95 87.702 839.934 87.702C838.17 87.702 836.658 86.442 836.658 84.426C836.658 82.788 837.792 81.654 838.8 81.402V81.339C838.296 80.646 837.414 80.268 836.406 80.268C832.185 80.268 831.744 84.237 831.744 91.986V94.632H837.036V97.026H831.744V120.588H837.036V122.982ZM871.239 139.362C864.183 139.362 858.135 136.905 858.135 130.92C858.135 127.266 861.159 125.25 864.687 124.431V124.242C861.852 123.927 859.584 121.155 859.584 118.131C859.584 115.107 861.915 112.524 864.939 111.705V111.642C862.293 109.752 860.907 107.232 860.907 103.893C860.907 97.026 866.64 93.75 872.688 93.75C877.287 93.75 880.185 95.199 881.886 97.152H881.949C883.083 95.703 884.973 94.002 887.43 94.002C889.509 94.002 891.021 95.01 891.021 97.089C891.021 98.979 889.698 100.05 888.375 100.05C886.422 100.05 885.729 98.16 885.477 97.278C884.847 97.278 884.154 97.656 883.398 99.231C883.713 99.987 884.217 101.373 884.217 103.83C884.217 110.256 879.681 114.288 872.31 114.288C870.105 114.288 868.404 113.658 867.081 113.091C865.821 113.343 863.931 114.288 863.931 116.556C863.931 117.753 864.435 119.328 867.963 119.328H878.61C884.784 119.328 887.556 123.297 887.556 127.266C887.556 135.897 878.547 139.362 871.239 139.362ZM871.743 136.842C877.161 136.842 883.02 134.763 883.02 129.471C883.02 125.565 881.067 124.62 878.106 124.62H867.774C864.813 126.132 864.183 128.715 864.183 130.668C864.183 135.582 867.333 136.842 871.743 136.842ZM872.751 111.894C877.035 111.894 878.169 108.051 878.169 103.578C878.169 98.349 877.098 96.144 872.688 96.144C868.215 96.144 866.955 98.979 866.955 103.578C866.955 108.051 867.837 111.894 872.751 111.894ZM927.573 122.982H912.453V120.588H917.367V81.276H912.453V78.882H916.548C919.005 78.882 920.391 78.882 920.895 78H923.163V98.538L923.289 98.727C924.738 96.522 928.14 93.75 932.613 93.75C938.598 93.75 942.945 96.774 942.945 105.531V120.588H947.607V122.982H932.739V120.588H937.149V105.531C937.149 100.302 935.448 96.711 931.353 96.711C926.502 96.711 923.163 101.814 923.163 103.452V120.588H927.573V122.982ZM985.163 122.982H969.791V120.588H974.705V97.026H969.791V94.632H974.579C976.217 94.632 977.54 94.632 978.233 93.75H980.501V120.588H985.163V122.982ZM977.288 87.324C975.335 87.324 973.697 85.812 973.697 83.733C973.697 81.654 975.335 80.142 977.288 80.142C979.178 80.142 980.879 81.591 980.879 83.733C980.879 85.812 979.241 87.324 977.288 87.324ZM1009.55 139.362C1005.77 139.362 1003.13 136.842 1003.13 134.07C1003.13 132.18 1004.39 130.29 1006.53 130.29C1008.55 130.29 1009.55 131.802 1009.55 133.188C1009.55 134.574 1008.55 135.33 1007.79 135.708C1008.04 136.338 1008.8 136.968 1009.93 136.968C1012.45 136.968 1013.21 134.574 1013.21 126.447V97.026H1007.92V94.632H1012.2C1014.72 94.632 1015.85 94.632 1016.74 93.75H1019V124.62C1019 132.243 1016.3 139.362 1009.55 139.362ZM1015.67 87.324C1013.71 87.324 1012.07 85.812 1012.07 83.733C1012.07 81.654 1013.71 80.142 1015.67 80.142C1017.56 80.142 1019.26 81.591 1019.26 83.733C1019.26 85.812 1017.62 87.324 1015.67 87.324ZM1080.62 122.982H1064.12V120.588H1068.78L1058.19 109.059H1055.8V120.588H1060.46V122.982H1045.09V120.588H1050V81.276H1045.09V78.882H1049.44C1051.77 78.882 1052.9 78.882 1053.53 78H1055.8V106.665H1058.19L1067.77 97.026H1061.97V94.632H1076.78V97.026H1071.17L1062.48 105.72L1076.34 120.588H1080.62V122.982ZM1114.66 122.982H1099.29V120.588H1104.2V81.276H1099.29V78.882H1103.2C1105.72 78.882 1106.98 78.882 1107.61 78H1110V120.588H1114.66V122.982Z" fill="black"/>
</svg>
