<svg width="48" height="48" viewBox="0 0 48 48" fill="none" xmlns="http://www.w3.org/2000/svg">
<g clip-path="url(#clip0_3028_295)">
<path d="M23.81 47.62C36.9599 47.62 47.62 36.9599 47.62 23.81C47.62 10.6601 36.9599 0 23.81 0C10.6601 0 0 10.6601 0 23.81C0 36.9599 10.6601 47.62 23.81 47.62Z" fill="black"/>
<path d="M17.3504 13.6396C18.3004 13.6396 19.1704 13.7196 19.9504 13.8896C20.7304 14.0596 21.4004 14.3296 21.9704 14.7096C22.5304 15.0896 22.9604 15.5996 23.2704 16.2296C23.5704 16.8596 23.7304 17.6396 23.7304 18.5696C23.7304 19.5696 23.5004 20.4096 23.0504 21.0896C22.5904 21.7596 21.9204 22.3096 21.0104 22.7396C22.2404 23.0896 23.1504 23.7096 23.7504 24.5996C24.3604 25.4896 24.6504 26.5596 24.6504 27.7996C24.6504 28.8096 24.4604 29.6796 24.0704 30.4196C23.6804 31.1596 23.1504 31.7596 22.4904 32.2296C21.8304 32.6996 21.0704 33.0396 20.2204 33.2596C19.3804 33.4796 18.5104 33.5996 17.6104 33.5996H7.94043V13.6396H17.3504ZM16.7804 21.6996C17.5604 21.6996 18.2004 21.5196 18.7104 21.1396C19.2204 20.7696 19.4604 20.1596 19.4604 19.3196C19.4604 18.8596 19.3804 18.4696 19.2104 18.1696C19.0404 17.8696 18.8204 17.6396 18.5304 17.4796C18.2504 17.3096 17.9304 17.1896 17.5604 17.1296C17.2004 17.0596 16.8204 17.0296 16.4304 17.0296H12.3204V21.6896H16.7704L16.7804 21.6996ZM17.0204 30.1996C17.4504 30.1996 17.8704 30.1596 18.2504 30.0696C18.6404 29.9796 18.9904 29.8496 19.2904 29.6496C19.5804 29.4596 19.8304 29.1896 20.0004 28.8496C20.1804 28.5196 20.2604 28.0796 20.2604 27.5596C20.2604 26.5296 19.9704 25.7996 19.3904 25.3596C18.8104 24.9196 18.0404 24.7096 17.1004 24.7096H12.3204V30.2096H17.0104L17.0204 30.1996Z" fill="white"/>
<path d="M30.9202 30.14C31.5102 30.72 32.3702 31.01 33.4902 31.01C34.2902 31.01 34.9802 30.81 35.5602 30.4C36.1402 30 36.4902 29.57 36.6202 29.12H40.1202C39.5602 30.86 38.7102 32.1 37.5402 32.85C36.3902 33.6 34.9902 33.98 33.3502 33.98C32.2102 33.98 31.1902 33.8 30.2702 33.43C29.3502 33.06 28.5802 32.55 27.9402 31.88C27.3102 31.21 26.8202 30.41 26.4702 29.47C26.1302 28.54 25.9502 27.51 25.9502 26.39C25.9502 25.27 26.1302 24.3 26.4802 23.37C26.8402 22.43 27.3402 21.63 27.9902 20.95C28.6502 20.27 29.4302 19.73 30.3302 19.34C31.2402 18.95 32.2402 18.75 33.3402 18.75C34.5602 18.75 35.6302 18.99 36.5502 19.47C37.4602 19.94 38.2102 20.58 38.8002 21.39C39.3902 22.19 39.8102 23.11 40.0702 24.13C40.3302 25.15 40.4202 26.23 40.3502 27.35H29.9202C29.9202 28.49 30.3102 29.58 30.9002 30.16L30.9202 30.14ZM35.4802 22.55C35.0102 22.03 34.2102 21.75 33.2302 21.75C32.6002 21.75 32.0702 21.86 31.6502 22.07C31.2402 22.28 30.9002 22.55 30.6402 22.87C30.3802 23.19 30.2102 23.53 30.1102 23.89C30.0102 24.24 29.9502 24.56 29.9302 24.84H36.3902C36.3002 23.83 35.9502 23.08 35.4702 22.55H35.4802Z" fill="white"/>
<path d="M37.2101 14.9795H29.1201V16.9495H37.2101V14.9795Z" fill="white"/>
</g>
<defs>
<clipPath id="clip0_3028_295">
<rect width="47.62" height="47.62" fill="white"/>
</clipPath>
</defs>
</svg>
