<svg width="1797" height="607" viewBox="0 0 1797 607" fill="none" xmlns="http://www.w3.org/2000/svg">
<path d="M309.82 414.423L310.355 421.959H309.276L308.693 416.332C307.308 415.842 305.33 415.49 302.106 415.49H299.96V445.4H304.302V446.467H291.404V445.4H295.746V415.49H293.511C289.931 415.49 288.002 415.891 286.924 416.332L286.39 421.959H285.361L285.806 414.423H309.811H309.82Z" fill="black"/>
<path d="M327.87 434.281H313.588C313.727 443.765 317.218 445.674 320.037 445.674C322.638 445.674 324.923 444.216 326.891 440.976L327.791 441.553C326.001 444.607 323.4 446.917 319.236 446.917C315.072 446.917 309.612 444.431 309.612 435.926C309.612 429.055 313.282 424.67 319.414 424.67C325.19 424.67 327.742 429.593 327.88 434.281H327.87ZM324.062 433.264C323.924 429.231 322.401 425.688 319.048 425.688C316.002 425.688 314.083 428.213 313.628 433.264H324.062Z" fill="black"/>
<path d="M348.512 426.168L342.647 434.145L350.302 445.439H353.26V446.457H342.697V445.439H345.921L340.372 437.237L334.28 445.439H338.038V446.457H329.443V445.439H332.935L339.7 436.268L332.846 426.168H329.888V425.15H340.006V426.168H337.188L341.975 433.166L347.127 426.168H343.992V425.15H352.102V426.168H348.522H348.512Z" fill="black"/>
<path d="M370.726 441.054L371.715 441.406C370.815 443.932 368.629 446.897 365.039 446.897C360.964 446.897 358.768 444.499 358.768 440.34V426.158H354.466V425.14H355.989C359.836 424.475 361.142 419.561 361.181 415.705H362.26V425.14H363.16C366.117 425.14 368.49 425.052 370.231 424.915L369.43 426.158H362.269V440.956C362.269 444.372 364.02 445.39 365.81 445.39C367.066 445.39 369.262 444.548 370.736 441.044L370.726 441.054Z" fill="black"/>
<path d="M308.209 499.817V499.288H312.64V483.511H295.173V499.288H299.604V499.817H287.023V499.288H291.454V468.312H287.023V467.783H299.604V468.312H295.173V482.983H312.64V468.312H308.209V467.783H320.789V468.312H316.359V499.288H320.789V499.817H308.209Z" fill="black"/>
<path d="M342.469 487.368H327.831C327.87 497.732 331.678 499.553 334.724 499.553C337.454 499.553 339.877 498.045 341.846 494.855L342.291 495.119C340.54 498.046 338.038 500.306 333.874 500.306C329.71 500.306 324.29 497.82 324.29 489.276C324.29 482.405 327.959 477.982 334.052 477.982C339.778 477.982 342.38 482.807 342.469 487.377V487.368ZM339.066 486.839C339.017 482.366 337.405 478.51 333.696 478.51C330.294 478.51 328.276 481.123 327.831 486.839H339.066Z" fill="black"/>
<path d="M346.9 484.265C346.673 483.688 346.633 483.198 346.633 482.846C346.633 480.096 349.046 477.972 353.032 477.972C357.285 477.972 361.321 479.479 361.321 485.058V496.803C361.321 497.909 361.588 499.24 362.755 499.24C363.467 499.24 364.1 498.447 364.406 496.94H364.94C364.495 499.602 363.19 500.306 361.627 500.306C359.481 500.306 358.363 498.799 358.264 495.785C354.328 499.866 351.638 500.306 349.887 500.306C346.396 500.306 344.823 498.31 344.823 495.785C344.823 490.47 352.528 488.337 357.097 487.495L358.264 487.319V485.058C358.264 480.8 357.097 478.549 352.805 478.549C349.581 478.549 347.256 480.282 347.256 482.846C347.256 483.198 347.296 483.688 347.523 484.265H346.9ZM358.274 487.857C352.943 488.787 348.384 490.558 348.384 495.217C348.384 497.918 349.946 498.897 351.836 498.897C353.982 498.897 356.85 496.548 358.284 495.002V487.867L358.274 487.857Z" fill="black"/>
<path d="M382.901 499.817V497.517C381.516 498.887 379.093 500.307 376.274 500.307C372.694 500.307 366.374 498.046 366.374 489.364C366.374 482.455 371.567 477.982 377.521 477.982C380.478 477.982 382.219 479.489 382.891 480.067V466.687C381.457 467.089 379.35 467.216 379.35 467.216V466.687C381.991 466.55 384.414 465.797 385.937 465.004V499.299H389.478V499.827H382.891L382.901 499.817ZM382.901 480.81C381.338 479.264 379.726 478.51 377.619 478.51C372.605 478.51 369.915 482.19 369.915 489.012C369.915 497.39 374.118 499.514 377.164 499.563C379.855 499.514 382.001 497.703 382.891 496.813V480.82L382.901 480.81Z" fill="black"/>
<path d="M391.15 466.667C393.84 466.491 395.897 465.777 397.599 464.984V499.278H401.139V499.807H391.021V499.278H394.562V466.667C393.089 467.108 391.021 467.196 391.021 467.196V466.667H391.16H391.15Z" fill="black"/>
<path d="M402.612 499.817V499.288H406.153V479.616C404.897 480.017 402.612 480.144 402.612 480.144V479.616C405.303 479.44 407.538 478.686 409.199 477.883V499.288H412.74V499.817H402.622H402.612ZM407.488 473.763C406.193 473.763 405.293 472.745 405.293 471.59C405.293 470.435 406.193 469.378 407.488 469.378C408.873 469.378 409.773 470.396 409.773 471.59C409.773 472.784 408.873 473.763 407.488 473.763Z" fill="black"/>
<path d="M427.734 499.817V499.288H431.275V485.468C431.275 479.312 428.278 478.774 426.438 478.774C424.599 478.774 422.225 480.056 420.801 481.074V499.288H424.342V499.817H414.224V499.288H417.764V479.616C416.152 480.056 414.224 480.144 414.224 480.144V479.616C417.131 479.44 419.199 478.637 420.811 477.883V480.408C423.451 478.588 425.875 477.971 427.526 477.971C433.925 477.971 434.331 482.581 434.331 486.173V499.288H437.872V499.817H427.754H427.734Z" fill="black"/>
<path d="M457.999 487.368H443.361C443.401 497.732 447.209 499.553 450.255 499.553C452.985 499.553 455.408 498.045 457.376 494.855L457.821 495.119C456.07 498.046 453.568 500.306 449.404 500.306C445.24 500.306 439.82 497.82 439.82 489.276C439.82 482.405 443.49 477.982 449.582 477.982C455.309 477.982 457.91 482.807 457.999 487.377V487.368ZM454.597 486.839C454.547 482.366 452.935 478.51 449.226 478.51C445.824 478.51 443.806 481.123 443.361 486.839H454.597Z" fill="black"/>
<path d="M286.983 521.397V521.133H293.343C296.3 521.133 300.148 520.908 302.61 520.908C318.326 520.908 319.76 532.115 319.76 535.971C319.76 541.726 317.476 553.382 302.61 553.382C300.286 553.382 296.073 553.157 294.144 553.157H286.983V552.893H291.464V521.388H286.983V521.397ZM302.165 521.172C299.93 521.172 296.973 521.26 294.955 521.397V552.903C296.518 552.991 299.792 553.128 301.898 553.128C312.244 553.128 315.913 545.376 315.913 536.382C315.913 530.803 313.539 521.182 302.165 521.182V521.172Z" fill="black"/>
<path d="M322.994 553.167V552.903H326.575V532.653C325.368 533.055 322.994 533.231 322.994 533.231V532.966C325.635 532.79 327.831 532.076 329.393 531.332V552.913H332.974V553.177H322.984L322.994 553.167ZM327.92 526.801C326.664 526.801 325.813 525.783 325.813 524.716C325.813 523.649 326.664 522.592 327.92 522.592C329.176 522.592 330.066 523.61 330.066 524.716C330.066 525.822 329.215 526.801 327.92 526.801Z" fill="black"/>
<path d="M342.469 553.657C339.957 553.657 337.365 552.952 335.437 550.995L335.526 553.168H335.259C335.209 551.171 335.081 549.488 335.031 547.589H335.298L335.387 549.762C336.376 551.308 338.523 553.393 342.508 553.393C345.644 553.393 347.256 551.181 347.256 548.92C347.256 546.483 345.11 545.152 343.359 544.183L340.224 542.451C337.088 540.718 335.743 539.221 335.743 536.784C335.743 532.702 339.235 531.332 341.964 531.332C343.844 531.332 346.178 531.822 348.186 533.818L348.097 531.91H348.364C348.403 533.906 348.542 535.59 348.591 537.498H348.364L348.225 535.061C347.375 533.642 345.406 531.606 342.044 531.606C339.492 531.606 338.325 533.427 338.325 535.198C338.325 537.195 339.353 538.125 340.382 538.79C341.322 539.407 342.528 539.984 343.557 540.474C347.048 542.206 349.649 544.105 349.649 547.608C349.649 551.112 347.365 553.677 342.439 553.677L342.469 553.657Z" fill="black"/>
<path d="M357.968 531.322V534.336C359.352 532.966 361.597 531.322 364.95 531.322C369.253 531.322 374.445 533.896 374.445 542.44C374.445 548.557 370.726 553.559 364.1 553.647C362.26 553.647 359.975 553.294 357.968 551.963V562.866H361.548V563.131H351.559V562.866H355.139V532.604C353.299 533.182 351.559 533.221 351.559 533.221V532.956C354.288 532.78 356.346 532.027 357.958 531.322H357.968ZM363.922 531.85C361.33 531.85 359.58 533.221 357.968 534.601V551.709C359.046 552.462 361.142 553.343 363.694 553.343C368.214 553.343 371.122 549.311 371.122 542.577C371.122 535.266 368.303 531.85 363.912 531.85H363.922Z" fill="black"/>
<path d="M382.911 518.247V552.894H386.491V553.158H376.502V552.894H380.082V519.578C378.648 520.067 376.502 520.155 376.502 520.155V519.891C379.281 519.715 381.289 519 382.901 518.257L382.911 518.247Z" fill="black"/>
<path d="M390.251 537.439C390.073 536.91 390.023 536.46 390.023 536.108C390.023 533.407 392.397 531.322 396.383 531.322C400.586 531.322 404.621 532.78 404.621 538.369V550.241C404.621 551.435 404.888 552.854 406.184 552.854C406.946 552.854 407.658 552.061 407.974 550.505H408.241C407.836 552.991 406.59 553.647 405.066 553.647C402.871 553.647 401.803 552.051 401.803 548.861C397.728 553.206 394.949 553.647 393.208 553.647C389.756 553.647 388.193 551.699 388.193 549.213C388.193 543.899 395.898 541.814 400.556 540.972L401.813 540.747V538.359C401.813 533.974 400.606 531.625 396.125 531.625C392.812 531.625 390.399 533.397 390.399 536.098C390.399 536.45 390.438 536.94 390.626 537.429H390.27L390.251 537.439ZM401.803 541.031C396.343 542.01 391.507 543.781 391.507 548.655C391.507 551.445 393.168 552.511 395.136 552.511C397.421 552.511 400.378 550.074 401.813 548.479V541.031H401.803Z" fill="black"/>
<path d="M428.535 532.115L421.909 551.034C421.147 553.245 420.029 556.221 418.862 558.57C417.567 561.183 416.044 563.581 412.859 563.581C411.247 563.581 409.585 562.563 409.585 560.527C409.585 559.685 409.902 559.069 409.902 559.069H410.258C410.258 559.069 409.941 559.734 409.941 560.527C409.941 562.436 411.415 563.277 412.898 563.277C415.767 563.277 417.201 561.105 418.496 558.54C419.12 557.258 419.753 555.839 420.336 554.244L410.436 532.134H407.795V531.87H417.29V532.134H413.571L421.671 550.613L428.12 532.134H424.401V531.87H431.344V532.134H428.525L428.535 532.115Z" fill="black"/>
<path d="M293.877 606.782V606.831C291.909 606.517 289.446 605.901 287.072 604.57L287.3 602.358C288.506 604.266 290.702 606.077 293.887 606.791L293.877 606.782ZM300.147 606.831V606.782C303.599 605.891 305.211 603.327 305.211 600.626C305.211 596.417 301.136 593.491 296.617 591.054C291.83 588.568 287.567 585.915 287.567 581.168C287.567 578.115 289.317 574.787 294.332 573.994V574.082C290.979 574.836 290.306 577.136 290.306 579.182C290.306 583.831 294.114 585.788 298.684 588.264C303.253 590.652 307.951 593.451 307.951 598.678C307.951 602.397 305.083 605.852 300.157 606.831H300.147ZM300.147 574.131V574.043C302.521 574.484 304.489 575.325 306.24 576.255L306.062 578.203C304.895 576.471 303.016 574.836 300.147 574.122V574.131Z" fill="black"/>
<path d="M326.486 604.873L326.575 605.01C325.23 606.204 323.4 607.007 321.066 607.007C317.219 607.007 314.845 604.922 314.845 600.625V585.475H310.325V585.21H310.998C315.251 585.21 317.308 581.315 317.397 577.146H317.535V601.34C317.535 605.323 319.553 606.703 321.699 606.703C323.578 606.703 325.191 606.038 326.486 604.883V604.873ZM320.443 585.289V585.201H325.992V585.553L320.443 585.289Z" fill="black"/>
<path d="M335.753 585.074C333.241 586.053 331.589 589.058 331.589 594.685C331.589 604.345 335.614 606.469 338.888 606.469C341.756 606.469 344.219 605.275 346.227 602.035L346.316 602.075C344.615 604.913 342.152 606.998 338.028 606.998C333.903 606.998 328.404 604.512 328.404 595.967C328.404 590.075 331.134 585.994 335.743 584.937V585.074H335.753ZM339.205 584.722C344.219 585.211 346.454 589.547 346.593 593.716H338.404V593.628L343.645 593.403C343.645 589.195 342.261 585.652 339.215 584.849V584.712L339.205 584.722Z" fill="black"/>
<path d="M353.755 585.201V606.518H351.064V585.201H353.755ZM364.901 606.518V592.072C364.901 586.532 363.022 584.986 359.837 584.986C359.61 584.986 358.631 585.035 357.78 585.387V585.299C359.076 584.77 360.421 584.682 361.093 584.682C367.186 584.682 367.581 589.204 367.581 592.796V606.527H364.891L364.901 606.518Z" fill="black"/>
<path d="M390.112 601.154L390.201 601.193C389.261 603.493 387.243 606.997 382.051 606.997C376.591 606.997 372.062 603.014 372.062 596.055C372.062 590.652 374.93 585.465 381.2 584.76V584.849C377.838 585.514 375.246 588.48 375.246 596.055C375.246 603.63 378.649 606.694 382.773 606.694C385.641 606.694 388.46 605.059 390.112 601.154ZM385.631 585.162L385.681 585.074C388.46 585.915 389.399 587.912 389.399 589.507C389.399 590.085 389.31 590.75 389.083 591.328H388.816C389.043 590.711 389.132 589.997 389.132 589.507C389.132 588 388.232 585.915 385.641 585.162H385.631Z" fill="black"/>
<path d="M395.353 576.295C396.382 576.295 397.193 577.088 397.193 578.066C397.193 579.045 396.382 579.838 395.353 579.838C394.325 579.838 393.514 579.035 393.514 578.066C393.514 577.097 394.325 576.295 395.353 576.295ZM394.008 606.518V585.201H396.698V606.518H394.008Z" fill="black"/>
<path d="M405.659 571.597V606.508H402.969V572.438L405.659 571.597Z" fill="black"/>
<path d="M22.0479 446.467V445.909H26.7063V413.327H22.0479V412.769H35.2813V413.327H30.6229V445.909H35.2813V446.467H22.0479ZM47.674 446.467L31.9878 428.752L47.6246 413.327H41.9277V412.769H53.4698V413.327H48.4751L35.0538 426.608L52.3918 445.909H55.7347V446.467H47.6839H47.674Z" fill="black"/>
<path d="M71.836 446.467V443.952C68.1667 446.976 65.2391 446.976 64.2995 446.976C59.0279 446.976 57.752 443.159 57.752 440.027V425.209C56.2487 425.581 54.0332 425.767 54.0332 425.767V425.209C57.0992 425.023 59.4037 424.132 60.9565 423.388V440.125C60.9565 445.488 63.7357 446.183 65.5259 446.183C67.6029 446.183 70.0953 444.734 71.836 443.296V425.16C71.0349 425.395 69.3832 425.669 68.1172 425.767V425.209C71.1338 424.974 73.3493 424.181 75.0405 423.388V445.899H78.7593V446.457H71.836V446.467Z" fill="black"/>
<path d="M98.4127 446.467V444.039C96.9489 445.488 94.4071 446.976 91.4399 446.976C87.6717 446.976 81.0352 444.597 81.0352 435.466C81.0352 428.194 86.4947 423.486 92.7652 423.486C95.8708 423.486 97.7105 425.072 98.4127 425.679V411.604C96.9093 412.025 94.6939 412.162 94.6939 412.162V411.604C97.4731 411.467 100.015 410.675 101.617 409.833V445.909H105.336V446.467H98.4127ZM98.4127 426.471C96.761 424.837 95.0697 424.044 92.8542 424.044C87.5826 424.044 84.754 427.91 84.754 435.094C84.754 443.902 89.1849 446.144 92.3795 446.183C95.2082 446.134 97.4632 444.225 98.4127 443.296V426.471Z" fill="black"/>
<path d="M119.607 424.093C116.027 424.093 113.861 428.292 113.861 431.228V445.909H117.58V446.467H106.938V445.909H110.656V425.219C108.916 425.639 106.938 425.776 106.938 425.776V425.219C110.043 424.984 112.12 424.191 113.861 423.398V428.155C115.038 425.219 117.253 423.496 119.795 423.496C121.209 423.496 123.613 424.24 123.613 426.99C123.613 427.597 123.425 428.527 123.188 429.134H122.574C122.901 428.253 123 427.411 123 426.99C123 425.639 122.198 424.103 119.607 424.103V424.093Z" fill="black"/>
<path d="M145.332 424.602L138.498 444.176C137.697 446.457 136.52 449.579 135.343 451.957C133.929 454.756 132.376 457.272 128.984 457.272C127.243 457.272 125.453 456.156 125.453 453.964C125.453 453.034 125.779 452.29 125.779 452.29H126.481C126.481 452.29 126.056 453.171 126.056 453.964C126.056 455.833 127.559 456.665 129.023 456.665C131.901 456.665 133.355 454.424 134.671 451.859C135.333 450.509 135.986 449.011 136.599 447.436L126.333 424.602H123.554V424.044H133.682V424.602H129.913L138.112 443.296L144.61 424.602H140.793V424.044H148.28V424.602H145.313H145.332Z" fill="black"/>
<path d="M172.601 447.113C168.407 447.113 164.975 446.134 161.86 443.247L162.048 446.467H161.533L160.831 437.424H161.395L161.721 441.476C163.462 443.531 166.805 446.555 172.551 446.555C178.298 446.555 180.276 443.384 180.276 440.076C180.276 435.926 176.181 432.853 171.562 430.475C166.568 427.773 161.998 425.072 161.998 419.992C161.998 415.843 164.451 412.026 172.126 412.026C175.756 412.026 179.099 413.376 181.314 415.706L181.176 412.769H181.739L182.165 420.922H181.601L181.364 417.477C180.701 416.449 178.159 412.584 172.274 412.584C166.389 412.584 165.351 415.148 165.351 417.761C165.351 422.371 169.218 424.563 173.827 426.99C178.634 429.604 183.629 432.442 183.629 438.04C183.629 442.846 179.672 447.133 172.611 447.133L172.601 447.113Z" fill="black"/>
<path d="M206.663 433.361H191.264C191.313 444.264 195.319 446.183 198.513 446.183C201.392 446.183 203.933 444.597 206.001 441.24L206.475 441.524C204.636 444.597 202.005 446.976 197.623 446.976C193.242 446.976 187.545 444.362 187.545 435.368C187.545 428.145 191.412 423.486 197.811 423.486C203.844 423.486 206.574 428.566 206.663 433.371V433.361ZM203.083 432.804C203.033 428.096 201.342 424.044 197.435 424.044C193.855 424.044 191.738 426.794 191.264 432.804H203.083Z" fill="black"/>
<path d="M221.549 424.093C217.968 424.093 215.802 428.292 215.802 431.228V445.909H219.521V446.467H208.879V445.909H212.598V425.219C210.857 425.639 208.879 425.776 208.879 425.776V425.219C211.985 424.984 214.062 424.191 215.802 423.398V428.155C216.979 425.219 219.195 423.496 221.736 423.496C223.151 423.496 225.554 424.24 225.554 426.99C225.554 427.597 225.366 428.527 225.129 429.134H224.516C224.842 428.253 224.941 427.411 224.941 426.99C224.941 425.639 224.14 424.103 221.549 424.103V424.093Z" fill="black"/>
<path d="M226.919 446.467V445.909H230.638V425.219C229.322 425.64 226.919 425.777 226.919 425.777V425.219C229.748 425.033 232.102 424.24 233.842 423.399V445.909H237.561V446.467H226.919ZM232.052 419.063C230.687 419.063 229.748 417.986 229.748 416.782C229.748 415.579 230.687 414.453 232.052 414.453C233.516 414.453 234.455 415.53 234.455 416.782C234.455 418.035 233.516 419.063 232.052 419.063Z" fill="black"/>
<path d="M242.743 445.899V424.602H239.025V424.044H242.743C242.743 420.501 243.307 417.428 244.108 415.324C245.285 412.524 247.738 410.195 251.032 410.195C252.772 410.195 254.375 411.125 254.375 412.945C254.375 413.689 254.088 414.531 253.9 414.952H253.198C253.524 414.296 253.712 413.552 253.712 412.994C253.712 411.507 252.535 410.802 251.071 410.802C246.076 410.802 245.938 418.446 245.938 422.224V424.044H252.248V424.602H245.938V445.899H249.657V446.457H239.015V445.899H242.733H242.743Z" fill="black"/>
<path d="M534.315 446.467H529.884V412.769H534.315V446.467ZM550.654 446.467L534.918 428.713L542.593 421.578C544.571 419.718 545.936 418.358 546.925 417.379C547.212 417.056 547.538 416.684 547.914 416.312C548.903 415.334 550.031 414.12 551.119 412.769H554.6C552.523 414.032 550.317 416.028 548.29 417.898L538.874 426.804L556.252 446.477H550.644L550.654 446.467Z" fill="black"/>
<path d="M574.172 446.467H570.503V444.323C567.16 446.839 564.331 446.937 563.441 446.937C558.071 446.937 556.805 443.071 556.805 439.9V424.563L560.474 423.349V439.988C560.474 444.969 563.352 445.351 565.182 445.351C566.834 445.351 569.049 444.138 570.503 442.973V424.563L574.172 423.349V446.467Z" fill="black"/>
<path d="M596.871 446.467V444.461C595.368 445.762 593.004 446.927 590.324 446.927C586.605 446.927 579.919 444.598 579.919 435.456C579.919 428.185 585.24 423.526 591.501 423.526C593.152 423.526 595.13 423.898 596.871 425.248V411.311L600.541 410.098V446.457H596.871V446.467ZM596.871 426.844C595.457 425.356 593.617 424.602 591.738 424.602C586.743 424.602 584.112 428.282 584.112 435.085C584.112 443.521 588.445 445.616 591.273 445.616C594.102 445.616 596.218 443.707 596.881 442.865V426.834L596.871 426.844Z" fill="black"/>
<path d="M611.618 423.349V426.286C612.745 424.984 614.585 423.535 617.038 423.535C618.452 423.535 619.253 423.819 619.955 424.044L620.47 424.279L620.183 427.303C619.006 425.816 617.305 425.111 616.553 425.111C614.624 425.111 613.26 425.718 611.608 428.184V446.457H607.938V424.553L611.608 423.34L611.618 423.349Z" fill="black"/>
<path d="M642.377 424.044C642.328 424.132 642.001 424.886 641.903 425.072C641.428 426.423 639.974 429.917 636.394 439.616C635.454 442.229 634.277 444.979 633.239 447.583C633.051 447.955 632.912 448.424 632.724 448.884C631.785 451.165 630.796 453.494 629.619 454.992C628.541 456.293 627.314 456.998 625.712 456.998C624.723 456.998 623.823 456.714 622.695 455.921L623.022 452.985C623.922 454.199 625.237 455.363 626.226 455.363C627.215 455.363 628.066 455.041 628.907 453.827C629.945 452.427 630.984 450.147 632.16 446.976L621.845 424.044H625.85L634.05 442.503C636.127 436.866 637.491 432.951 638.382 430.103C639.272 427.352 640.033 424.602 640.172 424.044H642.387H642.377Z" fill="black"/>
<path d="M667.678 447.074C666.263 447.074 661.457 446.937 656.848 444.226L657.174 439.988C659.014 443.159 662.634 445.997 667.678 445.997C672.999 445.997 675.303 443.012 675.303 439.89C675.303 435.975 671.298 433.039 666.827 430.66C661.832 428.047 657.362 425.258 657.362 420.129C657.362 416.029 659.904 412.065 667.678 412.065C671.683 412.065 674.739 413.327 677.43 414.815L677.054 418.642C675.264 415.843 672.297 413.141 667.678 413.141C662.307 413.141 661.18 415.657 661.18 418.084C661.18 422.469 664.898 424.426 669.379 426.843C674.186 429.359 679.131 432.295 679.131 437.893C679.131 442.738 674.848 447.074 667.688 447.074H667.678Z" fill="black"/>
<path d="M685.391 430.524C685.105 429.731 685.065 429.173 685.065 428.752C685.065 425.816 687.607 423.536 691.899 423.536C696.419 423.536 700.662 425.072 700.662 431.042V443.071C700.662 444.147 700.9 445.351 701.839 445.351C702.452 445.351 702.967 444.51 703.303 442.973H704.43C703.916 446.095 702.502 446.937 700.712 446.937C698.496 446.937 697.27 445.449 696.993 442.699C693.136 446.614 690.495 446.937 688.705 446.937C684.936 446.937 683.245 444.793 683.245 442.043C683.245 436.357 691.207 434.164 696.053 433.323L696.993 433.137V431.042C696.993 426.893 695.865 424.661 691.672 424.661C688.517 424.661 686.252 426.296 686.252 428.762C686.252 429.085 686.341 429.692 686.677 430.533H685.401L685.391 430.524ZM696.973 434.253C691.79 435.231 687.369 436.954 687.369 441.476C687.369 443.991 688.873 444.97 690.623 444.97C692.789 444.97 695.519 442.689 696.983 441.104V434.253H696.973Z" fill="black"/>
<path d="M722.371 446.467V431.463C722.371 426.335 720.68 424.896 717.802 424.896C716.061 424.896 714.033 425.875 712.194 427.695V446.477H708.524V424.054H712.194V426.198C714.31 424.377 716.714 423.545 719.028 423.545C725.665 423.545 726.05 428.39 726.05 432.217V446.477H722.381L722.371 446.467Z" fill="black"/>
<path d="M738.958 446.927C734.952 446.927 732.084 444.549 730.759 441.192L731.698 440.634C733.113 443.893 735.704 445.762 738.859 445.762C742.014 445.762 743.616 444.089 743.616 441.936C743.616 438.814 740.738 437.179 737.919 435.642C735.051 434.008 732.173 432.422 732.173 429.163C732.173 425.013 735.941 423.526 738.859 423.526C741.075 423.526 743.142 424.035 745.594 425.483L745.268 428.556C743.854 426.648 741.737 424.593 738.958 424.593C736.693 424.593 735.615 426.266 735.615 427.813C735.615 430.005 737.88 431.219 740.372 432.569C743.478 434.243 746.87 436.063 746.87 440.311C746.87 444.559 743.102 446.927 738.958 446.927Z" fill="black"/>
<path d="M788.064 446.467V415.49H787.619C783.316 415.49 780.369 416.244 778.44 417.614L778.668 414.423H801.683L801.91 417.614C799.982 416.244 797.034 415.49 792.683 415.49H792.277V446.467H788.064Z" fill="black"/>
<path d="M820.297 434.281H806.015C806.154 443.765 809.645 445.674 812.464 445.674C815.065 445.674 817.34 444.216 819.318 440.976L820.218 441.553C818.428 444.607 815.826 446.917 811.662 446.917C807.499 446.917 802.039 444.431 802.039 435.926C802.039 429.055 805.708 424.67 811.85 424.67C817.626 424.67 820.178 429.593 820.317 434.281H820.297ZM816.489 433.264C816.351 429.231 814.827 425.688 811.475 425.688C808.428 425.688 806.5 428.213 806.055 433.264H816.489Z" fill="black"/>
<path d="M833.383 434.497L841.849 446.457H837.635L831.147 437.149C830.653 437.727 830.119 438.431 829.674 439.058C828.645 440.34 827.656 441.671 826.716 443.09C826.004 444.157 824.926 445.664 824.432 446.457H822.107C823.453 444.999 824.57 443.619 825.648 442.248C826.182 441.632 826.677 440.966 827.171 440.389L827.438 440.076C828.249 439.058 829.051 438.04 830.435 436.268L822.424 425.15H826.815L832.68 433.655C834.56 431.306 837.339 427.763 838.634 425.15H841.008C840.781 425.375 839.574 426.833 838.901 427.675C838.229 428.429 837.556 429.31 837.022 429.887L833.392 434.497H833.383Z" fill="black"/>
<path d="M859.176 443.58L859.849 444.509C858.375 445.968 856.357 446.907 853.984 446.907C849.998 446.907 847.585 444.735 847.585 440.35V426.168H843.282V425.15H844.4C848.158 425.15 849.948 421.343 849.998 417.399H851.076V425.15H859.137V426.168H851.076V440.966C851.076 444.382 852.777 445.664 854.567 445.664C856.229 445.664 857.881 444.911 859.176 443.58Z" fill="black"/>
<path d="M802.524 499.817V483.511H785.107V499.817H781.349V467.783H785.107V482.983H802.524V467.783H806.282V499.817H802.524Z" fill="black"/>
<path d="M830.108 487.368H815.47C815.52 497.732 819.318 499.553 822.364 499.553C825.094 499.553 827.517 498.045 829.485 494.855L829.93 495.119C828.18 498.046 825.677 500.306 821.514 500.306C817.35 500.306 811.93 497.82 811.93 489.276C811.93 482.405 815.599 477.982 821.692 477.982C827.418 477.982 830.019 482.807 830.108 487.377V487.368ZM826.706 486.839C826.657 482.366 825.044 478.51 821.336 478.51C817.933 478.51 815.916 481.123 815.47 486.839H826.706Z" fill="black"/>
<path d="M834.54 484.265C834.312 483.688 834.273 483.198 834.273 482.846C834.273 480.096 836.686 477.972 840.672 477.972C844.925 477.972 848.96 479.479 848.96 485.058V496.803C848.96 497.909 849.227 499.24 850.394 499.24C851.106 499.24 851.739 498.447 852.046 496.94H852.58C852.135 499.602 850.829 500.306 849.267 500.306C847.121 500.306 846.003 498.799 845.904 495.785C841.968 499.866 839.277 500.306 837.527 500.306C834.035 500.306 832.463 498.31 832.463 495.785C832.463 490.47 840.168 488.337 844.737 487.495L845.904 487.319V485.058C845.904 480.8 844.737 478.549 840.444 478.549C837.22 478.549 834.896 480.282 834.896 482.846C834.896 483.198 834.935 483.688 835.163 484.265H834.54ZM845.914 487.857C840.583 488.787 836.023 490.558 836.023 495.217C836.023 497.918 837.586 498.897 839.475 498.897C841.621 498.897 844.49 496.548 845.924 495.002V487.867L845.914 487.857Z" fill="black"/>
<path d="M870.768 499.817V497.517C869.383 498.887 866.96 500.306 864.141 500.306C860.561 500.306 854.251 498.045 854.251 489.364C854.251 482.454 859.265 477.982 865.269 477.982C867.02 477.982 869.027 478.422 870.778 480.066V466.061L873.824 465.043V499.827H870.778L870.768 499.817ZM870.768 480.81C869.334 479.303 867.455 478.51 865.487 478.51C860.472 478.51 857.782 482.19 857.782 489.012C857.782 497.517 862.124 499.562 865.032 499.562C867.939 499.562 870.135 497.527 870.758 496.685V480.82L870.768 480.81Z" fill="black"/>
<path d="M883.181 465.033V499.817H880.135V466.051L883.181 465.033Z" fill="black"/>
<path d="M891.053 473.313C889.846 473.313 889.035 472.383 889.035 471.316C889.035 470.249 889.836 469.369 891.053 469.369C892.269 469.369 893.021 470.259 893.021 471.316C893.021 472.373 892.259 473.313 891.053 473.313ZM889.49 499.807V478.49H892.536V499.807H889.49Z" fill="black"/>
<path d="M912.378 499.817V485.459C912.378 480.272 910.627 478.765 907.68 478.765C905.84 478.765 903.783 479.832 901.904 481.642V499.807H898.857V478.491H901.904V480.928C904.099 478.843 906.473 477.962 908.847 477.962C915.068 477.962 915.434 482.572 915.434 486.164V499.807H912.388L912.378 499.817Z" fill="black"/>
<path d="M938.161 487.368H923.523C923.573 497.732 927.371 499.553 930.417 499.553C933.147 499.553 935.57 498.045 937.538 494.855L937.983 495.119C936.232 498.046 933.73 500.306 929.566 500.306C925.402 500.306 919.982 497.82 919.982 489.276C919.982 482.405 923.652 477.982 929.744 477.982C935.471 477.982 938.072 482.807 938.161 487.377V487.368ZM934.759 486.839C934.709 482.366 933.097 478.51 929.388 478.51C925.986 478.51 923.968 481.123 923.523 486.839H934.759Z" fill="black"/>
<path d="M781.339 521.173L783.663 521.124C786.175 521.085 790.023 520.899 792.485 520.899C808.201 520.899 809.635 532.105 809.635 535.962C809.635 541.716 807.351 553.373 792.485 553.373C790.161 553.373 786.393 553.148 784.474 553.148H781.339V521.153V521.173ZM792.485 521.173C790.25 521.173 786.66 521.437 784.83 521.927V552.326C786.215 552.59 788.816 553.128 792.357 553.128C801.802 553.128 805.788 545.377 805.788 536.382C805.788 530.804 803.276 521.183 792.485 521.183V521.173Z" fill="black"/>
<path d="M816.716 526.311C815.598 526.311 814.837 525.421 814.837 524.452C814.837 523.483 815.598 522.592 816.716 522.592C817.834 522.592 818.595 523.483 818.595 524.452C818.595 525.421 817.883 526.311 816.716 526.311ZM815.282 553.167V531.851H818.101V553.167H815.282Z" fill="black"/>
<path d="M829.614 553.657C825.806 553.657 823.215 551.533 822.048 548.557L822.275 548.42C823.571 551.523 826.212 553.294 829.525 553.294C832.838 553.294 834.589 551.435 834.589 549.125C834.589 542.519 823.304 542.607 823.304 536.5C823.304 532.692 826.795 531.312 829.525 531.312C831.582 531.312 833.511 531.802 835.707 533.084L835.529 534.767C834.411 533.221 832.532 531.577 829.614 531.577C827.102 531.577 825.895 533.397 825.895 535.168C825.895 540.444 837.002 540.219 837.002 547.491C837.002 551.572 833.461 553.647 829.614 553.647V553.657Z" fill="black"/>
<path d="M844.301 531.322V534.552C845.686 533.182 848.109 531.322 852.006 531.322C855.903 531.322 860.779 533.896 860.779 542.44C860.779 548.557 857.06 553.559 850.433 553.647C848.594 553.647 846.309 553.294 844.301 551.963V563.131H841.482V532.242L844.301 531.312V531.322ZM850.433 531.939C847.971 531.939 845.646 533.485 844.301 534.904V551.699C845.419 552.404 847.704 553.294 850.028 553.294C854.775 553.294 857.455 549.311 857.455 542.568C857.455 535.824 854.765 531.929 850.423 531.929L850.433 531.939Z" fill="black"/>
<path d="M868.306 518.247V553.158H865.487V519.177L868.306 518.247Z" fill="black"/>
<path d="M874.487 537.439C874.309 536.91 874.259 536.46 874.259 536.108C874.259 533.407 876.633 531.322 880.619 531.322C884.822 531.322 888.858 532.78 888.858 538.369V550.241C888.858 551.435 889.125 552.854 890.42 552.854C891.182 552.854 891.894 552.061 892.211 550.505H892.478C892.072 552.991 890.826 553.647 889.303 553.647C887.107 553.647 886.039 552.051 886.039 548.861C881.964 553.206 879.185 553.647 877.444 553.647C873.992 553.647 872.43 551.699 872.43 549.213C872.43 543.899 880.134 541.814 884.793 540.972L886.049 540.747V538.359C886.049 533.974 884.842 531.625 880.362 531.625C877.049 531.625 874.635 533.397 874.635 536.098C874.635 536.45 874.675 536.94 874.863 537.429H874.507L874.487 537.439ZM886.039 541.031C880.579 542.01 875.743 543.781 875.743 548.655C875.743 551.445 877.395 552.511 879.373 552.511C881.658 552.511 884.615 550.074 886.049 548.479V541.031H886.039Z" fill="black"/>
<path d="M910.716 531.851C910.399 532.653 909.153 535.57 905.029 546.698C904.089 549.262 903.011 551.924 901.943 554.498C900.825 557.161 899.747 560.038 898.452 561.721C897.463 562.964 896.345 563.581 894.871 563.581C894.021 563.581 893.259 563.356 892.359 562.739L892.537 561.144C893.16 561.986 894.288 562.778 895.405 562.778C896.523 562.778 897.423 562.465 898.402 561.095C899.48 559.637 900.509 557.327 901.715 554.097L891.687 531.851H894.772L903.15 550.769C905.385 544.701 906.868 540.493 907.808 537.566C908.708 534.777 909.331 532.379 909.46 531.851H910.716Z" fill="black"/>
<path d="M594.774 25.3644V24.5619H598.099V1.93147H594.774V1.12891H604.567V1.93147H601.243V24.5519H604.567V25.3545H594.774V25.3644ZM612.998 25.3644L601.723 12.6324L612.597 1.94138H608.842V1.12891H617.413V1.93147H613.789L604.507 11.1164L616.562 24.5619H619.005V25.3644H613.008H612.998Z" fill="#FF3D00"/>
<path d="M648.162 1.93147V14.7032C648.162 20.9354 646.871 25.7013 640.002 25.7013C633.133 25.7013 630.89 21.4408 630.89 16.8533V1.93147H627.536V1.12891H637.459V1.93147H634.074V17.418C634.074 23.5512 637.699 24.8888 640.032 24.8888C646.4 24.8888 647.311 20.232 647.311 14.7032V1.93147H644.227V1.12891H651.236V1.93147H648.152H648.162Z" fill="#FF3D00"/>
<path d="M662.32 1.93146V1.12889H667.297C668.448 1.12889 669.74 1.05953 671.021 1.02981C672.173 1.00008 673.294 0.960449 674.135 0.960449C685.99 0.960449 687.072 9.47161 687.072 12.3945C687.072 16.7145 685.38 25.5328 674.135 25.5328C673.254 25.5328 671.963 25.5031 670.751 25.4635C669.63 25.3941 668.548 25.3644 667.907 25.3644H662.32V24.5618H665.645V1.93146H662.32ZM673.805 1.76302C672.183 1.76302 670.28 1.83237 668.788 1.93146V24.5519C670.04 24.6213 672.213 24.7204 673.635 24.7204C681.024 24.7204 683.657 19.1519 683.657 12.6522C683.657 8.62942 681.925 1.76302 673.805 1.76302Z" fill="#FF3D00"/>
<path d="M721.465 22.6099H722.316C722.246 23.7494 722.016 25.7905 719.303 25.7905C716.189 25.7905 714.326 21.738 713.175 19.1916C711.683 15.6742 709.821 13.2566 705.515 13.0881V24.5519H708.869V25.3545H699.047V24.5519H702.371V1.93146H699.047V1.12889H703.012C704.063 1.12889 704.944 1.09916 705.825 1.02981C706.707 1.00008 707.618 0.960449 708.739 0.960449C715.448 0.960449 717.54 4.21035 717.54 6.96483C717.54 11.1164 713.715 12.8999 710.602 13.3655C715.137 14.941 717.04 18.4286 718.802 22.7189C719.172 23.5215 719.713 24.6312 720.464 24.6312C721.215 24.6312 721.445 23.4918 721.485 22.6198L721.465 22.6099ZM708.359 1.76302C707.407 1.76302 706.837 1.83237 706.186 1.90173L705.505 1.97109V12.3252L706.757 12.4639L707.097 12.4936L707.738 12.563C708.279 12.5927 708.719 12.6621 709.2 12.6621C712.384 12.6621 714.116 10.3534 714.116 7.13327C714.116 3.41769 711.783 1.77292 708.359 1.77292V1.76302Z" fill="#FF3D00"/>
<path d="M750.052 1.93147L743.414 15.3076V24.5619H746.698V25.3644H736.945V24.5619H740.23V15.5751L732.88 1.93147H730.137V1.12891H739.589V1.93147H736.605L743.003 14.1979L749.071 1.93147H745.957V1.12891H752.896V1.93147H750.052Z" fill="#FF3D00"/>
<path d="M797.752 21.2723L802.558 8.43127L800.255 1.93147H797.171V1.12891H806.924V1.93147H803.54L810.048 21.1732L815.675 1.93147H812.491V1.12891H819.4V1.93147H816.586L809.507 25.8004H808.766L803.009 9.64007L796.881 25.8004H796.14L788.28 1.93147H785.437V1.12891H794.848V1.93147H791.564L797.762 21.2723H797.752Z" fill="#FF3D00"/>
<path d="M846.153 1.12891L846.494 6.48926H845.713L845.242 2.60523L845.112 2.53587C844.371 2.19899 843.76 1.93147 839.825 1.93147H836.071V12.2856H841.998V9.40227H842.779V15.9417H841.998V13.0584H836.071V24.5519H839.665C842.138 24.5519 843.76 24.5222 845.933 23.8485L846.814 19.8951H847.625L846.614 25.3545H829.612V24.5519H832.937V1.93147H829.612V1.12891H846.173H846.153Z" fill="#FF3D00"/>
<path d="M859 25.3644V24.5619H862.324V1.93147H859V1.12891H868.792V1.93147H865.468V24.5519H868.792V25.3545H859V25.3644Z" fill="#FF3D00"/>
<path d="M902.795 22.6099H903.646C903.576 23.7494 903.346 25.7905 900.633 25.7905C897.519 25.7905 895.656 21.738 894.505 19.1916C893.013 15.6742 891.151 13.2566 886.845 13.0881V24.5519H890.199V25.3545H880.377V24.5519H883.701V1.93146H880.377V1.12889H884.342C885.393 1.12889 886.274 1.09916 887.156 1.02981C888.037 1.00008 888.948 0.960449 890.069 0.960449C896.778 0.960449 898.87 4.21035 898.87 6.96483C898.87 11.1164 895.046 12.8999 891.932 13.3655C896.467 14.941 898.37 18.4286 900.132 22.7189C900.503 23.5215 901.043 24.6312 901.794 24.6312C902.545 24.6312 902.775 23.4918 902.815 22.6198L902.795 22.6099ZM889.689 1.76302C888.738 1.76302 888.167 1.83237 887.516 1.90173L886.835 1.97109V12.3252L888.087 12.4639L888.427 12.4936L889.068 12.563C889.609 12.5927 890.049 12.6621 890.53 12.6621C893.714 12.6621 895.446 10.3534 895.446 7.13327C895.446 3.41769 893.113 1.77292 889.689 1.77292V1.76302Z" fill="#FF3D00"/>
<path d="M913.84 1.93146V1.12889H918.816C919.968 1.12889 921.259 1.05953 922.541 1.02981C923.692 1.00008 924.814 0.960449 925.655 0.960449C937.51 0.960449 938.591 9.47161 938.591 12.3945C938.591 16.7145 936.899 25.5328 925.655 25.5328C924.774 25.5328 923.482 25.5031 922.271 25.4635C921.149 25.3941 920.068 25.3644 919.427 25.3644H913.84V24.5618H917.164V1.93146H913.84ZM925.324 1.76302C923.702 1.76302 921.8 1.83237 920.308 1.93146V24.5519C921.56 24.6213 923.732 24.7204 925.154 24.7204C932.544 24.7204 935.177 19.1519 935.177 12.6522C935.177 8.62942 933.445 1.76302 925.324 1.76302Z" fill="#FF3D00"/>
<path d="M991.548 1.12891L991.958 6.82614H991.147L990.707 2.5656C989.655 2.19899 988.164 1.93147 985.731 1.93147H984.108V24.5519H987.393V25.3545H977.64V24.5519H980.924V1.93147H979.232C976.519 1.93147 975.067 2.22872 974.256 2.5656L973.845 6.82614H973.064L973.405 1.12891H991.558H991.548Z" fill="#FF3D00"/>
<path d="M1020.89 1.93147L1014.25 15.3076V24.5619H1017.53V25.3644H1007.78V24.5619H1011.06V15.5751L1003.71 1.93147H1000.97V1.12891H1010.42V1.93147H1007.44L1013.84 14.1979L1019.9 1.93147H1016.79V1.12891H1023.73V1.93147H1020.89Z" fill="#FF3D00"/>
<path d="M1042.83 15.803C1042.05 15.803 1041.71 15.803 1040.39 15.7039V24.5519H1043.71V25.3545H1033.92V24.5519H1037.25V1.93146H1033.92V1.12889H1037.72C1038.8 1.12889 1039.72 1.09916 1040.56 1.02981C1041.44 1.00008 1042.39 0.960449 1043.5 0.960449C1050.58 0.960449 1052.65 4.64631 1052.65 8.03492C1052.65 12.0874 1049.32 15.8129 1042.82 15.8129L1042.83 15.803ZM1042.93 1.76302C1041.81 1.76302 1041.41 1.76302 1040.39 1.83237V14.9013C1041.13 15.04 1041.95 15.0995 1042.76 15.0995C1046.96 15.0995 1049.23 12.5828 1049.23 8.02501C1049.23 3.80411 1046.86 1.75311 1042.93 1.75311V1.76302Z" fill="#FF3D00"/>
<path d="M1080.6 1.12891L1080.94 6.48926H1080.16L1079.69 2.60523L1079.56 2.53587C1078.82 2.19899 1078.21 1.93147 1074.27 1.93147H1070.52V12.2856H1076.45V9.40227H1077.23V15.9417H1076.45V13.0584H1070.52V24.5519H1074.11C1076.59 24.5519 1078.21 24.5222 1080.38 23.8485L1081.26 19.8951H1082.07L1081.06 25.3545H1064.06V24.5519H1067.38V1.93147H1064.06V1.12891H1080.62H1080.6Z" fill="#FF3D00"/>
<path d="M1099.91 1.93147V12.2856H1105.83V9.40227H1106.61V15.9417H1105.83V13.0584H1099.91V24.5519H1103.23V25.3545H1093.44V24.5519H1096.76V1.93147H1093.44V1.12891H1110L1110.34 6.48926H1109.56L1109.09 2.60523C1107.84 2.09991 1106.78 1.93147 1103.36 1.93147H1099.91Z" fill="#FF3D00"/>
<path d="M1131.96 15.7039H1124.17L1120.95 24.552H1124.11V25.3545H1117.37V24.552H1120.04L1128.64 1.11902H1129.72L1138.49 24.552H1141.17V25.3545H1132.16V24.552H1135.17L1131.96 15.7039ZM1124.44 14.9311H1131.69L1128.09 4.94359L1124.44 14.9311Z" fill="#FF3D00"/>
<path d="M1170.3 23.4125C1167.36 25.523 1164.04 25.7905 1162.79 25.7905C1154.62 25.7905 1150.59 20.5986 1150.59 13.4547C1150.59 7.85659 1153.5 0.613678 1162.99 0.613678C1164.85 0.613678 1167.73 1.18835 1170.09 3.13037L1169.96 1.119H1170.82C1170.85 2.11973 1170.92 3.39789 1171.02 4.29954L1171.26 7.51971H1170.44L1170.24 4.90394C1167.97 2.09 1165.17 1.38652 1162.73 1.38652C1156.43 1.38652 1154.02 6.98467 1154.02 13.2566C1154.02 21.4011 1158.19 25.0176 1162.8 25.0176C1166.52 25.0176 1169.19 23.1747 1170.56 21.629L1170.9 19.1817H1171.75L1170.87 25.3446H1170.08L1170.32 23.4026L1170.3 23.4125Z" fill="#FF3D00"/>
<path d="M1200.01 1.12891L1200.35 6.48926H1199.57L1199.1 2.60523L1198.97 2.53587C1198.23 2.19899 1197.62 1.93147 1193.68 1.93147H1189.93V12.2856H1195.86V9.40227H1196.64V15.9417H1195.86V13.0584H1189.93V24.5519H1193.52C1196 24.5519 1197.62 24.5222 1199.79 23.8485L1200.67 19.8951H1201.48L1200.47 25.3545H1183.47V24.5519H1186.8V1.93147H1183.47V1.12891H1200.03H1200.01Z" fill="#FF3D00"/>
<path d="M32.68 360.96V121.41H2.02V119.39H119.94V121.41H58.96L56.26 316.82L161.38 119.39H216.97V121.41H187.66V313.45L290.08 121.41H256.05V119.39H320.4V121.41H292.44L164.75 360.96H262.46V362.98H0V360.96H32.68ZM161.38 360.96V124.11L36.05 360.96H161.38Z" fill="#FF3D00"/>
<path d="M280.31 360.96H307.26V206.99C300.52 209.35 288.06 210.7 280.31 211.37V209.35C300.19 208 316.7 202.61 328.49 196.88V360.96H355.44V362.98H280.31V360.96ZM315.01 133.54H316.36C320.74 150.05 327.48 154.43 338.93 155.44V156.45C327.47 157.46 320.74 162.18 316.36 178.35H315.01C310.97 162.18 303.89 157.46 292.44 156.45V155.44C303.9 154.43 310.97 150.05 315.01 133.54Z" fill="#FF3D00"/>
<path d="M366.22 360.96H393.17V206.99C384.41 209.69 372.62 211.03 366.22 211.37V209.35C387.78 208 402.94 202.27 414.4 196.88V216.76C435.29 201.26 453.48 196.88 466.62 196.88C514.46 196.88 517.49 231.58 517.49 258.87V360.95H544.44V362.97H366.21V360.95L366.22 360.96ZM496.27 360.96V253.48C496.27 204.96 472.69 200.92 458.54 200.92C444.39 200.92 425.19 211.03 414.4 219.11V360.96H496.27Z" fill="#FF3D00"/>
<path d="M579.48 317.83V202.95H545.79V200.93H550.17C585.21 200.93 597.34 160.16 598.35 126.14H600.71V200.92H610.48C633.73 200.92 650.91 199.91 660.01 198.22L657.99 202.94H600.71C600.71 266.95 659.67 285.48 659.67 328.95C659.67 346.13 648.21 366.68 619.91 366.68C593.63 366.68 579.48 348.82 579.48 317.83ZM657.64 328.95C657.64 291.55 611.15 272.69 600.7 223.16V322.89C600.7 352.2 615.52 360.62 628.33 360.62C642.14 360.62 657.64 351.19 657.64 328.95Z" fill="#FF3D00"/>
<path d="M748.61 196.88C790.39 196.88 809.59 227.88 809.59 256.85H701.44C700.43 263.25 700.09 269.99 700.09 277.06C700.09 347.48 729.4 364.66 752.31 364.66C796.78 364.66 823.06 320.52 823.06 271C823.06 260.56 821.71 250.11 819.35 239.67L821.37 239C823.73 249.44 825.08 260.56 825.08 271.01C825.08 321.21 798.13 366.69 752.31 366.69C718.28 366.69 675.16 345.8 675.16 281.79C675.16 234.29 702.79 196.89 748.61 196.89V196.88ZM745.91 198.9C724.01 198.9 706.83 221.14 701.77 254.83H786C786 225.18 773.87 198.9 745.91 198.9Z" fill="#FF3D00"/>
<path d="M927.85 198.9C903.93 198.9 887.08 230.57 887.08 259.21V360.96H917.4V362.98H838.9V360.96H865.85V206.99C856.75 209.35 844.96 211.03 838.9 211.37V209.35C860.8 207.67 875.29 202.27 887.08 196.88V232.93C895.5 212.38 912.01 196.88 929.87 196.88C939.64 196.88 946.72 201.26 951.77 205.3L951.43 196.88H954.13L955.81 285.83H953.79L952.44 231.92C952.1 212.72 943.68 198.9 927.85 198.9Z" fill="#FF3D00"/>
<path d="M1056.88 237.31L1059.91 117.03H1063.28L1062.27 141.62C1084.84 117.7 1112.47 113.99 1127.97 113.99C1186.59 113.99 1203.78 145.66 1203.78 172.28C1203.78 198.9 1186.26 227.87 1143.47 231.24V232.25C1180.87 235.62 1228.37 256.17 1228.37 309.4C1228.37 356.9 1196.03 394.98 1126.29 394.98C1080.13 394.98 1039.03 365 1039.03 315.13C1039.03 281.44 1057.56 239.32 1105.4 191.48L1106.75 192.83C1059.58 240.67 1041.05 282.11 1041.05 315.13C1041.05 363.65 1080.81 392.96 1126.29 392.96C1180.87 392.96 1198.39 351.86 1198.39 312.1C1198.39 249.1 1162 232.93 1120.56 232.93H1119.21V230.91H1121.23C1163.01 230.91 1177.49 205.3 1177.49 172.29C1177.49 139.28 1158.29 116.03 1127.63 116.03C1098.66 116.03 1077.77 129.84 1061.93 158.14L1058.9 237.31H1056.88Z" fill="#FF3D00"/>
<path d="M1237.46 360.96H1264.41V202.95H1237.46V200.93H1419.39V202.95H1392.44V360.96H1419.39V362.98H1237.46V360.96ZM1371.21 223.84V202.95H1285.63V333.67L1371.21 223.84ZM1371.21 360.96V228.21L1285.63 338.04V360.95H1371.21V360.96Z" fill="#FF3D00"/>
<path d="M1430.84 360.96H1457.12V202.95H1430.17V200.93H1478.69L1533.61 311.44L1589.2 200.93H1635.69V202.95H1608.06V360.96H1635.69V362.98H1430.85V360.96H1430.84ZM1522.48 334.34L1459.14 208.67V217.43C1460.15 295.93 1476.32 360.96 1497.89 360.96C1504.97 360.96 1514.06 351.19 1522.48 334.34ZM1459.14 258.87V360.95H1491.15C1475.32 351.52 1463.52 311.09 1459.14 258.87ZM1586.83 360.95V210.02L1524.5 334.34C1518.1 347.48 1511.02 356.91 1504.29 360.96H1586.83V360.95Z" fill="#FF3D00"/>
<path d="M1647.81 332.99C1647.81 311.76 1663.98 297.28 1684.53 287.17C1669.37 274.03 1661.96 258.53 1661.96 241.35C1661.96 217.77 1680.49 196.88 1713.84 196.88C1742.14 196.88 1771.45 208 1771.45 250.45V271.34C1771.45 295.26 1796.72 321.2 1796.72 345.12C1796.72 363.99 1785.26 366.68 1775.83 366.68C1757.3 366.68 1750.22 354.55 1750.22 330.29C1719.56 363.31 1698.67 366.68 1685.53 366.68C1659.59 366.68 1647.8 351.86 1647.8 332.99H1647.81ZM1740.8 270.32L1750.23 268.64V250.45C1750.23 217.1 1742.14 199.24 1711.82 199.24C1683.52 199.24 1663.98 217.77 1663.98 241.35C1663.98 258.2 1671.06 273.36 1686.22 286.5C1704.08 278.08 1724.97 273.02 1740.8 270.33V270.32ZM1750.23 327.26V270.66C1727.66 274.7 1706.77 280.43 1692.28 291.21C1700.7 297.61 1711.48 303.34 1724.29 308.73L1723.62 310.75C1710.48 305.02 1699.36 298.96 1690.6 292.22C1679.48 300.98 1672.74 312.43 1672.74 328.61C1672.74 349.84 1685.21 357.92 1700.03 357.92C1717.21 357.92 1739.45 339.39 1750.23 327.26ZM1794.7 345.12C1794.7 326.25 1779.88 308.4 1771.45 288.18V340.74C1771.45 349.84 1773.47 360.62 1783.24 360.62C1788.97 360.62 1794.7 356.91 1794.7 345.12Z" fill="#FF3D00"/>
</svg>
