<?xml version="1.0" encoding="utf-8"?>
<!-- Generator: Adobe Illustrator 22.0.0, SVG Export Plug-In . SVG Version: 6.00 Build 0)  -->
<svg version="1.1" id="Layer_1" xmlns="http://www.w3.org/2000/svg" xmlns:xlink="http://www.w3.org/1999/xlink" x="0px" y="0px"
	 viewBox="0 0 70 70" style="enable-background:new 0 0 70 70;" xml:space="preserve">
<style type="text/css">
	.st0{fill:#F1F1EB;}
	.st1{fill:#000100;}
</style>
<rect class="st0" width="70" height="70"/>
<path class="st1" d="M24.5,29.1c0-1,0.8-3.6,4.5-3.6c1.9,0,3.5,0.5,4.6,0.8l3,0.9c1.3,0.4,2.8,0.9,4.4,0.9c2.6,0,3.2-1.9,3.2-3
	c0-1.5-0.6-2.5-1.6-2.8v-0.7c2,0.5,2.9,2.2,2.9,3.5c0,1-0.8,3.7-4.5,3.7c-1.5,0-3.2-0.4-4.6-0.9v19.7h3v0.7h-8.8v-0.7h3V27.1
	c-1.4-0.4-2.9-0.9-4.6-0.9c-2.7,0-3.2,1.8-3.2,2.8c0,1.5,0.6,2.6,1.6,2.9v0.8C25.2,32.2,24.5,30.5,24.5,29.1L24.5,29.1z"/>
</svg>
