<?xml version="1.0" encoding="utf-8"?>
<!-- Generator: Adobe Illustrator 22.0.0, SVG Export Plug-In . SVG Version: 6.00 Build 0)  -->
<svg version="1.1" id="Layer_1" xmlns="http://www.w3.org/2000/svg" xmlns:xlink="http://www.w3.org/1999/xlink" x="0px" y="0px"
	 viewBox="0 0 70 70" style="enable-background:new 0 0 70 70;" xml:space="preserve">
<style type="text/css">
	.st0{fill:#F1F1EB;}
	.st1{fill:#000100;}
</style>
<rect class="st0" width="70" height="70"/>
<path class="st1" d="M36.1,45.8v-0.7h3V34.9c-1.3,0.1-2.5,0.4-3.6,0.9c-2.2,1.3-4.5,5-6.5,8.4c-0.2,0.3-0.4,0.7-0.6,1
	c-3.1,5.2-6.4,10.5-12.1,10.5c-4.1,0-4.7-2.6-4.7-3.9c0-0.5,0.2-1.1,0.4-1.6h0.8c-0.4,0.8-0.5,1.4-0.5,1.6c0,1.3,0.8,3.1,3.8,3.1
	c3.2,0,5.5-4.1,8.1-8.5c2.5-4.6,5.2-9,10.1-11.1c-3.2-0.3-6.5-2.2-6.5-6c0-2.4,1.6-5.8,7.8-5.8c1.3,0,2.2,0.1,3,0.1
	c0.7,0,1.4,0.1,2.3,0.1h4v0.7h-3v20.5h3v0.7H36.1L36.1,45.8z M39.1,24.5c-1.1-0.1-1.6-0.1-2.4-0.1c-3.1,0-5.8,1.5-5.8,5
	c0,3.1,1.5,5.1,4.8,5.1c0.5,0,1.6-0.1,2.5-0.2l0.9-0.1V24.5z"/>
</svg>
