<?xml version="1.0" encoding="utf-8"?>
<!-- Generator: Adobe Illustrator 22.0.0, SVG Export Plug-In . SVG Version: 6.00 Build 0)  -->
<svg version="1.1" id="Layer_1" xmlns="http://www.w3.org/2000/svg" xmlns:xlink="http://www.w3.org/1999/xlink" x="0px" y="0px"
	 viewBox="0 0 70 70" style="enable-background:new 0 0 70 70;" xml:space="preserve">
<style type="text/css">
	.st0{fill:#F1F1EB;}
	.st1{fill:#000100;}
</style>
<rect class="st0" width="70" height="70"/>
<path class="st1" d="M22.9,35c0-6.8,5.4-12.2,12.1-12.2S47.1,28.2,47.1,35c0,6.8-5.4,12.2-12.1,12.2S22.9,41.8,22.9,35z M42.4,37.6
	L41,37.1c-0.8,2.5-3.2,4.2-6,4.2s-5.2-1.7-6-4.2l-1.4,0.5c1.1,3.1,4,5.3,7.4,5.3S41.4,40.7,42.4,37.6z M32.2,32.1
	c0-0.9-0.6-1.5-1.5-1.5c-0.9,0-1.5,0.6-1.5,1.5c0,0.9,0.6,1.5,1.5,1.5C31.6,33.6,32.2,32.9,32.2,32.1z M40.7,32.1
	c0-0.9-0.6-1.5-1.5-1.5c-0.9,0-1.5,0.6-1.5,1.5c0,0.9,0.6,1.5,1.5,1.5C40.1,33.6,40.7,32.9,40.7,32.1z"/>
</svg>
