<svg width="76" height="91" viewBox="0 0 76 91" fill="none" xmlns="http://www.w3.org/2000/svg">
<path fill-rule="evenodd" clip-rule="evenodd" d="M0.0736845 72.6624V0.402866C0.0736845 0.18312 0.257894 0 0.478947 0H75.1947C75.4158 0 75.6 0.18312 75.6 0.402866V72.699C75.6 74.9697 74.3474 77.1672 72.7632 78.742C71.1789 80.3169 68.821 81.7086 66.5368 81.7086H45.9053C42.1105 81.7086 40.2684 85.7739 38.9053 88.7038L38.6474 89.2532L38.3895 89.8026C38.3158 89.949 38.1684 90.0223 38.021 90.0589H37.5789C37.3947 90.0589 37.2842 89.9857 37.2105 89.8392L36.9526 89.2898C36.0316 87.3121 34.7053 85.1146 33.1579 83.5764C32.2368 82.6608 31.0211 81.7818 29.6947 81.7818H9.06316C6.74211 81.7818 4.42105 80.4634 2.83684 78.8519C1.21579 77.2404 0 75.0796 0 72.7723C0 70.465 0 72.7723 0 72.7357L0.0736845 72.6624ZM51.6526 62.5541C51.6526 63.543 52.4632 64.3487 53.4579 64.3487C54.4526 64.3487 55.2632 63.543 55.2632 62.5541C55.2632 61.5653 54.4526 60.7595 53.4579 60.7595C52.4632 60.7595 51.6526 61.5653 51.6526 62.5541ZM24.0579 62.5541C24.0579 63.543 23.2474 64.3487 22.2526 64.3487C21.2579 64.3487 20.4474 63.543 20.4474 62.5541C20.4474 61.5653 21.2579 60.7595 22.2526 60.7595C23.2474 60.7595 24.0579 61.5653 24.0579 62.5541ZM13.2632 65.6306L24.0211 42.2277C23.5421 41.9347 23.1 41.6051 22.6579 41.2755C22.4368 41.129 22.2158 40.9459 21.9579 40.7627C20.7053 44.9379 18.7526 48.4538 14.0737 47.8312C15.7684 44.9379 17.0947 41.0557 21.0737 40.0669C20.0053 39.2245 18.9368 38.3089 17.9421 37.3567C16.1737 40.5064 14.2947 43.7659 10.1316 43.0334C12.3421 40.4697 13.5579 37.3201 17.4632 36.9172C17.0947 36.6608 16.6158 36.551 16.1368 36.4045C11.6789 35.0127 9.39474 31.7898 8.98947 27.9443C13.2263 29.7755 15.6579 32.2293 17.5 35.2691C17.7579 35.672 17.9053 35.8917 18.1632 36.1481C17.6842 33.4379 19.1579 31.5334 20.7053 29.3726C22.2895 32.5589 21.1105 35.1226 18.7895 36.6242C19.7474 37.4666 20.7053 38.3089 21.7368 39.0414C21.2947 35.8917 22.621 33.4745 24.6474 31.1672C26.2684 34.793 25.3105 37.8694 22.5105 39.5908C22.8053 39.8105 23.1 39.9936 23.3947 40.2134C23.8 40.4697 24.2053 40.7261 24.5737 40.9825L29.5105 30.215C30.3211 28.9331 31.2789 27.6879 33.0474 27.1019C22.8421 22.8901 29.9895 17.4331 31.8684 11.7564L32.2737 9.44904H33.9316L34.0053 12.4889C33.2684 15.0159 27.6684 23.3296 36.3632 24.9777L36.2895 19.1178L33.7842 19.6672L37.8368 5.42038L41.8158 19.6672L39.3105 19.1178L39.2368 24.9777C47.9316 23.3296 42.3316 15.0159 41.5947 12.4889L41.6684 9.44904H43.3263L43.7316 11.7197C45.6105 17.3965 52.7579 22.8535 42.5526 27.0653C44.3211 27.6879 45.2421 28.8965 46.0895 30.1783L51.0263 40.9459C51.4316 40.6895 51.8368 40.4331 52.2053 40.1768C52.5 39.957 52.7947 39.7739 53.0895 39.5541C50.2895 37.8328 49.3684 34.7564 50.9526 31.1306C52.9789 33.4379 54.2684 35.8185 53.8632 39.0048C54.8947 38.2357 55.8526 37.4299 56.8105 36.5876C54.4526 35.0494 53.2737 32.4857 54.8947 29.336C56.4421 31.4968 57.9158 33.4013 57.4368 36.1115C57.6947 35.8551 57.8421 35.6353 58.1 35.2325C59.9421 32.1927 62.3737 29.7389 66.6105 27.9076C66.2053 31.7532 63.8842 34.9761 59.4632 36.3678C58.9842 36.5143 58.5053 36.6242 58.1368 36.8806C62.0053 37.2834 63.2579 40.4697 65.4684 42.9968C61.3053 43.7659 59.4263 40.4697 57.6579 37.3201C56.6632 38.2723 55.6316 39.1513 54.5263 40.0303C58.5053 41.0191 59.8316 44.9013 61.5263 47.7946C56.8474 48.4172 54.8579 44.9013 53.6421 40.7261C53.421 40.9092 53.2 41.0557 52.9421 41.2389C52.5 41.5685 52.0211 41.8615 51.5789 42.1911L62.3368 65.5939C63.3684 67.828 60.8632 68.6338 60.0158 66.7659L48.3737 44.1688L48.0789 44.3519C46.8263 45.0844 45.5737 45.8169 44.2842 46.5494C49.6263 48.3439 50.5842 52.629 52.2421 56.1815C45.7947 55.4857 43.9158 51.8232 43.4368 47.0255L43.1789 47.172C41.7789 48.0143 40.4526 48.8567 39.1263 49.8089V49.9554C41.2632 51.5669 43.1789 53.3615 45.0947 55.3025C44.4684 55.9984 43.9158 56.1815 42.9579 56.1449C41.7789 54.5701 40.5632 53.215 39.1632 51.9697V58.9283L41.3 60.6863L41.3737 75.6656L39.1632 74.75V76.3248L37.7632 75.7389L36.3263 76.3615V74.7866L34.1158 75.7022L34.1895 60.7229L36.3632 58.965V52.0064C34.9263 53.2516 33.7105 54.6067 32.5316 56.1815C31.5737 56.2548 31.0211 56.035 30.3947 55.3392C32.2737 53.3981 34.2263 51.6035 36.3632 49.992V49.8455C35.0368 48.9299 33.7105 48.0509 32.3105 47.2086L32.0526 47.0621C31.5737 51.8232 29.6579 55.5223 23.2474 56.2182C24.9053 52.629 25.8632 48.3806 31.2053 46.586C29.9526 45.8535 28.6632 45.121 27.4105 44.3885L27.1158 44.2054L15.4737 66.8025C14.6263 68.707 12.1211 67.8646 13.1526 65.6306H13.2632ZM37.8737 5.49363C37.8737 30.7643 37.8368 51.7134 37.8737 75.6656V86.6895C36.9526 85.078 35.8474 83.4299 34.5579 82.1481C33.2684 80.8662 31.6474 79.8041 29.7684 79.8041H9.13684C7.33158 79.8041 5.48947 78.6688 4.23684 77.4236C2.98421 76.1783 1.95263 74.457 1.95263 72.6624C1.95263 70.8678 1.95263 72.6624 1.95263 72.6258V1.86783H37.8737V5.49363ZM36.4368 47.9777V30.1783C35.2947 30.2882 34.8526 30.3615 33.1579 32.6688L27.8526 42.9602L28.1474 43.1433C29.3632 43.8392 30.6158 44.4618 31.8316 45.1576C30.6895 41.422 31.6105 38.492 33.5263 35.4522C36.0316 39.3344 35.921 43.1067 32.8263 45.707L32.9737 45.7803C34.1526 46.4761 35.3316 47.2086 36.4737 47.9411L36.4368 47.9777ZM24.0579 68.121C24.0579 69.1099 23.2474 69.9156 22.2526 69.9156C21.2579 69.9156 20.4474 69.1099 20.4474 68.121C20.4474 67.1322 21.2579 66.3264 22.2526 66.3264C23.2474 66.3264 24.0579 67.1322 24.0579 68.121ZM28.4789 70.6847C28.4789 71.6736 27.6684 72.4793 26.6737 72.4793C25.6789 72.4793 24.8684 71.6736 24.8684 70.6847C24.8684 69.6959 25.6789 68.8901 26.6737 68.8901C27.6684 68.8901 28.4789 69.6959 28.4789 70.6847ZM33.1579 67.828C33.1579 68.8169 32.3474 69.6226 31.3526 69.6226C30.3579 69.6226 29.5474 68.8169 29.5474 67.828C29.5474 66.8392 30.3579 66.0334 31.3526 66.0334C32.3474 66.0334 33.1579 66.8392 33.1579 67.828ZM28.3316 59.6974C28.3316 60.6863 27.5211 61.492 26.5263 61.492C25.5316 61.492 24.7211 60.6863 24.7211 59.6974C24.7211 58.7086 25.5316 57.9029 26.5263 57.9029C27.5211 57.9029 28.3316 58.7086 28.3316 59.6974ZM33.1579 62.1513C33.1579 63.1401 32.3474 63.9459 31.3526 63.9459C30.3579 63.9459 29.5474 63.1401 29.5474 62.1513C29.5474 61.1624 30.3579 60.3567 31.3526 60.3567C32.3474 60.3567 33.1579 61.1624 33.1579 62.1513ZM28.4789 65.3376C28.4789 66.3264 27.6684 67.1322 26.6737 67.1322C25.6789 67.1322 24.8684 66.3264 24.8684 65.3376C24.8684 64.3487 25.6789 63.543 26.6737 63.543C27.6684 63.543 28.4789 64.3487 28.4789 65.3376ZM39.2368 47.9777V30.1783C40.3789 30.2882 40.821 30.3615 42.5158 32.6688L47.8211 42.9602L47.5263 43.1433C46.3105 43.8025 45.0579 44.4618 43.8421 45.1576C44.9842 41.422 44.0632 38.492 42.1474 35.4522C39.6421 39.3344 39.7526 43.1067 42.8474 45.707L42.7 45.7803C41.521 46.4761 40.3421 47.2086 39.2 47.9411L39.2368 47.9777ZM51.6526 68.0844C51.6526 69.0732 52.4632 69.879 53.4579 69.879C54.4526 69.879 55.2632 69.0732 55.2632 68.0844C55.2632 67.0955 54.4526 66.2898 53.4579 66.2898C52.4632 66.2898 51.6526 67.0955 51.6526 68.0844ZM47.1947 70.6847C47.1947 71.6736 48.0053 72.4793 49 72.4793C49.9947 72.4793 50.8053 71.6736 50.8053 70.6847C50.8053 69.6959 49.9947 68.8901 49 68.8901C48.0053 68.8901 47.1947 69.6959 47.1947 70.6847ZM42.5526 67.828C42.5526 68.8169 43.3632 69.6226 44.3579 69.6226C45.3526 69.6226 46.1632 68.8169 46.1632 67.828C46.1632 66.8392 45.3526 66.0334 44.3579 66.0334C43.3632 66.0334 42.5526 66.8392 42.5526 67.828ZM47.3789 59.6608C47.3789 60.6497 48.1895 61.4554 49.1842 61.4554C50.1789 61.4554 50.9895 60.6497 50.9895 59.6608C50.9895 58.672 50.1789 57.8662 49.1842 57.8662C48.1895 57.8662 47.3789 58.672 47.3789 59.6608ZM42.5526 62.1513C42.5526 63.1401 43.3632 63.9459 44.3579 63.9459C45.3526 63.9459 46.1632 63.1401 46.1632 62.1513C46.1632 61.1624 45.3526 60.3567 44.3579 60.3567C43.3632 60.3567 42.5526 61.1624 42.5526 62.1513ZM47.1947 65.301C47.1947 66.2898 48.0053 67.0955 49 67.0955C49.9947 67.0955 50.8053 66.2898 50.8053 65.301C50.8053 64.3121 49.9947 63.5064 49 63.5064C48.0053 63.5064 47.1947 64.3121 47.1947 65.301Z" fill="#222221"/>
</svg>
