<svg width="126" height="20" viewBox="0 0 126 20" fill="none" xmlns="http://www.w3.org/2000/svg">
<g clip-path="url(#clip0_3028_117)">
<path d="M109.874 9.48889C109.874 8.55556 110.055 7.7037 110.416 6.93333C110.776 6.16296 111.296 5.5 111.973 4.94444C112.65 4.38889 113.49 3.95926 114.491 3.65556C115.493 3.35185 116.649 3.2 117.959 3.2C119.152 3.2 120.242 3.33333 121.229 3.6C122.215 3.86667 123.066 4.26667 123.78 4.8C124.494 5.33333 125.043 6 125.426 6.8C125.809 7.6 126 8.53333 126 9.6V10.4444H114.624V8.31111H120.411V8.24444C120.411 8.08148 120.36 7.91111 120.257 7.73333C120.154 7.55555 120.003 7.4 119.804 7.26667C119.605 7.13333 119.355 7.02593 119.053 6.94444C118.751 6.86296 118.394 6.82222 117.981 6.82222C117.643 6.82222 117.319 6.86667 117.009 6.95556C116.7 7.04444 116.435 7.16667 116.214 7.32222C115.993 7.47778 115.824 7.65555 115.706 7.85556C115.588 8.05556 115.529 8.26667 115.529 8.48889V10.4222C115.529 10.6889 115.599 10.937 115.739 11.1667C115.879 11.3963 116.071 11.5926 116.314 11.7556C116.557 11.9185 116.851 12.0481 117.197 12.1444C117.543 12.2407 117.937 12.2889 118.379 12.2889C118.659 12.2889 118.917 12.2704 119.152 12.2333C119.388 12.1963 119.598 12.1407 119.782 12.0667C119.966 11.9926 120.124 11.9074 120.257 11.8111C120.389 11.7148 120.485 11.6 120.544 11.4667L120.61 11.3556H125.779L125.757 11.5556C125.683 12.1037 125.488 12.637 125.172 13.1556C124.855 13.6741 124.402 14.137 123.813 14.5444C123.224 14.9519 122.484 15.2815 121.593 15.5333C120.702 15.7852 119.623 15.9111 118.357 15.9111C116.943 15.9111 115.706 15.7593 114.646 15.4556C113.586 15.1519 112.702 14.7222 111.995 14.1667C111.288 13.6111 110.758 12.9481 110.405 12.1778C110.051 11.4074 109.874 10.5556 109.874 9.62222V9.48889ZM102.739 9.42222C102.739 9.06667 102.688 8.75185 102.585 8.47778C102.482 8.2037 102.331 7.97778 102.132 7.8C101.933 7.62222 101.69 7.48519 101.403 7.38889C101.116 7.29259 100.796 7.24444 100.442 7.24444C100.059 7.24444 99.7205 7.29259 99.426 7.38889C99.1315 7.48519 98.8848 7.62222 98.686 7.8C98.4872 7.97778 98.3326 8.1963 98.2221 8.45555C98.1117 8.71481 98.0564 9.00741 98.0564 9.33333V9.71111C98.0564 10.0222 98.1043 10.3111 98.2 10.5778C98.2958 10.8444 98.4504 11.0704 98.6639 11.2556C98.8774 11.4407 99.1315 11.5815 99.426 11.6778C99.7205 11.7741 100.081 11.8222 100.508 11.8222C100.891 11.8222 101.226 11.7667 101.514 11.6556C101.801 11.5444 102.033 11.3889 102.209 11.1889C102.386 10.9889 102.519 10.7519 102.607 10.4778C102.695 10.2037 102.739 9.8963 102.739 9.55556V9.42222ZM98.0564 3.55556V5.2H98.0785C98.3289 4.87407 98.6087 4.58889 98.9179 4.34444C99.2272 4.1 99.5733 3.8963 99.9562 3.73333C100.339 3.57037 100.766 3.44815 101.237 3.36667C101.709 3.28519 102.209 3.24444 102.739 3.24444C103.697 3.24444 104.547 3.38519 105.291 3.66667C106.035 3.94815 106.66 4.35185 107.168 4.87778C107.677 5.4037 108.059 6.04444 108.317 6.8C108.575 7.55556 108.704 8.41481 108.704 9.37778V9.51111C108.704 10.4296 108.579 11.2741 108.328 12.0444C108.078 12.8148 107.699 13.4815 107.191 14.0444C106.683 14.6074 106.049 15.0444 105.291 15.3556C104.532 15.6667 103.653 15.8222 102.651 15.8222C102.062 15.8222 101.525 15.7741 101.039 15.6778C100.553 15.5815 100.126 15.4481 99.7574 15.2778C99.3892 15.1074 99.0652 14.8963 98.7854 14.6444C98.5056 14.3926 98.27 14.1185 98.0785 13.8222H98.0564V19.5556H92.291V3.55556H98.0564ZM77.4025 15.9556C77.6529 15.9704 77.9106 15.9815 78.1757 15.9889C78.4407 15.9963 78.6911 16 78.9267 16C79.2654 16 79.5489 15.9852 79.7772 15.9556C80.0054 15.9259 80.1969 15.8815 80.3515 15.8222C80.5061 15.763 80.6276 15.6852 80.716 15.5889C80.8044 15.4926 80.8706 15.3704 80.9148 15.2222L81.0032 15.0444L75.1494 3.55556H81.4229L83.676 8.88889L85.2002 3.55556H91.0319L86.7023 14.6C86.3047 15.5778 85.9108 16.4074 85.5205 17.0889C85.1303 17.7704 84.6774 18.3296 84.162 18.7667C83.6466 19.2037 83.0428 19.5185 82.3506 19.7111C81.6585 19.9037 80.8264 20 79.8545 20C79.3832 20 78.9525 19.9852 78.5622 19.9556C78.172 19.9259 77.7854 19.8815 77.4025 19.8222V15.9556ZM65.0543 7.64444H62.8012V3.55556H65.0543V1H70.6431V3.55556H74.2658V7.64444H70.6431V9.97778C70.6431 10.2889 70.6799 10.5407 70.7535 10.7333C70.8271 10.9259 70.9339 11.0741 71.0738 11.1778C71.2137 11.2815 71.3978 11.3519 71.6261 11.3889C71.8543 11.4259 72.1304 11.4444 72.4544 11.4444C72.8226 11.4444 73.1539 11.4296 73.4485 11.4C73.743 11.3704 74.0154 11.3407 74.2658 11.3111V15.4444C73.9565 15.4889 73.489 15.5481 72.8631 15.6222C72.2372 15.6963 71.5193 15.7333 70.7093 15.7333C69.7079 15.7333 68.8464 15.6519 68.1248 15.4889C67.4032 15.3259 66.8178 15.0704 66.3687 14.7222C65.9195 14.3741 65.5882 13.9296 65.3746 13.3889C65.1611 12.8481 65.0543 12.2074 65.0543 11.4667V7.64444ZM55.865 10.4V10.0444C55.7619 10.1185 55.6404 10.1778 55.5005 10.2222C55.3606 10.2667 55.206 10.3074 55.0366 10.3444C54.8673 10.3815 54.7016 10.4111 54.5396 10.4333C54.3776 10.4556 54.2083 10.4815 54.0316 10.5111C53.7812 10.5556 53.5529 10.5963 53.3468 10.6333C53.1406 10.6704 52.9676 10.7185 52.8277 10.7778C52.6878 10.837 52.581 10.9148 52.5074 11.0111C52.4337 11.1074 52.3969 11.237 52.3969 11.4V11.4889C52.3969 11.6222 52.4227 11.7333 52.4742 11.8222C52.5258 11.9111 52.6141 11.9889 52.7393 12.0556C52.8645 12.1222 53.0228 12.1704 53.2142 12.2C53.4057 12.2296 53.6339 12.2444 53.899 12.2444C54.2377 12.2444 54.5323 12.2185 54.7826 12.1667C55.033 12.1148 55.2391 12.0296 55.4011 11.9111C55.5631 11.7926 55.6809 11.6407 55.7546 11.4556C55.8282 11.2704 55.865 11.037 55.865 10.7556V10.4ZM46.521 12.2667C46.521 11.6 46.6609 11.0593 46.9407 10.6444C47.2205 10.2296 47.6034 9.9 48.0894 9.65555C48.5754 9.41111 49.1276 9.22963 49.7461 9.11111C50.3647 8.99259 51.0053 8.91111 51.6679 8.86667C52.3012 8.80741 52.8755 8.75556 53.391 8.71111C53.9064 8.66667 54.3482 8.61481 54.7163 8.55556C55.0845 8.4963 55.368 8.4037 55.5668 8.27778C55.7656 8.15185 55.865 7.97037 55.865 7.73333V7.71111C55.865 7.60741 55.8429 7.51111 55.7987 7.42222C55.7546 7.33333 55.6736 7.25556 55.5557 7.18889C55.4379 7.12222 55.2796 7.07037 55.0808 7.03333C54.882 6.9963 54.6353 6.97778 54.3408 6.97778C54.1199 6.97778 53.9027 6.99259 53.6892 7.02222C53.4756 7.05185 53.2842 7.11111 53.1148 7.2C52.9455 7.28889 52.8093 7.4037 52.7062 7.54444C52.6031 7.68519 52.5589 7.86667 52.5736 8.08889L52.5515 8.2H47.1175L47.0954 8.08889C47.0954 7.39259 47.2426 6.74815 47.5372 6.15556C47.8317 5.56296 48.2845 5.04815 48.8957 4.61111C49.5068 4.17407 50.2763 3.82963 51.2041 3.57778C52.1318 3.32593 53.229 3.2 54.4954 3.2C55.7619 3.2 56.7523 3.3037 57.6432 3.51111C58.5342 3.71852 59.2705 4.04444 59.8522 4.48889C60.4339 4.93333 60.872 5.50741 61.1665 6.21111C61.4611 6.91481 61.6083 7.77037 61.6083 8.77778C61.6083 9.14815 61.6047 9.5037 61.5973 9.84444C61.5899 10.1852 61.5863 10.5259 61.5863 10.8667C61.5863 11.2074 61.5826 11.5556 61.5752 11.9111C61.5678 12.2667 61.5642 12.6444 61.5642 13.0444C61.5642 13.4 61.601 13.6593 61.6746 13.8222C61.7482 13.9852 61.8881 14.0667 62.0943 14.0667H62.1937C62.2158 14.0667 62.2416 14.0593 62.271 14.0444V15.5556C61.9618 15.5704 61.6636 15.5852 61.3764 15.6C61.0892 15.6148 60.8131 15.6259 60.548 15.6333C60.283 15.6407 60.0142 15.6444 59.7418 15.6444H58.8692C58.3685 15.6444 57.9451 15.6185 57.5991 15.5667C57.253 15.5148 56.9695 15.4222 56.7486 15.2889C56.5277 15.1556 56.362 14.9852 56.2516 14.7778C56.1411 14.5704 56.0712 14.3185 56.0417 14.0222C56.027 13.963 56.016 13.8926 56.0086 13.8111C56.0012 13.7296 55.9975 13.6519 55.9975 13.5778H55.9755C55.8282 13.8296 55.6367 14.0852 55.4011 14.3444C55.1655 14.6037 54.8526 14.8407 54.4623 15.0556C54.0721 15.2704 53.6082 15.4444 53.0706 15.5778C52.5331 15.7111 51.8962 15.7778 51.1599 15.7778C50.5119 15.7778 49.9081 15.7074 49.3485 15.5667C48.7889 15.4259 48.2956 15.2148 47.8685 14.9333C47.4414 14.6519 47.1101 14.3 46.8745 13.8778C46.6389 13.4556 46.521 12.963 46.521 12.4V12.2667ZM40.9986 3.55556V5.82222H41.0207C41.2121 5.45185 41.4183 5.11852 41.6392 4.82222C41.8601 4.52593 42.1215 4.27407 42.4234 4.06667C42.7253 3.85926 43.0787 3.6963 43.4837 3.57778C43.8887 3.45926 44.3636 3.4 44.9085 3.4C45.1441 3.4 45.3429 3.4 45.5049 3.41111C45.6669 3.41852 45.8289 3.42963 45.9909 3.44444V7.64444H45.2619C44.4078 7.64444 43.712 7.67778 43.1744 7.74444C42.6369 7.81111 42.2025 7.93333 41.8711 8.11111C41.5398 8.28889 41.3115 8.52963 41.1864 8.83333C41.0612 9.13704 40.9986 9.54074 40.9986 10.0444V15.5556H35.2332V3.55556H40.9986ZM27.1262 10.4V10.0444C27.0231 10.1185 26.9016 10.1778 26.7617 10.2222C26.6218 10.2667 26.4672 10.3074 26.2979 10.3444C26.1285 10.3815 25.9628 10.4111 25.8008 10.4333C25.6389 10.4556 25.4695 10.4815 25.2928 10.5111C25.0424 10.5556 24.8142 10.5963 24.608 10.6333C24.4018 10.6704 24.2288 10.7185 24.0889 10.7778C23.949 10.837 23.8422 10.9148 23.7686 11.0111C23.695 11.1074 23.6581 11.237 23.6581 11.4V11.4889C23.6581 11.6222 23.6839 11.7333 23.7354 11.8222C23.787 11.9111 23.8754 11.9889 24.0005 12.0556C24.1257 12.1222 24.284 12.1704 24.4755 12.2C24.6669 12.2296 24.8952 12.2444 25.1602 12.2444C25.4989 12.2444 25.7935 12.2185 26.0438 12.1667C26.2942 12.1148 26.5003 12.0296 26.6623 11.9111C26.8243 11.7926 26.9421 11.6407 27.0158 11.4556C27.0894 11.2704 27.1262 11.037 27.1262 10.7556V10.4ZM17.7823 12.2667C17.7823 11.6 17.9222 11.0593 18.202 10.6444C18.4818 10.2296 18.8647 9.9 19.3506 9.65555C19.8366 9.41111 20.3889 9.22963 21.0074 9.11111C21.6259 8.99259 22.2665 8.91111 22.9292 8.86667C23.5624 8.80741 24.1367 8.75556 24.6522 8.71111C25.1676 8.66667 25.6094 8.61481 25.9776 8.55556C26.3457 8.4963 26.6292 8.4037 26.828 8.27778C27.0268 8.15185 27.1262 7.97037 27.1262 7.73333V7.71111C27.1262 7.60741 27.1041 7.51111 27.06 7.42222C27.0158 7.33333 26.9348 7.25556 26.817 7.18889C26.6992 7.12222 26.5408 7.07037 26.342 7.03333C26.1432 6.9963 25.8966 6.97778 25.602 6.97778C25.3811 6.97778 25.1639 6.99259 24.9504 7.02222C24.7369 7.05185 24.5454 7.11111 24.3761 7.2C24.2067 7.28889 24.0705 7.4037 23.9674 7.54444C23.8643 7.68519 23.8201 7.86667 23.8349 8.08889L23.8128 8.2H18.3787L18.3566 8.08889C18.3566 7.39259 18.5039 6.74815 18.7984 6.15556C19.0929 5.56296 19.5458 5.04815 20.1569 4.61111C20.7681 4.17407 21.5375 3.82963 22.4653 3.57778C23.3931 3.32593 24.4902 3.2 25.7567 3.2C27.0231 3.2 28.0135 3.3037 28.9045 3.51111C29.7954 3.71852 30.5317 4.04444 31.1134 4.48889C31.6951 4.93333 32.1332 5.50741 32.4278 6.21111C32.7223 6.91481 32.8696 7.77037 32.8696 8.77778C32.8696 9.14815 32.8659 9.5037 32.8585 9.84444C32.8512 10.1852 32.8475 10.5259 32.8475 10.8667C32.8475 11.2074 32.8438 11.5556 32.8364 11.9111C32.8291 12.2667 32.8254 12.6444 32.8254 13.0444C32.8254 13.4 32.8622 13.6593 32.9358 13.8222C33.0095 13.9852 33.1494 14.0667 33.3555 14.0667H33.4549C33.477 14.0667 33.5028 14.0593 33.5323 14.0444V15.5556C33.223 15.5704 32.9248 15.5852 32.6376 15.6C32.3505 15.6148 32.0743 15.6259 31.8093 15.6333C31.5442 15.6407 31.2754 15.6444 31.003 15.6444H30.1304C29.6297 15.6444 29.2063 15.6185 28.8603 15.5667C28.5142 15.5148 28.2307 15.4222 28.0098 15.2889C27.7889 15.1556 27.6232 14.9852 27.5128 14.7778C27.4023 14.5704 27.3324 14.3185 27.3029 14.0222C27.2882 13.963 27.2772 13.8926 27.2698 13.8111C27.2624 13.7296 27.2588 13.6519 27.2588 13.5778H27.2367C27.0894 13.8296 26.898 14.0852 26.6623 14.3444C26.4267 14.6037 26.1138 14.8407 25.7235 15.0556C25.3333 15.2704 24.8694 15.4444 24.3319 15.5778C23.7944 15.7111 23.1574 15.7778 22.4211 15.7778C21.7731 15.7778 21.1694 15.7074 20.6097 15.5667C20.0501 15.4259 19.5568 15.2148 19.1297 14.9333C18.7027 14.6519 18.3713 14.3 18.1357 13.8778C17.9001 13.4556 17.7823 12.963 17.7823 12.4V12.2667ZM9.38815 7.08889C9.68268 7.04444 9.92935 6.97407 10.1282 6.87778C10.327 6.78148 10.4779 6.64444 10.581 6.46667C10.6841 6.28889 10.7356 6.05185 10.7356 5.75556V5.62222C10.7356 5.4 10.6914 5.2037 10.6031 5.03333C10.5147 4.86296 10.3859 4.72222 10.2165 4.61111C10.0472 4.5 9.82994 4.41481 9.56487 4.35556C9.29979 4.2963 8.97581 4.26667 8.59292 4.26667H6.16304V7.15556H8.37202C8.75491 7.15556 9.09362 7.13333 9.38815 7.08889ZM9.78576 0C10.905 0 11.9211 0.111111 12.8342 0.333333C13.7472 0.555556 14.5167 0.892593 15.1425 1.34444C15.7684 1.7963 16.2544 2.37778 16.6005 3.08889C16.9465 3.8 17.1196 4.64444 17.1196 5.62222V5.75556C17.1196 6.48148 16.9981 7.18889 16.7551 7.87778C16.5121 8.56667 16.1071 9.17037 15.5401 9.68889C14.9732 10.2074 14.2148 10.6259 13.2649 10.9444C12.315 11.263 11.1406 11.4222 9.74158 11.4222H6.16304V15.5556H0V0H9.78576Z" fill="black"/>
</g>
<defs>
<clipPath id="clip0_3028_117">
<rect width="126" height="20" fill="white"/>
</clipPath>
</defs>
</svg>
