<svg width="222" height="61" viewBox="0 0 222 61" fill="none" xmlns="http://www.w3.org/2000/svg">
<path d="M175.99 18.2836L184.194 12.156H156.707V48.8597H184.194V42.7321H164.55V33.3604H181.331V27.2328H164.55V18.2836H175.978H175.99Z" fill="#6F6E6E"/>
<path d="M135.929 26.4497H126.406V18.2836H141.643L149.859 12.156H118.551V48.8597H134.908C144.071 48.8597 149.374 44.6462 149.374 37.3253C149.374 30.0045 144.619 26.4497 135.929 26.4497ZM134.622 42.7321H126.406V32.5773H134.622C139.627 32.5773 141.942 34.2553 141.942 37.6858C141.942 41.1163 139.44 42.7321 134.622 42.7321Z" fill="#6F6E6E"/>
<path d="M206.464 12.156H191.525V48.8597H199.381V38.4688H206.526C216.049 38.4688 222 33.4225 222 25.3186C222 17.2147 216.049 12.1684 206.464 12.1684V12.156ZM206.277 32.3412H199.318V18.2836H206.277C211.331 18.2836 214.07 20.8068 214.07 25.3062C214.07 29.8056 211.331 32.3288 206.277 32.3288V32.3412Z" fill="#6F6E6E"/>
<path d="M105.106 40.9292C103.027 42.0727 100.699 42.6694 98.3217 42.6694C91.2383 42.6694 86.1219 37.5609 86.1219 30.5383C86.1219 23.5158 91.2383 18.4074 98.3217 18.4074C100.874 18.3452 103.376 19.1904 105.467 20.6943L111.119 16.4933L110.758 16.1328C107.484 13.1871 103.077 11.6831 98.0852 11.6831C92.6699 11.6831 87.7278 13.5475 84.1674 16.9034C80.5946 20.3836 78.5779 25.2559 78.69 30.3022C78.6277 35.4106 80.5946 40.3326 84.1674 43.9371C87.9145 47.4795 92.9065 49.4682 98.0354 49.3439C103.687 49.3439 108.629 47.3552 111.953 43.7631L106.899 39.9722L105.106 40.9292Z" fill="#6F6E6E"/>
<path d="M54.1043 11.9194C55.5359 13.7838 56.7185 15.8222 57.7269 17.9849L30.24 38.4684L18.6875 31.1476V22.3849L30.1777 29.656L54.1043 11.9443V11.9194Z" fill="#6F6E6E"/>
<path d="M59.9285 25.0699L53.4426 29.9298V30.5264C53.4426 37.0144 50.791 42.8562 46.5709 47.0697L46.5336 47.0325C42.3632 51.3579 36.587 53.9431 30.1634 53.9431C23.7398 53.9431 17.9761 51.2833 13.7933 47.0325C9.57314 42.8314 6.94644 37.002 6.94644 30.5139C6.94644 24.0258 9.58559 18.2213 13.7933 13.9954C17.9636 9.73213 23.7896 7.0847 30.1634 7.0847C30.5867 7.0847 30.9352 7.0847 31.3585 7.14685V7.0847C35.7778 7.35814 39.8735 8.79993 43.2595 11.1739L49.1478 6.78639C43.9691 2.58528 37.3713 0 30.1634 0V0.0621408C22.3954 0.0745701 15.312 3.07003 9.95903 7.95474L9.93414 7.91746C3.84669 13.4734 0.0497951 21.453 0 30.3275C0 30.3648 0 30.4021 0 30.4393C0 30.4393 0 30.4642 0 30.4766C0 30.4891 0 30.5015 0 30.5015C0.0124488 38.3444 2.97527 45.4912 7.8303 50.898L7.80541 50.9228C13.3078 57.0629 21.2127 60.8911 30.0016 60.9408C30.0389 60.9408 30.0763 60.9408 30.1136 60.9408C30.1136 60.9408 30.1385 60.9408 30.151 60.9408C30.1634 60.9408 30.1759 60.9408 30.1759 60.9408C37.9564 60.9284 45.0646 57.9205 50.4176 53.0109L50.4674 53.0731C56.5424 47.5421 60.414 39.4382 60.414 30.4891C60.414 28.6247 60.2397 26.8224 59.9409 25.0202L59.9285 25.0699Z" fill="#6F6E6E"/>
</svg>
