<svg width="200" height="67" viewBox="0 0 200 67" fill="none" xmlns="http://www.w3.org/2000/svg">
<path d="M96.8211 39.7308H82.8273C81.2199 39.7308 80.3555 40.8367 80.3555 42.1718V58.1531C80.3555 59.731 81.4901 60.6211 82.8949 60.6211C84.2997 60.6211 85.3667 59.7175 85.3667 58.1531V44.5724H94.3087V58.1531C94.3087 59.731 95.4163 60.6211 96.8211 60.6211C98.2258 60.6211 99.3334 59.6905 99.3334 58.1126V42.1583C99.3334 40.8232 98.4285 39.7173 96.8211 39.7173V39.7308Z" fill="#6F6E6E"/>
<path d="M121.189 39.7305H120.987C119.515 39.7305 118.542 40.4722 117.502 41.9422L109.33 53.5135V42.2119C109.33 40.634 108.33 39.744 106.953 39.744C105.575 39.744 104.508 40.6475 104.508 42.2119V57.6268C104.508 59.2991 105.575 60.432 107.29 60.432H107.52C109.1 60.432 110.1 59.6363 111.072 58.2202L119.244 46.649V57.9505C119.244 59.5284 120.244 60.4185 121.649 60.4185C123.054 60.4185 124.053 59.5149 124.053 57.9505V42.5356C124.053 40.7959 123.013 39.7305 121.176 39.7305H121.189Z" fill="#6F6E6E"/>
<path d="M149.12 55.577H147.85V41.9963C147.85 40.4184 146.715 39.5283 145.311 39.5283C143.906 39.5283 142.839 40.4319 142.839 41.9963V55.577H134.126V41.9963C134.126 40.4184 133.059 39.5283 131.614 39.5283C130.169 39.5283 129.102 40.4319 129.102 41.9963V57.9776C129.102 59.3127 130.007 60.4186 131.573 60.4186H146.648V62.6304C146.648 64.2083 147.715 65.0984 149.093 65.0984C150.47 65.0984 151.564 64.1948 151.564 62.6304V58.045C151.564 56.3997 150.592 55.577 149.12 55.577Z" fill="#6F6E6E"/>
<path d="M174.272 55.577H173.002V41.9963C173.002 40.4184 171.868 39.5283 170.463 39.5283C169.058 39.5283 167.991 40.4319 167.991 41.9963V55.577H159.279V41.9963C159.279 40.4184 158.212 39.5283 156.766 39.5283C155.321 39.5283 154.254 40.4319 154.254 41.9963V57.9776C154.254 59.3127 155.159 60.4186 156.726 60.4186H171.8V62.6304C171.8 64.2083 172.867 65.0984 174.245 65.0984C175.623 65.0984 176.717 64.1948 176.717 62.6304V58.045C176.717 56.3997 175.744 55.577 174.272 55.577Z" fill="#6F6E6E"/>
<path d="M198.75 56.9123L191.915 42.0639C191.145 40.4321 190.078 39.7173 188.539 39.7173H188.268C186.661 39.7173 185.594 40.4186 184.824 42.0639L177.989 56.9123C177.314 58.3823 177.787 59.6905 179.124 60.1895C180.326 60.6615 181.528 60.3918 182.204 58.9892L183.743 55.7525C185.121 56.2246 186.823 56.4538 188.43 56.4538C190.132 56.4538 191.645 56.2246 192.915 55.7525L194.387 58.9623C195.022 60.3649 196.332 60.6346 197.507 60.203C198.845 59.704 199.385 58.3284 198.75 56.9258V56.9123ZM188.444 51.9898C187.404 51.9898 186.296 51.855 185.459 51.6257L188.376 45.1388L191.294 51.6257C190.484 51.855 189.484 51.9898 188.444 51.9898Z" fill="#6F6E6E"/>
<path d="M102.847 22.4143H101.578V9.00889C101.578 7.67375 100.673 6.56787 99.1059 6.56787H87.6246C86.2874 6.56787 85.3823 7.47144 85.3823 9.03585V12.2726C85.3823 14.6192 85.3553 16.4129 84.9501 18.3549C84.5449 20.2565 84.0451 21.4298 83.3157 22.4008H82.7484C81.141 22.4008 80.3711 23.3988 80.3711 24.8418V29.4541C80.3711 31.032 81.4382 31.9221 82.8159 31.9221C84.1937 31.9221 85.2878 31.0186 85.2878 29.4541V27.2424H100.389V29.4541C100.389 31.032 101.456 31.9221 102.834 31.9221C104.212 31.9221 105.306 31.0186 105.306 29.4541V24.8418C105.306 23.3988 104.536 22.4008 102.861 22.4008L102.847 22.4143ZM96.553 22.4143H88.4215C88.9213 21.3489 89.3265 20.3778 89.6642 18.9078C90.0019 17.3704 90.137 15.833 90.164 13.8235L90.191 11.423H96.553V22.4277V22.4143Z" fill="#6F6E6E"/>
<path d="M117.086 6.40576C111.088 6.40576 106.469 10.9237 106.469 16.9386C106.469 22.9535 111.088 27.4714 117.086 27.4714C123.083 27.4714 127.702 22.859 127.702 16.8711C127.702 10.8832 123.083 6.40576 117.086 6.40576ZM117.086 22.7512C113.803 22.7512 111.426 20.2832 111.426 16.8981C111.426 13.513 113.803 11.1125 117.086 11.1125C120.368 11.1125 122.745 13.5805 122.745 16.8981C122.745 20.2157 120.503 22.7512 117.086 22.7512Z" fill="#6F6E6E"/>
<path d="M164.793 6.40576C158.795 6.40576 154.176 10.9237 154.176 16.9386C154.176 22.9535 158.795 27.4714 164.793 27.4714C170.79 27.4714 175.41 22.859 175.41 16.8711C175.41 10.8832 170.79 6.40576 164.793 6.40576ZM164.793 22.7512C161.51 22.7512 159.133 20.2832 159.133 16.8981C159.133 13.513 161.51 11.1125 164.793 11.1125C168.075 11.1125 170.452 13.5805 170.452 16.8981C170.452 20.2157 168.21 22.7512 164.793 22.7512Z" fill="#6F6E6E"/>
<path d="M150.734 22.4143H149.465V9.00889C149.465 7.67375 148.56 6.56787 146.993 6.56787H135.511C134.174 6.56787 133.269 7.47144 133.269 9.03585V12.2726C133.269 14.6192 133.242 16.4129 132.837 18.3549C132.432 20.2565 131.932 21.4298 131.202 22.4008H130.635C129.028 22.4008 128.258 23.3988 128.258 24.8418V29.4541C128.258 31.032 129.325 31.9221 130.703 31.9221C132.08 31.9221 133.175 31.0186 133.175 29.4541V27.2424H148.276V29.4541C148.276 31.032 149.343 31.9221 150.721 31.9221C152.098 31.9221 153.193 31.0186 153.193 29.4541V24.8418C153.193 23.3988 152.423 22.4008 150.748 22.4008L150.734 22.4143ZM144.44 22.4143H136.308C136.808 21.3489 137.213 20.3778 137.551 18.9078C137.889 17.3704 138.024 15.833 138.051 13.8235L138.078 11.423H144.44V22.4277V22.4143Z" fill="#6F6E6E"/>
<path d="M30.0001 0C49.5454 0 64.5521 13.4189 64.5521 33.3382C64.5521 53.2575 49.5454 67 30.0001 67H8.09098C3.66053 67 0 64.0735 0 58.9891V8.33453C0 3.25019 3.67404 0 8.09098 0H30.0001Z" fill="#D8D8D8"/>
<path d="M15.2364 35.1048C15.2364 28.928 13.2643 23.3177 13.9127 19.8113L13.7506 19.609C11.4949 21.9556 10.0361 21.3352 9.87397 20.58C9.54979 19.0695 12.1837 17.2219 13.6966 16.5746C13.7236 16.4801 13.7641 16.3723 13.8046 16.2644C12.3998 16.4802 10.7384 16.3048 10.6844 15.2934C10.6168 14.1066 13.0212 13.0411 16.1549 13.2974C16.209 13.2434 16.2765 13.203 16.3305 13.1491C16.1279 13.0681 15.9253 12.9737 15.6552 12.8389C14.8447 12.4208 14.6421 11.733 14.9122 11.2205C15.1959 10.6675 16.0874 10.4518 16.8033 10.4653C17.9379 10.4922 18.8969 10.762 19.5993 11.0452C19.6804 11.0182 19.7614 10.9778 19.829 10.9508C19.5723 10.7485 19.3427 10.5327 19.2076 10.3034C19.0185 9.96627 18.9645 9.52123 19.3427 9.22454C19.7749 8.87389 20.896 8.7525 21.8956 9.66957C22.0982 9.85837 22.2738 10.0472 22.4359 10.2225C22.5439 10.1955 22.6655 10.1821 22.7736 10.1551C22.6115 9.89885 22.4764 9.62912 22.4359 9.38636C22.3819 9.04921 22.4899 8.68508 22.8816 8.55022C23.3139 8.41536 23.8677 8.63113 24.1513 9.04921C24.462 9.50774 24.6511 10.0607 24.7592 10.4518C22.5439 10.708 16.6682 12.0566 16.6682 19.1504C16.6682 26.2442 22.4224 33.338 22.4224 44.0597C22.4224 47.9572 21.5579 51.8683 18.019 56.4266C15.2905 59.9466 10.9411 63.3316 4.17382 66.1233C5.33546 66.6897 6.65916 66.9864 8.06393 66.9864H10.4953C16.1009 63.8845 18.8699 61.0524 20.8015 58.3821C24.5566 60.0544 28.163 60.7692 31.4183 60.7692C37.5237 60.7692 42.7241 57.9641 45.4391 52.9606C48.2351 51.2883 50.0856 47.8493 50.1937 45.3948C51.9362 43.21 52.2603 40.4588 51.72 38.5977C51.5985 38.1527 51.2338 38.1392 50.6124 38.5168C45.1149 41.8075 39.793 43.3718 34.7006 43.3718C31.6209 43.3718 28.4602 42.8864 25.0969 41.9153C24.8537 38.3145 24.1108 35.2936 23.8407 33.4729C23.449 31.0588 24.0028 29.2652 26.6637 29.2652C28.6088 29.2652 32.2153 29.7642 35.0924 31.0723C37.9424 32.367 39.6444 34.9159 40.833 34.9159C41.3193 34.9159 41.8191 34.6192 41.8191 33.5943C41.8191 31.5309 41.0762 28.2132 40.1712 27.0264C42.8457 26.8781 44.9663 26.9051 46.155 27.0264C48.6404 27.458 48.7619 28.6987 49.2482 29.5079C49.7345 30.3171 50.5719 30.6678 51.5715 30.6678C53.422 30.6678 54.5701 29.7102 54.5701 26.2847C54.5701 18.7324 49.802 15.0776 44.7907 15.0776C40.6844 15.0776 39.0906 15.9811 35.2005 15.9811C32.4314 15.9811 30.1351 10.3574 27.0014 9.61561C25.6101 6.52724 22.5034 6.19009 20.5719 7.72753C18.8294 6.6756 16.1009 7.24202 15.9928 9.19754C13.9937 8.57717 11.4003 9.65608 12.5214 12.2859C7.61821 12.4208 6.69971 16.7499 10.0361 17.2354C5.75419 19.6495 7.71277 23.8302 11.3058 22.9401C11.5624 25.9071 12.7645 30.6948 12.7645 34.0124C12.7645 38.6112 10.6709 39.6766 7.82081 39.6766C5.56506 39.6766 2.24224 38.854 0 38.2201V41.4299C2.26925 41.9963 5.68663 42.7245 8.23954 42.7245C12.7375 42.7245 15.2364 40.0812 15.2364 35.0643V35.1048ZM25.1779 45.5297C28.2576 46.3793 32.526 46.8379 36.0649 46.5951C42.2783 46.1635 46.9519 43.8439 49.5724 42.1716C47.992 46.1501 42.0757 48.6315 36.3351 49.3193C36.2946 49.6025 36.254 49.8857 36.2 50.169C40.5089 49.9397 44.6016 48.5371 46.4521 47.2694C45.3986 51.1804 40.1307 52.7583 35.349 52.9876C35.2139 53.2978 35.0654 53.581 34.9303 53.8642C37.7128 53.9182 40.3873 53.3922 41.9677 52.8932C40.5359 55.6175 35.6057 57.7753 30.5809 57.7753C28.109 57.7753 25.0293 57.2897 22.3548 56.022C24.2864 52.4886 25.0293 48.8743 25.1914 45.5432L25.1779 45.5297ZM37.6048 23.4526C38.2802 21.4431 38.8745 19.9192 39.9686 18.7593C41.1302 17.5321 42.4134 17.1545 45.2365 17.1545C49.1401 17.1545 52.3954 21.0925 52.3954 26.5949C52.3954 27.4176 51.3013 27.4041 50.9501 26.6623C49.6264 24.3292 47.8299 23.992 44.9934 23.7762C42.8997 23.6549 40.3873 23.8302 38.091 23.9246C37.6588 23.9516 37.5372 23.6414 37.6048 23.4526Z" fill="#6F6E6E"/>
<path d="M0 51.2616C2.3503 50.7895 4.67359 50.358 4.67359 50.358L4.97076 49.0903C3.90367 49.0363 1.79649 49.0633 0 49.1037V51.2481V51.2616Z" fill="#6F6E6E"/>
<path d="M25.3958 13.3921C26.2198 13.1089 27.395 13.9316 28.0298 15.1993C28.6647 16.467 28.5026 17.7347 27.6786 18.0044C26.8682 18.2876 25.6795 17.4785 25.0446 16.2108C24.9636 16.0354 24.896 15.8736 24.8285 15.6983L24.9771 15.6578C25.2473 15.9141 25.5579 15.9815 25.7605 15.8467C26.0442 15.6578 26.0172 15.1588 25.774 14.7138C25.5984 14.3631 25.1932 13.9855 24.8555 14.0125L24.8015 13.9316C24.9231 13.6753 25.1122 13.4866 25.3688 13.4056M31.1635 26.1771C27.476 25.368 23.4372 24.3026 21.2896 21.1468C21.249 21.0928 21.1815 21.0658 21.1005 21.0793C21.0329 21.0928 20.9789 21.1602 20.9789 21.2277C20.9789 21.403 20.9924 21.5918 21.0329 21.7806L20.7357 21.8885C20.1684 21.0928 20.0469 20.1218 20.6142 19.4205C21.4246 18.4225 23.0726 18.5169 24.0451 19.1373L23.9235 19.407C23.3967 19.3126 22.8969 19.3126 22.5052 19.5554C22.1675 19.7577 22.127 20.0544 22.3297 20.432C24.1126 23.7496 29.313 24.4644 35.4859 23.9924C36.1208 23.9384 36.2693 23.6552 36.3504 23.345C36.8907 21.2142 37.8632 19.3126 39.3085 17.8561C38.1874 18.0179 37.1338 18.0449 36.2288 18.0988C33.041 18.3011 31.2175 17.8831 30.6502 17.4245L30.7583 17.1413C31.096 17.2627 31.4472 17.2897 31.5282 17.1818C31.6228 17.0469 31.5552 16.966 31.3932 16.8311C30.7853 16.2647 28.0703 13.4865 28.0703 13.5C27.7732 11.1399 24.3422 11.059 22.978 13.3786L22.5187 13.2573C22.6538 12.7448 22.8564 12.3402 23.0456 12.03C20.182 12.6773 18.5475 15.2397 18.2504 17.7212C16.9807 28.3889 33.1761 25.9209 37.8092 30.1961C37.9037 30.2635 38.1199 30.5737 38.282 30.3849C38.4576 29.805 36.4179 27.3235 31.1635 26.1637" fill="white"/>
<path d="M49.5741 42.1582C46.9537 43.844 42.2801 46.1502 36.0666 46.5952C32.5277 46.838 28.2593 46.3794 25.1796 45.5298C25.1256 46.5547 25.0311 47.6202 24.8555 48.6856C26.5979 49.1306 29.6911 49.724 34.1486 49.8454C33.946 51.0457 32.7303 55.1051 29.6101 57.7349C35.2967 57.9777 40.4431 55.7659 41.9694 52.8798C40.3755 53.3788 37.7146 53.8913 34.932 53.8509C35.0806 53.5811 35.2157 53.2844 35.3507 52.9743C40.1324 52.745 45.4003 51.1671 46.4539 47.256C44.6034 48.5372 40.5106 49.9264 36.2017 50.1556C36.2558 49.8859 36.2963 49.6027 36.3368 49.306C42.0775 48.6047 48.0072 46.1367 49.5741 42.1582Z" fill="white"/>
</svg>
