<svg width="48" height="48" viewBox="0 0 48 48" fill="none" xmlns="http://www.w3.org/2000/svg">
<g clip-path="url(#clip0_3028_301)">
<path d="M23.83 -0.000273438C10.67 -0.000273438 0 10.6697 0 23.8297C0 33.9297 6.28 42.5597 15.14 46.0297C14.92 44.1497 14.75 41.2397 15.22 39.1797C15.65 37.3197 18.01 27.3297 18.01 27.3297C18.01 27.3297 17.3 25.8997 17.3 23.7997C17.3 20.4897 19.22 18.0097 21.61 18.0097C23.65 18.0097 24.63 19.5397 24.63 21.3597C24.63 23.3997 23.34 26.4597 22.65 29.2997C22.08 31.6697 23.85 33.6097 26.18 33.6097C30.42 33.6097 33.67 29.1397 33.67 22.6997C33.67 16.9897 29.57 13.0097 23.71 13.0097C16.92 13.0097 12.94 18.0897 12.94 23.3497C12.94 25.3897 13.72 27.5897 14.71 28.7797C14.91 29.0197 14.93 29.2297 14.87 29.4697C14.69 30.2197 14.28 31.8397 14.2 32.1797C14.1 32.6097 13.85 32.7097 13.4 32.4897C10.42 31.0997 8.56 26.7597 8.56 23.2497C8.56 15.7397 14.01 8.82973 24.31 8.82973C32.57 8.82973 39 14.7097 39 22.5997C39 30.4897 33.82 37.4297 26.64 37.4297C24.23 37.4297 21.95 36.1697 21.19 34.6797C21.19 34.6797 19.99 39.2297 19.7 40.3497C19.17 42.4297 17.72 45.0197 16.74 46.6097C18.98 47.2997 21.33 47.6697 23.8 47.6697C36.96 47.6697 47.63 36.9997 47.63 23.8397C47.67 10.6397 37 -0.0302734 23.84 -0.0302734L23.83 -0.000273438Z" fill="black"/>
</g>
<defs>
<clipPath id="clip0_3028_301">
<rect width="47.62" height="47.7" fill="white"/>
</clipPath>
</defs>
</svg>
