<svg width="520" height="172" viewBox="0 0 520 172" fill="none" xmlns="http://www.w3.org/2000/svg">
<path d="M38.58 131V129.92C45.96 128.66 48.3 126.86 48.3 113.72V65.12L17.52 64.94V113.72C17.52 126.86 19.86 128.66 27.24 129.92V131H0.96V129.92C8.34 128.66 10.68 126.86 10.68 113.72V18.32C10.68 7.88 6.9 6.08 1.14 4.99999V3.91999H27.06V4.99999C21.3 6.08 17.52 7.88 17.52 18.32V63.5L48.3 63.14V18.32C48.3 7.88 44.52 6.08 38.76 4.99999V3.91999H64.68V4.99999C58.92 6.08 55.14 7.88 55.14 18.32V113.72C55.14 126.86 57.48 128.66 64.86 129.92V131H38.58ZM87.6778 132.08C74.8978 132.08 71.8378 109.58 71.8378 91.76C71.8378 70.34 77.2378 34.7 88.5778 34.7C97.7578 34.7 100.278 59.72 100.278 70.34L76.8778 70.16C76.6978 74.3 76.5178 78.44 76.5178 82.22C76.5178 102.92 79.2178 124.34 91.0978 124.34C93.9778 124.34 98.1178 123.62 102.618 113.36L103.698 113.9C98.1178 128.84 93.4378 132.08 87.6778 132.08ZM85.3378 68.72C92.5378 68.54 93.9778 64.22 93.9778 55.04C93.9778 41.9 91.2778 36.5 87.8578 36.5C81.5578 36.5 78.1378 52.52 77.0578 68.9L85.3378 68.72ZM109.764 129.92C114.804 129.2 115.164 126.32 115.164 116.24V20.84C115.164 8.05999 113.724 5.54 110.124 4.99999V3.91999C113.364 3.02 116.244 2.12 120.384 0.499996L121.284 0.859991V116.24C121.284 126.32 121.644 129.2 126.684 129.92V131H109.764V129.92ZM147.518 132.08C142.478 132.08 137.438 129.92 135.998 128.48L135.458 100.04H136.538C137.438 114.62 141.938 127.58 151.838 127.58C156.878 127.58 162.458 124.34 162.458 114.8C162.458 103.28 154.538 92.3 151.838 88.34C141.398 73.94 135.818 64.94 135.818 52.52C135.818 35.06 146.978 34.7 149.138 34.7C156.158 34.7 160.658 38.12 162.278 38.84L162.998 64.94H161.738C160.838 52.52 157.598 37.04 146.798 37.04C141.578 37.04 139.418 40.82 139.418 46.94C139.418 57.74 145.898 67.64 154.538 79.88C158.858 85.82 165.518 95.36 165.518 108.86C165.518 123.26 157.778 132.08 147.518 132.08ZM198.045 132.08C196.065 132.08 195.165 131.18 194.805 125.24C190.125 130.1 186.345 132.08 182.385 132.08C175.185 132.08 173.205 126.14 173.205 119.48C173.205 93.02 194.625 73.4 194.625 60.62V49.1C194.625 40.1 194.445 36.32 190.665 36.32C182.925 36.32 178.965 51.8 178.245 61.7H176.985C176.985 58.1 176.985 43.52 176.805 40.1C178.965 39.02 185.085 34.7 192.645 34.7C200.205 34.7 200.745 39.38 200.745 46.76V114.08C200.745 125.96 202.725 126.5 203.805 126.5C204.705 126.5 205.425 126.14 207.225 124.52L207.945 125.42C204.705 129.2 201.465 132.08 198.045 132.08ZM179.505 114.08C179.505 123.44 182.745 127.4 187.605 127.4C189.945 127.4 192.465 126.14 194.625 123.62V69.26C190.125 76.82 179.505 93.74 179.505 114.08ZM241.429 129.92C248.809 128.66 251.149 126.86 251.149 113.72V18.32C251.149 7.88 247.369 6.08 241.609 4.99999V3.91999H260.869C292.369 3.91999 295.609 43.16 295.609 65.48C295.609 95.18 289.849 131 265.909 131H241.429V129.92ZM257.989 113.72C257.989 126.86 260.149 129.56 266.269 129.56C282.649 129.56 287.869 102.2 287.869 62.78C287.869 33.44 284.989 5.36 261.409 5.36H258.349C258.169 7.33999 257.989 11.66 257.989 18.32V113.72ZM306.288 129.92C311.328 129.2 311.688 126.32 311.688 116.24V55.94C311.688 43.16 310.248 41.18 306.648 40.1V39.02C310.968 37.76 312.768 36.86 317.088 34.52L317.808 35.06V116.24C317.808 126.32 318.168 129.2 323.208 129.92V131H306.288V129.92ZM313.668 26.24C310.608 26.24 308.448 23.9 308.448 21.02C308.448 18.32 310.608 15.98 313.668 15.98C316.728 15.98 318.888 18.32 318.888 21.02C318.888 23.9 316.728 26.24 313.668 26.24ZM344.041 132.08C339.001 132.08 333.961 129.92 332.521 128.48L331.981 100.04H333.061C333.961 114.62 338.461 127.58 348.361 127.58C353.401 127.58 358.981 124.34 358.981 114.8C358.981 103.28 351.061 92.3 348.361 88.34C337.921 73.94 332.341 64.94 332.341 52.52C332.341 35.06 343.501 34.7 345.661 34.7C352.681 34.7 357.181 38.12 358.801 38.84L359.521 64.94H358.261C357.361 52.52 354.121 37.04 343.321 37.04C338.101 37.04 335.941 40.82 335.941 46.94C335.941 57.74 342.421 67.64 351.061 79.88C355.381 85.82 362.041 95.36 362.041 108.86C362.041 123.26 354.301 132.08 344.041 132.08ZM381.968 106.52C381.968 118.4 384.308 126.86 390.068 126.86C399.968 126.86 401.948 102.74 401.948 84.2C401.948 54.5 397.628 39.92 388.268 39.92C386.828 39.92 384.668 40.28 381.788 42.62L381.968 46.76V106.52ZM369.548 171.14C375.308 164.84 375.848 156.74 375.848 143.78V55.94C375.848 43.16 374.408 41.18 370.808 40.1V39.02C374.948 37.58 376.568 36.68 380.708 34.52L381.608 34.88L381.788 41.18C386.108 37.22 388.808 34.7 392.768 34.7C403.028 34.7 406.448 52.7 406.448 71.24C406.448 95 400.868 132.08 388.088 132.08C385.928 132.08 383.768 131 381.968 129.2C381.968 142.34 382.328 151.88 383.948 161.06C378.728 164.48 374.948 167.54 370.268 171.86L369.548 171.14ZM416.327 129.92C421.367 129.2 421.727 126.32 421.727 116.24V20.84C421.727 8.05999 420.287 5.54 416.687 4.99999V3.91999C419.927 3.02 422.807 2.12 426.947 0.499996L427.847 0.859991V116.24C427.847 126.32 428.207 129.2 433.247 129.92V131H416.327V129.92ZM464.88 132.08C462.9 132.08 462 131.18 461.64 125.24C456.96 130.1 453.18 132.08 449.22 132.08C442.02 132.08 440.04 126.14 440.04 119.48C440.04 93.02 461.46 73.4 461.46 60.62V49.1C461.46 40.1 461.28 36.32 457.5 36.32C449.76 36.32 445.8 51.8 445.08 61.7H443.82C443.82 58.1 443.82 43.52 443.64 40.1C445.8 39.02 451.92 34.7 459.48 34.7C467.04 34.7 467.58 39.38 467.58 46.76V114.08C467.58 125.96 469.56 126.5 470.64 126.5C471.54 126.5 472.26 126.14 474.06 124.52L474.78 125.42C471.54 129.2 468.3 132.08 464.88 132.08ZM446.34 114.08C446.34 123.44 449.58 127.4 454.44 127.4C456.78 127.4 459.3 126.14 461.46 123.62V69.26C456.96 76.82 446.34 93.74 446.34 114.08ZM479.767 165.74C491.467 160.16 494.707 145.76 496.687 132.44L482.647 50.18C481.027 40.82 479.407 37.94 475.087 36.86V35.78H493.267V36.86C488.227 37.76 487.507 40.64 488.947 49.82L499.027 114.26H499.747C503.527 91.04 509.107 56.66 509.107 46.04C509.107 40.1 506.947 37.22 501.367 36.86V35.78H519.367V36.86C514.507 37.76 512.527 42.26 510.187 57.56L498.487 131.54C496.867 141.26 493.987 154.76 493.627 163.94L505.867 165.74V166.82H479.767V165.74Z" fill="black"/>
<path d="M38.58 131V129.92C45.96 128.66 48.3 126.86 48.3 113.72V65.12L17.52 64.94V113.72C17.52 126.86 19.86 128.66 27.24 129.92V131H0.96V129.92C8.34 128.66 10.68 126.86 10.68 113.72V18.32C10.68 7.88 6.9 6.08 1.14 4.99999V3.91999H27.06V4.99999C21.3 6.08 17.52 7.88 17.52 18.32V63.5L48.3 63.14V18.32C48.3 7.88 44.52 6.08 38.76 4.99999V3.91999H64.68V4.99999C58.92 6.08 55.14 7.88 55.14 18.32V113.72C55.14 126.86 57.48 128.66 64.86 129.92V131H38.58ZM87.6778 132.08C74.8978 132.08 71.8378 109.58 71.8378 91.76C71.8378 70.34 77.2378 34.7 88.5778 34.7C97.7578 34.7 100.278 59.72 100.278 70.34L76.8778 70.16C76.6978 74.3 76.5178 78.44 76.5178 82.22C76.5178 102.92 79.2178 124.34 91.0978 124.34C93.9778 124.34 98.1178 123.62 102.618 113.36L103.698 113.9C98.1178 128.84 93.4378 132.08 87.6778 132.08ZM85.3378 68.72C92.5378 68.54 93.9778 64.22 93.9778 55.04C93.9778 41.9 91.2778 36.5 87.8578 36.5C81.5578 36.5 78.1378 52.52 77.0578 68.9L85.3378 68.72ZM109.764 129.92C114.804 129.2 115.164 126.32 115.164 116.24V20.84C115.164 8.05999 113.724 5.54 110.124 4.99999V3.91999C113.364 3.02 116.244 2.12 120.384 0.499996L121.284 0.859991V116.24C121.284 126.32 121.644 129.2 126.684 129.92V131H109.764V129.92ZM147.518 132.08C142.478 132.08 137.438 129.92 135.998 128.48L135.458 100.04H136.538C137.438 114.62 141.938 127.58 151.838 127.58C156.878 127.58 162.458 124.34 162.458 114.8C162.458 103.28 154.538 92.3 151.838 88.34C141.398 73.94 135.818 64.94 135.818 52.52C135.818 35.06 146.978 34.7 149.138 34.7C156.158 34.7 160.658 38.12 162.278 38.84L162.998 64.94H161.738C160.838 52.52 157.598 37.04 146.798 37.04C141.578 37.04 139.418 40.82 139.418 46.94C139.418 57.74 145.898 67.64 154.538 79.88C158.858 85.82 165.518 95.36 165.518 108.86C165.518 123.26 157.778 132.08 147.518 132.08ZM198.045 132.08C196.065 132.08 195.165 131.18 194.805 125.24C190.125 130.1 186.345 132.08 182.385 132.08C175.185 132.08 173.205 126.14 173.205 119.48C173.205 93.02 194.625 73.4 194.625 60.62V49.1C194.625 40.1 194.445 36.32 190.665 36.32C182.925 36.32 178.965 51.8 178.245 61.7H176.985C176.985 58.1 176.985 43.52 176.805 40.1C178.965 39.02 185.085 34.7 192.645 34.7C200.205 34.7 200.745 39.38 200.745 46.76V114.08C200.745 125.96 202.725 126.5 203.805 126.5C204.705 126.5 205.425 126.14 207.225 124.52L207.945 125.42C204.705 129.2 201.465 132.08 198.045 132.08ZM179.505 114.08C179.505 123.44 182.745 127.4 187.605 127.4C189.945 127.4 192.465 126.14 194.625 123.62V69.26C190.125 76.82 179.505 93.74 179.505 114.08ZM241.429 129.92C248.809 128.66 251.149 126.86 251.149 113.72V18.32C251.149 7.88 247.369 6.08 241.609 4.99999V3.91999H260.869C292.369 3.91999 295.609 43.16 295.609 65.48C295.609 95.18 289.849 131 265.909 131H241.429V129.92ZM257.989 113.72C257.989 126.86 260.149 129.56 266.269 129.56C282.649 129.56 287.869 102.2 287.869 62.78C287.869 33.44 284.989 5.36 261.409 5.36H258.349C258.169 7.33999 257.989 11.66 257.989 18.32V113.72ZM306.288 129.92C311.328 129.2 311.688 126.32 311.688 116.24V55.94C311.688 43.16 310.248 41.18 306.648 40.1V39.02C310.968 37.76 312.768 36.86 317.088 34.52L317.808 35.06V116.24C317.808 126.32 318.168 129.2 323.208 129.92V131H306.288V129.92ZM313.668 26.24C310.608 26.24 308.448 23.9 308.448 21.02C308.448 18.32 310.608 15.98 313.668 15.98C316.728 15.98 318.888 18.32 318.888 21.02C318.888 23.9 316.728 26.24 313.668 26.24ZM344.041 132.08C339.001 132.08 333.961 129.92 332.521 128.48L331.981 100.04H333.061C333.961 114.62 338.461 127.58 348.361 127.58C353.401 127.58 358.981 124.34 358.981 114.8C358.981 103.28 351.061 92.3 348.361 88.34C337.921 73.94 332.341 64.94 332.341 52.52C332.341 35.06 343.501 34.7 345.661 34.7C352.681 34.7 357.181 38.12 358.801 38.84L359.521 64.94H358.261C357.361 52.52 354.121 37.04 343.321 37.04C338.101 37.04 335.941 40.82 335.941 46.94C335.941 57.74 342.421 67.64 351.061 79.88C355.381 85.82 362.041 95.36 362.041 108.86C362.041 123.26 354.301 132.08 344.041 132.08ZM381.968 106.52C381.968 118.4 384.308 126.86 390.068 126.86C399.968 126.86 401.948 102.74 401.948 84.2C401.948 54.5 397.628 39.92 388.268 39.92C386.828 39.92 384.668 40.28 381.788 42.62L381.968 46.76V106.52ZM369.548 171.14C375.308 164.84 375.848 156.74 375.848 143.78V55.94C375.848 43.16 374.408 41.18 370.808 40.1V39.02C374.948 37.58 376.568 36.68 380.708 34.52L381.608 34.88L381.788 41.18C386.108 37.22 388.808 34.7 392.768 34.7C403.028 34.7 406.448 52.7 406.448 71.24C406.448 95 400.868 132.08 388.088 132.08C385.928 132.08 383.768 131 381.968 129.2C381.968 142.34 382.328 151.88 383.948 161.06C378.728 164.48 374.948 167.54 370.268 171.86L369.548 171.14ZM416.327 129.92C421.367 129.2 421.727 126.32 421.727 116.24V20.84C421.727 8.05999 420.287 5.54 416.687 4.99999V3.91999C419.927 3.02 422.807 2.12 426.947 0.499996L427.847 0.859991V116.24C427.847 126.32 428.207 129.2 433.247 129.92V131H416.327V129.92ZM464.88 132.08C462.9 132.08 462 131.18 461.64 125.24C456.96 130.1 453.18 132.08 449.22 132.08C442.02 132.08 440.04 126.14 440.04 119.48C440.04 93.02 461.46 73.4 461.46 60.62V49.1C461.46 40.1 461.28 36.32 457.5 36.32C449.76 36.32 445.8 51.8 445.08 61.7H443.82C443.82 58.1 443.82 43.52 443.64 40.1C445.8 39.02 451.92 34.7 459.48 34.7C467.04 34.7 467.58 39.38 467.58 46.76V114.08C467.58 125.96 469.56 126.5 470.64 126.5C471.54 126.5 472.26 126.14 474.06 124.52L474.78 125.42C471.54 129.2 468.3 132.08 464.88 132.08ZM446.34 114.08C446.34 123.44 449.58 127.4 454.44 127.4C456.78 127.4 459.3 126.14 461.46 123.62V69.26C456.96 76.82 446.34 93.74 446.34 114.08ZM479.767 165.74C491.467 160.16 494.707 145.76 496.687 132.44L482.647 50.18C481.027 40.82 479.407 37.94 475.087 36.86V35.78H493.267V36.86C488.227 37.76 487.507 40.64 488.947 49.82L499.027 114.26H499.747C503.527 91.04 509.107 56.66 509.107 46.04C509.107 40.1 506.947 37.22 501.367 36.86V35.78H519.367V36.86C514.507 37.76 512.527 42.26 510.187 57.56L498.487 131.54C496.867 141.26 493.987 154.76 493.627 163.94L505.867 165.74V166.82H479.767V165.74Z" fill="black" fill-opacity="0.2"/>
</svg>
