<svg width="605" height="128" viewBox="0 0 605 128" fill="none" xmlns="http://www.w3.org/2000/svg">
<path d="M0.3 126V-8.58307e-06H38.46C51.6 -8.58307e-06 86.7 0.359998 86.7 39.6C86.7 78.84 50.88 79.2 38.46 79.2H15.42V126H0.3ZM15.42 65.16H40.26C48.72 65.16 70.86 64.8 70.86 39.6C70.86 14.4 49.44 14.04 40.26 14.04H15.42V65.16ZM136.695 126V14.04H95.655V-8.58307e-06H192.855V14.04H151.815V126H136.695ZM327.861 126L301.941 75.42C299.421 75.6 296.901 75.6 295.101 75.6H272.061V126H256.941V-8.58307e-06H295.101C308.241 -8.58307e-06 341.541 0.359998 341.541 37.8C341.541 60.12 329.481 69.3 317.061 73.08L345.141 126H327.861ZM272.061 14.04V61.56H296.901C306.081 61.56 325.701 61.2 325.701 37.8C325.701 14.4 306.081 14.04 296.901 14.04H272.061ZM399.225 127.44C373.305 127.44 357.825 111.96 357.825 83.7V78.3C357.825 50.4 373.665 34.56 399.225 34.56C425.145 34.56 440.625 50.04 440.625 78.3V83.7C440.625 111.6 424.785 127.44 399.225 127.44ZM399.225 114.12C415.965 114.12 425.505 104.58 425.505 83.7V78.3C425.505 57.78 415.605 47.88 399.225 47.88C382.485 47.88 372.945 57.42 372.945 78.3V83.7C372.945 104.22 382.845 114.12 399.225 114.12ZM497.135 127.44C471.215 127.44 455.735 111.96 455.735 83.7V78.3C455.735 50.4 471.575 34.56 497.135 34.56C523.055 34.56 538.535 50.04 538.535 78.3V83.7C538.535 111.6 522.695 127.44 497.135 127.44ZM497.135 114.12C513.875 114.12 523.415 104.58 523.415 83.7V78.3C523.415 57.78 513.515 47.88 497.135 47.88C480.395 47.88 470.855 57.42 470.855 78.3V83.7C470.855 104.22 480.755 114.12 497.135 114.12ZM548.304 49.32V36H564.504V10.8H578.904V36H602.304V49.32H578.904V99C578.904 103.68 579.264 112.68 591.504 112.68H604.104V126H589.704C564.864 126 564.504 107.1 564.504 97.2V49.32H548.304Z" fill="black"/>
<path d="M0.3 126V-8.58307e-06H38.46C51.6 -8.58307e-06 86.7 0.359998 86.7 39.6C86.7 78.84 50.88 79.2 38.46 79.2H15.42V126H0.3ZM15.42 65.16H40.26C48.72 65.16 70.86 64.8 70.86 39.6C70.86 14.4 49.44 14.04 40.26 14.04H15.42V65.16ZM136.695 126V14.04H95.655V-8.58307e-06H192.855V14.04H151.815V126H136.695ZM327.861 126L301.941 75.42C299.421 75.6 296.901 75.6 295.101 75.6H272.061V126H256.941V-8.58307e-06H295.101C308.241 -8.58307e-06 341.541 0.359998 341.541 37.8C341.541 60.12 329.481 69.3 317.061 73.08L345.141 126H327.861ZM272.061 14.04V61.56H296.901C306.081 61.56 325.701 61.2 325.701 37.8C325.701 14.4 306.081 14.04 296.901 14.04H272.061ZM399.225 127.44C373.305 127.44 357.825 111.96 357.825 83.7V78.3C357.825 50.4 373.665 34.56 399.225 34.56C425.145 34.56 440.625 50.04 440.625 78.3V83.7C440.625 111.6 424.785 127.44 399.225 127.44ZM399.225 114.12C415.965 114.12 425.505 104.58 425.505 83.7V78.3C425.505 57.78 415.605 47.88 399.225 47.88C382.485 47.88 372.945 57.42 372.945 78.3V83.7C372.945 104.22 382.845 114.12 399.225 114.12ZM497.135 127.44C471.215 127.44 455.735 111.96 455.735 83.7V78.3C455.735 50.4 471.575 34.56 497.135 34.56C523.055 34.56 538.535 50.04 538.535 78.3V83.7C538.535 111.6 522.695 127.44 497.135 127.44ZM497.135 114.12C513.875 114.12 523.415 104.58 523.415 83.7V78.3C523.415 57.78 513.515 47.88 497.135 47.88C480.395 47.88 470.855 57.42 470.855 78.3V83.7C470.855 104.22 480.755 114.12 497.135 114.12ZM548.304 49.32V36H564.504V10.8H578.904V36H602.304V49.32H578.904V99C578.904 103.68 579.264 112.68 591.504 112.68H604.104V126H589.704C564.864 126 564.504 107.1 564.504 97.2V49.32H548.304Z" fill="black" fill-opacity="0.2"/>
</svg>
