<svg width="487" height="185" viewBox="0 0 487 185" fill="none" xmlns="http://www.w3.org/2000/svg">
<path d="M48.06 70.36C48.96 68.74 50.04 67.12 92.34 12.94H74.16V11.86H113.76V12.94H93.6L55.62 61.72C60.48 58.3 66.24 56.68 72.54 56.68C94.68 56.68 123.12 77.74 123.12 122.56C123.12 137.5 118.44 144.52 108.72 144.52C93.06 144.52 85.14 128.32 77.58 110.14C75.06 104.02 72.36 97.72 69.3 91.78C62.1 78.1 57.06 71.44 48.6 71.44C46.62 75.4 45.54 80.08 45.54 85.66C45.54 99.52 52.38 117.88 70.02 140.92V142H0.72V140.92H18.72V12.94H0.72V11.86H50.76V12.94H32.76V70.36H48.06ZM68.4 140.92C51.3 118.06 44.46 99.52 44.46 85.66C44.46 80.08 45.54 75.4 47.52 71.44H32.76V140.92H68.4ZM49.14 70.36C64.98 70.9 77.4 81.7 82.98 89.08C90.36 98.62 95.94 109.96 101.16 125.44C103.5 132.28 106.92 141.28 113.4 141.28C118.8 141.28 122.04 134.98 122.04 122.56C122.04 78.28 94.32 57.76 72.54 57.76C64.62 57.76 56.16 60.1 49.14 70.36ZM190.598 131.56C176.378 143.62 164.498 143.98 160.898 143.98C140.918 143.98 136.058 129.4 136.058 117.34V58.66C131.918 59.92 125.438 60.64 121.658 61V59.92C133.178 59.2 141.818 55.96 147.397 53.26V117.7C147.397 139.3 158.558 142 165.578 142C173.857 142 183.578 136.24 190.598 130.3V58.48C188.078 59.38 181.238 60.64 176.198 61V59.92C187.538 59.02 195.638 56.14 201.938 53.26V140.92H216.338V142H190.598V131.56ZM293.719 131.56C288.499 137.68 278.239 143.98 266.179 143.98C251.779 143.98 226.399 134.98 226.399 99.52C226.399 71.44 247.459 53.26 271.219 53.26C283.999 53.26 292.819 60.64 293.719 61.54V5.56C289.579 6.81999 283.099 7.71999 279.319 7.89999V6.81999C289.759 6.28 299.119 3.22 305.059 0.159992V140.92H319.459V142H293.719V131.56ZM239.719 98.08C239.719 133.36 257.359 142 269.779 142C281.299 142 290.119 133.9 293.719 130.3V63.16C287.239 57.58 280.399 54.34 271.759 54.34C250.879 54.34 239.719 69.64 239.719 98.08ZM385.923 71.98C385.743 61.72 381.243 54.34 372.783 54.34C360.003 54.34 351.003 71.26 351.003 86.56V140.92H367.203V142H325.263V140.92H339.663V58.66C334.803 59.92 328.503 60.82 325.263 61V59.92C336.963 59.02 344.703 56.14 351.003 53.26V72.52C355.503 61.54 364.323 53.26 373.863 53.26C379.083 53.26 382.863 55.6 385.563 57.76L385.383 53.26H386.823L387.723 100.78H386.643L385.923 71.98ZM458.927 56.5V55.42H486.827V56.5H475.127C457.847 115.36 434.627 184.84 407.267 184.84C401.327 184.84 397.187 180.52 397.187 172.96C397.187 161.44 405.827 141.82 429.047 115.9L402.767 56.5H392.147V55.42H430.307V56.5H415.367L437.327 107.08C441.467 102.76 445.787 98.44 450.647 93.94L451.367 94.66C446.507 99.16 441.827 103.84 437.687 108.16L448.307 132.46C457.847 109.6 466.487 82.06 473.867 56.5H458.927ZM398.267 172.96C398.267 180.16 401.687 183.76 407.267 183.76C419.867 183.76 431.567 168.46 442.367 145.96L429.587 116.98C406.727 142.54 398.267 161.8 398.267 172.96Z" fill="black"/>
</svg>
