<svg width="814" height="164" viewBox="0 0 814 164" fill="none" xmlns="http://www.w3.org/2000/svg">
<path d="M21.18 129H0.3V2.99999H27.3C32.46 2.99999 36.78 3.59999 40.26 4.79999C43.86 5.87999 46.8 7.55999 49.08 9.83999C51.36 12.12 52.98 14.94 53.94 18.3C55.02 21.66 55.56 25.62 55.56 30.18V55.38C55.56 59.94 55.02 64.02 53.94 67.62C52.98 71.1 51.36 73.98 49.08 76.26C46.92 78.54 44.1 80.28 40.62 81.48C37.14 82.68 32.88 83.28 27.84 83.28H21.18V129ZM21.18 21.9V64.38H25.86C27.42 64.38 28.74 64.2 29.82 63.84C30.9 63.48 31.74 62.94 32.34 62.22C33.06 61.5 33.6 60.54 33.96 59.34C34.32 58.02 34.5 56.46 34.5 54.66V32.34C34.5 30.42 34.32 28.8 33.96 27.48C33.72 26.16 33.24 25.08 32.52 24.24C31.8 23.4 30.9 22.8 29.82 22.44C28.74 22.08 27.42 21.9 25.86 21.9H21.18ZM82.8117 129H63.5517V34.14H82.0917V45.12C82.6917 43.32 83.4117 41.7 84.2517 40.26C85.0917 38.7 86.0517 37.44 87.1317 36.48C88.3317 35.4 89.6517 34.62 91.0917 34.14C92.5317 33.54 94.2117 33.24 96.1317 33.24C96.7317 33.24 97.2117 33.3 97.5717 33.42C98.0517 33.42 98.5317 33.42 99.0117 33.42V52.14H95.9517C93.5517 52.14 91.4517 52.32 89.6517 52.68C87.9717 53.04 86.5917 53.76 85.5117 54.84C84.5517 55.92 83.8317 57.3 83.3517 58.98C82.9917 60.66 82.8117 62.88 82.8117 65.64V129ZM120.323 130.08C117.203 130.08 114.563 129.54 112.403 128.46C110.243 127.26 108.503 125.7 107.183 123.78C105.863 121.74 104.903 119.34 104.303 116.58C103.823 113.82 103.583 110.88 103.583 107.76V97.32C103.583 93.36 104.183 90.24 105.383 87.96C106.583 85.56 108.143 83.64 110.063 82.2C112.103 80.76 114.383 79.56 116.903 78.6C119.423 77.64 121.943 76.62 124.463 75.54C126.143 74.82 127.583 74.16 128.783 73.56C130.103 72.96 131.183 72.3 132.023 71.58C132.863 70.86 133.523 69.96 134.003 68.88C134.483 67.8 134.723 66.42 134.723 64.74V57.18C134.723 55.74 134.603 54.54 134.363 53.58C134.243 52.62 133.943 51.84 133.463 51.24C132.983 50.52 132.443 50.04 131.843 49.8C131.243 49.56 130.403 49.44 129.323 49.44C128.363 49.44 127.523 49.56 126.803 49.8C126.083 50.04 125.423 50.52 124.823 51.24C124.343 51.96 123.983 52.86 123.743 53.94C123.503 55.02 123.383 56.34 123.383 57.9V68.34H104.843V58.08C104.843 54.12 105.383 50.58 106.463 47.46C107.543 44.22 109.103 41.52 111.143 39.36C113.183 37.08 115.763 35.4 118.883 34.32C122.003 33.12 125.603 32.52 129.683 32.52C134.243 32.52 138.023 33.12 141.023 34.32C144.143 35.4 146.663 37.08 148.583 39.36C150.503 41.52 151.883 44.22 152.723 47.46C153.563 50.58 153.983 54.18 153.983 58.26V113.34C153.983 115.02 154.103 116.22 154.343 116.94C154.583 117.66 155.183 118.02 156.143 118.02C156.383 118.02 156.563 118.02 156.683 118.02C156.923 118.02 157.163 118.02 157.403 118.02V129C155.843 129.12 154.343 129.18 152.903 129.18C151.463 129.3 149.963 129.36 148.403 129.36C146.123 129.36 144.203 129.18 142.643 128.82C141.083 128.46 139.823 127.86 138.863 127.02C137.903 126.18 137.183 125.1 136.703 123.78C136.223 122.34 135.863 120.66 135.623 118.74C135.143 120.3 134.423 121.8 133.463 123.24C132.623 124.56 131.603 125.76 130.403 126.84C129.203 127.8 127.703 128.58 125.903 129.18C124.223 129.78 122.363 130.08 120.323 130.08ZM128.243 113.16C129.323 113.16 130.283 112.98 131.123 112.62C131.963 112.14 132.623 111.48 133.103 110.64C133.703 109.8 134.123 108.72 134.363 107.4C134.603 106.08 134.723 104.58 134.723 102.9V82.56C134.363 82.92 133.943 83.22 133.463 83.46C133.103 83.7 132.683 84 132.203 84.36C131.843 84.6 131.363 84.84 130.763 85.08C130.283 85.2 129.803 85.38 129.323 85.62C128.483 85.86 127.643 86.16 126.803 86.52C126.083 86.88 125.423 87.36 124.823 87.96C124.343 88.44 123.923 89.16 123.563 90.12C123.203 91.08 123.023 92.28 123.023 93.72V104.88C123.023 106.32 123.083 107.58 123.203 108.66C123.443 109.74 123.743 110.64 124.103 111.36C124.583 111.96 125.123 112.44 125.723 112.8C126.443 113.04 127.283 113.16 128.243 113.16ZM188.759 163.38C184.679 163.38 181.079 162.84 177.959 161.76C174.839 160.68 172.259 159.12 170.219 157.08C168.299 155.04 166.859 152.52 165.899 149.52C164.939 146.52 164.459 143.16 164.459 139.44V136.56H183.179V139.8C183.179 141.12 183.239 142.2 183.359 143.04C183.599 144 183.959 144.78 184.439 145.38C185.039 146.1 185.699 146.58 186.419 146.82C187.139 147.06 187.979 147.18 188.939 147.18C190.139 147.18 191.099 147 191.819 146.64C192.659 146.28 193.319 145.68 193.799 144.84C194.279 144 194.639 142.92 194.879 141.6C195.119 140.4 195.239 138.84 195.239 136.92V121.62C194.639 122.94 193.919 124.08 193.079 125.04C192.239 126 191.219 126.84 190.019 127.56C188.819 128.28 187.439 128.82 185.879 129.18C184.439 129.54 182.819 129.72 181.019 129.72C177.539 129.72 174.599 129.12 172.199 127.92C169.919 126.72 168.059 125.04 166.619 122.88C165.299 120.6 164.339 117.84 163.739 114.6C163.139 111.36 162.839 107.7 162.839 103.62V60.06C162.839 55.5 163.199 51.54 163.919 48.18C164.639 44.82 165.719 42 167.159 39.72C168.599 37.44 170.459 35.76 172.739 34.68C175.139 33.48 177.959 32.88 181.199 32.88C182.999 32.88 184.679 33.06 186.239 33.42C187.799 33.78 189.179 34.38 190.379 35.22C191.579 36.06 192.599 37.08 193.439 38.28C194.399 39.36 195.239 40.62 195.959 42.06V34.14H214.499V136.02C214.499 140.22 214.019 143.94 213.059 147.18C212.099 150.54 210.599 153.42 208.559 155.82C206.519 158.22 203.879 160.08 200.639 161.4C197.399 162.72 193.439 163.38 188.759 163.38ZM188.579 112.62C189.899 112.62 190.979 112.38 191.819 111.9C192.659 111.42 193.319 110.7 193.799 109.74C194.399 108.66 194.759 107.4 194.879 105.96C195.119 104.4 195.239 102.66 195.239 100.74V62.4C195.239 60.36 195.119 58.62 194.879 57.18C194.759 55.62 194.399 54.36 193.799 53.4C193.319 52.32 192.599 51.54 191.639 51.06C190.799 50.58 189.779 50.34 188.579 50.34C187.259 50.34 186.179 50.64 185.339 51.24C184.619 51.72 184.019 52.5 183.539 53.58C183.059 54.66 182.699 55.98 182.459 57.54C182.339 59.1 182.279 60.9 182.279 62.94V100.74C182.279 102.78 182.339 104.58 182.459 106.14C182.699 107.58 183.059 108.78 183.539 109.74C184.139 110.7 184.799 111.42 185.519 111.9C186.359 112.38 187.379 112.62 188.579 112.62ZM243.827 129H224.567V34.14H243.107V42.06C243.707 40.62 244.427 39.36 245.267 38.28C246.227 37.2 247.307 36.24 248.507 35.4C249.707 34.56 251.087 33.96 252.647 33.6C254.327 33.12 256.127 32.88 258.047 32.88C259.847 32.88 261.527 33.12 263.087 33.6C264.647 34.08 265.967 34.8 267.047 35.76C268.247 36.6 269.267 37.62 270.107 38.82C271.067 40.02 271.787 41.46 272.267 43.14C272.987 41.46 273.827 40.02 274.787 38.82C275.867 37.5 277.007 36.42 278.207 35.58C279.527 34.74 280.967 34.08 282.527 33.6C284.207 33.12 285.947 32.88 287.747 32.88C290.867 32.88 293.507 33.48 295.667 34.68C297.827 35.76 299.507 37.38 300.707 39.54C302.027 41.58 302.987 44.1 303.587 47.1C304.187 50.1 304.487 53.46 304.487 57.18V129H285.227V60.96C285.227 59.04 285.107 57.42 284.867 56.1C284.747 54.78 284.447 53.7 283.967 52.86C283.607 52.02 283.067 51.42 282.347 51.06C281.747 50.7 280.967 50.52 280.007 50.52C278.807 50.52 277.847 50.7 277.127 51.06C276.407 51.42 275.807 52.08 275.327 53.04C274.847 54 274.487 55.2 274.247 56.64C274.127 57.96 274.067 59.58 274.067 61.5V129H254.807V60.96C254.807 59.04 254.747 57.48 254.627 56.28C254.507 54.96 254.207 53.88 253.727 53.04C253.367 52.2 252.827 51.6 252.107 51.24C251.387 50.76 250.607 50.52 249.767 50.52C248.567 50.52 247.607 50.76 246.887 51.24C246.167 51.6 245.567 52.2 245.087 53.04C244.607 53.88 244.247 54.96 244.007 56.28C243.887 57.6 243.827 59.22 243.827 61.14V129ZM328.8 130.08C325.68 130.08 323.04 129.54 320.88 128.46C318.72 127.26 316.98 125.7 315.66 123.78C314.34 121.74 313.38 119.34 312.78 116.58C312.3 113.82 312.06 110.88 312.06 107.76V97.32C312.06 93.36 312.66 90.24 313.86 87.96C315.06 85.56 316.62 83.64 318.54 82.2C320.58 80.76 322.86 79.56 325.38 78.6C327.9 77.64 330.42 76.62 332.94 75.54C334.62 74.82 336.06 74.16 337.26 73.56C338.58 72.96 339.66 72.3 340.5 71.58C341.34 70.86 342 69.96 342.48 68.88C342.96 67.8 343.2 66.42 343.2 64.74V57.18C343.2 55.74 343.08 54.54 342.84 53.58C342.72 52.62 342.42 51.84 341.94 51.24C341.46 50.52 340.92 50.04 340.32 49.8C339.72 49.56 338.88 49.44 337.8 49.44C336.84 49.44 336 49.56 335.28 49.8C334.56 50.04 333.9 50.52 333.3 51.24C332.82 51.96 332.46 52.86 332.22 53.94C331.98 55.02 331.86 56.34 331.86 57.9V68.34H313.32V58.08C313.32 54.12 313.86 50.58 314.94 47.46C316.02 44.22 317.58 41.52 319.62 39.36C321.66 37.08 324.24 35.4 327.36 34.32C330.48 33.12 334.08 32.52 338.16 32.52C342.72 32.52 346.5 33.12 349.5 34.32C352.62 35.4 355.14 37.08 357.06 39.36C358.98 41.52 360.36 44.22 361.2 47.46C362.04 50.58 362.46 54.18 362.46 58.26V113.34C362.46 115.02 362.58 116.22 362.82 116.94C363.06 117.66 363.66 118.02 364.62 118.02C364.86 118.02 365.04 118.02 365.16 118.02C365.4 118.02 365.64 118.02 365.88 118.02V129C364.32 129.12 362.82 129.18 361.38 129.18C359.94 129.3 358.44 129.36 356.88 129.36C354.6 129.36 352.68 129.18 351.12 128.82C349.56 128.46 348.3 127.86 347.34 127.02C346.38 126.18 345.66 125.1 345.18 123.78C344.7 122.34 344.34 120.66 344.1 118.74C343.62 120.3 342.9 121.8 341.94 123.24C341.1 124.56 340.08 125.76 338.88 126.84C337.68 127.8 336.18 128.58 334.38 129.18C332.7 129.78 330.84 130.08 328.8 130.08ZM336.72 113.16C337.8 113.16 338.76 112.98 339.6 112.62C340.44 112.14 341.1 111.48 341.58 110.64C342.18 109.8 342.6 108.72 342.84 107.4C343.08 106.08 343.2 104.58 343.2 102.9V82.56C342.84 82.92 342.42 83.22 341.94 83.46C341.58 83.7 341.16 84 340.68 84.36C340.32 84.6 339.84 84.84 339.24 85.08C338.76 85.2 338.28 85.38 337.8 85.62C336.96 85.86 336.12 86.16 335.28 86.52C334.56 86.88 333.9 87.36 333.3 87.96C332.82 88.44 332.4 89.16 332.04 90.12C331.68 91.08 331.5 92.28 331.5 93.72V104.88C331.5 106.32 331.56 107.58 331.68 108.66C331.92 109.74 332.22 110.64 332.58 111.36C333.06 111.96 333.6 112.44 334.2 112.8C334.92 113.04 335.76 113.16 336.72 113.16ZM398.135 130.08C394.895 130.08 391.955 129.72 389.315 129C386.795 128.16 384.695 126.9 383.015 125.22C381.335 123.54 380.075 121.38 379.235 118.74C378.395 115.98 377.975 112.62 377.975 108.66V52.68H368.795V34.14H377.975V12.9H397.055V34.14H410.375V52.68H397.055V104.52C397.055 105.84 397.175 106.98 397.415 107.94C397.775 108.9 398.195 109.62 398.675 110.1C399.275 110.58 400.055 110.94 401.015 111.18C401.975 111.42 403.055 111.54 404.255 111.54C405.095 111.54 406.055 111.48 407.135 111.36C408.335 111.24 409.535 111.06 410.735 110.82V128.46C409.295 128.94 407.495 129.3 405.335 129.54C403.175 129.9 400.775 130.08 398.135 130.08ZM437.371 129H418.111V34.14H437.371V129ZM427.831 22.8C426.031 22.8 424.471 22.56 423.151 22.08C421.831 21.48 420.691 20.7 419.731 19.74C418.771 18.66 418.051 17.46 417.571 16.14C417.091 14.82 416.851 13.32 416.851 11.64C416.851 9.96 417.091 8.52 417.571 7.31999C418.051 5.99999 418.711 4.85999 419.551 3.89999C420.511 2.81999 421.651 2.03999 422.971 1.56C424.411 0.959993 426.031 0.659989 427.831 0.659989C429.511 0.659989 431.011 0.959993 432.331 1.56C433.771 2.03999 434.971 2.81999 435.931 3.89999C436.891 4.85999 437.611 5.99999 438.091 7.31999C438.571 8.52 438.811 9.96 438.811 11.64C438.811 13.32 438.571 14.82 438.091 16.14C437.611 17.46 436.891 18.66 435.931 19.74C434.971 20.7 433.831 21.48 432.511 22.08C431.191 22.56 429.631 22.8 427.831 22.8ZM473.01 130.62C468.57 130.62 464.67 130.02 461.31 128.82C458.07 127.5 455.31 125.64 453.03 123.24C450.87 120.72 449.25 117.66 448.17 114.06C447.09 110.34 446.55 106.14 446.55 101.46V60.78C446.55 56.7 447.03 52.92 447.99 49.44C449.07 45.96 450.63 42.96 452.67 40.44C454.71 37.92 457.35 36 460.59 34.68C463.95 33.24 467.97 32.52 472.65 32.52C476.97 32.52 480.69 33.18 483.81 34.5C486.93 35.7 489.51 37.5 491.55 39.9C493.59 42.3 495.09 45.12 496.05 48.36C497.01 51.6 497.49 55.14 497.49 58.98V69.96H478.77V60.24C478.77 58.32 478.65 56.76 478.41 55.56C478.17 54.24 477.81 53.16 477.33 52.32C476.85 51.48 476.19 50.88 475.35 50.52C474.63 50.16 473.73 49.98 472.65 49.98C471.45 49.98 470.43 50.22 469.59 50.7C468.75 51.18 468.03 51.9 467.43 52.86C466.95 53.82 466.59 55.02 466.35 56.46C466.11 57.9 465.99 59.7 465.99 61.86V100.38C465.99 102.42 466.11 104.28 466.35 105.96C466.59 107.52 466.95 108.84 467.43 109.92C467.91 111 468.57 111.84 469.41 112.44C470.37 112.92 471.51 113.16 472.83 113.16C473.91 113.16 474.81 112.92 475.53 112.44C476.37 111.96 476.97 111.3 477.33 110.46C477.81 109.62 478.17 108.48 478.41 107.04C478.65 105.6 478.77 103.92 478.77 102V92.64H497.67V103.44C497.67 107.76 497.13 111.66 496.05 115.14C494.97 118.5 493.35 121.32 491.19 123.6C489.15 125.88 486.57 127.62 483.45 128.82C480.45 130.02 476.97 130.62 473.01 130.62ZM520.929 130.08C517.809 130.08 515.169 129.54 513.009 128.46C510.849 127.26 509.109 125.7 507.789 123.78C506.469 121.74 505.509 119.34 504.909 116.58C504.429 113.82 504.189 110.88 504.189 107.76V97.32C504.189 93.36 504.789 90.24 505.989 87.96C507.189 85.56 508.749 83.64 510.669 82.2C512.709 80.76 514.989 79.56 517.509 78.6C520.029 77.64 522.549 76.62 525.069 75.54C526.749 74.82 528.189 74.16 529.389 73.56C530.709 72.96 531.789 72.3 532.629 71.58C533.469 70.86 534.129 69.96 534.609 68.88C535.089 67.8 535.329 66.42 535.329 64.74V57.18C535.329 55.74 535.209 54.54 534.969 53.58C534.849 52.62 534.549 51.84 534.069 51.24C533.589 50.52 533.049 50.04 532.449 49.8C531.849 49.56 531.009 49.44 529.929 49.44C528.969 49.44 528.129 49.56 527.409 49.8C526.689 50.04 526.029 50.52 525.429 51.24C524.949 51.96 524.589 52.86 524.349 53.94C524.109 55.02 523.989 56.34 523.989 57.9V68.34H505.449V58.08C505.449 54.12 505.989 50.58 507.069 47.46C508.149 44.22 509.709 41.52 511.749 39.36C513.789 37.08 516.369 35.4 519.489 34.32C522.609 33.12 526.209 32.52 530.289 32.52C534.849 32.52 538.629 33.12 541.629 34.32C544.749 35.4 547.269 37.08 549.189 39.36C551.109 41.52 552.489 44.22 553.329 47.46C554.169 50.58 554.589 54.18 554.589 58.26V113.34C554.589 115.02 554.709 116.22 554.949 116.94C555.189 117.66 555.789 118.02 556.749 118.02C556.989 118.02 557.169 118.02 557.289 118.02C557.529 118.02 557.769 118.02 558.009 118.02V129C556.449 129.12 554.949 129.18 553.509 129.18C552.069 129.3 550.569 129.36 549.009 129.36C546.729 129.36 544.809 129.18 543.249 128.82C541.689 128.46 540.429 127.86 539.469 127.02C538.509 126.18 537.789 125.1 537.309 123.78C536.829 122.34 536.469 120.66 536.229 118.74C535.749 120.3 535.029 121.8 534.069 123.24C533.229 124.56 532.209 125.76 531.009 126.84C529.809 127.8 528.309 128.58 526.509 129.18C524.829 129.78 522.969 130.08 520.929 130.08ZM528.849 113.16C529.929 113.16 530.889 112.98 531.729 112.62C532.569 112.14 533.229 111.48 533.709 110.64C534.309 109.8 534.729 108.72 534.969 107.4C535.209 106.08 535.329 104.58 535.329 102.9V82.56C534.969 82.92 534.549 83.22 534.069 83.46C533.709 83.7 533.289 84 532.809 84.36C532.449 84.6 531.969 84.84 531.369 85.08C530.889 85.2 530.409 85.38 529.929 85.62C529.089 85.86 528.249 86.16 527.409 86.52C526.689 86.88 526.029 87.36 525.429 87.96C524.949 88.44 524.529 89.16 524.169 90.12C523.809 91.08 523.629 92.28 523.629 93.72V104.88C523.629 106.32 523.689 107.58 523.809 108.66C524.049 109.74 524.349 110.64 524.709 111.36C525.189 111.96 525.729 112.44 526.329 112.8C527.049 113.04 527.889 113.16 528.849 113.16ZM610.365 129H590.385V2.99999H612.525L631.245 89.22H631.425L629.625 54.84V2.99999H649.605V129H627.645L608.745 44.94H608.565L610.365 76.98V129ZM685.529 130.62C681.209 130.62 677.369 130.02 674.009 128.82C670.769 127.5 668.009 125.64 665.729 123.24C663.449 120.72 661.769 117.66 660.689 114.06C659.609 110.34 659.069 106.14 659.069 101.46V60.6C659.069 56.64 659.549 52.98 660.509 49.62C661.589 46.14 663.149 43.14 665.189 40.62C667.229 37.98 669.929 36 673.289 34.68C676.649 33.24 680.609 32.52 685.169 32.52C689.369 32.52 693.029 33.18 696.149 34.5C699.389 35.82 702.029 37.74 704.069 40.26C706.229 42.66 707.789 45.6 708.749 49.08C709.829 52.44 710.369 56.16 710.369 60.24V87.06H675.089V73.92H691.469V60.06C691.469 58.02 691.349 56.34 691.109 55.02C690.869 53.7 690.449 52.62 689.849 51.78C689.369 50.82 688.709 50.16 687.869 49.8C687.149 49.44 686.249 49.26 685.169 49.26C683.849 49.26 682.769 49.5 681.929 49.98C681.089 50.34 680.429 51 679.949 51.96C679.469 52.92 679.109 54.12 678.869 55.56C678.629 56.88 678.509 58.56 678.509 60.6V102C678.509 104.04 678.569 105.84 678.689 107.4C678.929 108.96 679.289 110.28 679.769 111.36C680.369 112.32 681.149 113.1 682.109 113.7C683.069 114.18 684.209 114.42 685.529 114.42C686.609 114.42 687.509 114.24 688.229 113.88C689.069 113.4 689.669 112.8 690.029 112.08C690.509 111.24 690.809 110.22 690.929 109.02C691.169 107.82 691.349 106.44 691.469 104.88V96.42H710.009V105.06C710.009 109.14 709.469 112.74 708.389 115.86C707.309 118.98 705.749 121.68 703.709 123.96C701.669 126.12 699.149 127.8 696.149 129C693.149 130.08 689.609 130.62 685.529 130.62ZM734.524 129H714.724L729.304 80.4L716.164 34.14H736.144L742.264 62.94L748.924 34.14H768.184L754.504 80.4L769.624 129H749.284L741.544 98.94L734.524 129ZM801.202 130.08C797.962 130.08 795.022 129.72 792.382 129C789.862 128.16 787.762 126.9 786.082 125.22C784.402 123.54 783.142 121.38 782.302 118.74C781.462 115.98 781.042 112.62 781.042 108.66V52.68H771.862V34.14H781.042V12.9H800.122V34.14H813.442V52.68H800.122V104.52C800.122 105.84 800.242 106.98 800.482 107.94C800.842 108.9 801.262 109.62 801.742 110.1C802.342 110.58 803.122 110.94 804.082 111.18C805.042 111.42 806.122 111.54 807.322 111.54C808.162 111.54 809.122 111.48 810.202 111.36C811.402 111.24 812.602 111.06 813.802 110.82V128.46C812.362 128.94 810.562 129.3 808.402 129.54C806.242 129.9 803.842 130.08 801.202 130.08Z" fill="black"/>
<path d="M21.18 129H0.3V2.99999H27.3C32.46 2.99999 36.78 3.59999 40.26 4.79999C43.86 5.87999 46.8 7.55999 49.08 9.83999C51.36 12.12 52.98 14.94 53.94 18.3C55.02 21.66 55.56 25.62 55.56 30.18V55.38C55.56 59.94 55.02 64.02 53.94 67.62C52.98 71.1 51.36 73.98 49.08 76.26C46.92 78.54 44.1 80.28 40.62 81.48C37.14 82.68 32.88 83.28 27.84 83.28H21.18V129ZM21.18 21.9V64.38H25.86C27.42 64.38 28.74 64.2 29.82 63.84C30.9 63.48 31.74 62.94 32.34 62.22C33.06 61.5 33.6 60.54 33.96 59.34C34.32 58.02 34.5 56.46 34.5 54.66V32.34C34.5 30.42 34.32 28.8 33.96 27.48C33.72 26.16 33.24 25.08 32.52 24.24C31.8 23.4 30.9 22.8 29.82 22.44C28.74 22.08 27.42 21.9 25.86 21.9H21.18ZM82.8117 129H63.5517V34.14H82.0917V45.12C82.6917 43.32 83.4117 41.7 84.2517 40.26C85.0917 38.7 86.0517 37.44 87.1317 36.48C88.3317 35.4 89.6517 34.62 91.0917 34.14C92.5317 33.54 94.2117 33.24 96.1317 33.24C96.7317 33.24 97.2117 33.3 97.5717 33.42C98.0517 33.42 98.5317 33.42 99.0117 33.42V52.14H95.9517C93.5517 52.14 91.4517 52.32 89.6517 52.68C87.9717 53.04 86.5917 53.76 85.5117 54.84C84.5517 55.92 83.8317 57.3 83.3517 58.98C82.9917 60.66 82.8117 62.88 82.8117 65.64V129ZM120.323 130.08C117.203 130.08 114.563 129.54 112.403 128.46C110.243 127.26 108.503 125.7 107.183 123.78C105.863 121.74 104.903 119.34 104.303 116.58C103.823 113.82 103.583 110.88 103.583 107.76V97.32C103.583 93.36 104.183 90.24 105.383 87.96C106.583 85.56 108.143 83.64 110.063 82.2C112.103 80.76 114.383 79.56 116.903 78.6C119.423 77.64 121.943 76.62 124.463 75.54C126.143 74.82 127.583 74.16 128.783 73.56C130.103 72.96 131.183 72.3 132.023 71.58C132.863 70.86 133.523 69.96 134.003 68.88C134.483 67.8 134.723 66.42 134.723 64.74V57.18C134.723 55.74 134.603 54.54 134.363 53.58C134.243 52.62 133.943 51.84 133.463 51.24C132.983 50.52 132.443 50.04 131.843 49.8C131.243 49.56 130.403 49.44 129.323 49.44C128.363 49.44 127.523 49.56 126.803 49.8C126.083 50.04 125.423 50.52 124.823 51.24C124.343 51.96 123.983 52.86 123.743 53.94C123.503 55.02 123.383 56.34 123.383 57.9V68.34H104.843V58.08C104.843 54.12 105.383 50.58 106.463 47.46C107.543 44.22 109.103 41.52 111.143 39.36C113.183 37.08 115.763 35.4 118.883 34.32C122.003 33.12 125.603 32.52 129.683 32.52C134.243 32.52 138.023 33.12 141.023 34.32C144.143 35.4 146.663 37.08 148.583 39.36C150.503 41.52 151.883 44.22 152.723 47.46C153.563 50.58 153.983 54.18 153.983 58.26V113.34C153.983 115.02 154.103 116.22 154.343 116.94C154.583 117.66 155.183 118.02 156.143 118.02C156.383 118.02 156.563 118.02 156.683 118.02C156.923 118.02 157.163 118.02 157.403 118.02V129C155.843 129.12 154.343 129.18 152.903 129.18C151.463 129.3 149.963 129.36 148.403 129.36C146.123 129.36 144.203 129.18 142.643 128.82C141.083 128.46 139.823 127.86 138.863 127.02C137.903 126.18 137.183 125.1 136.703 123.78C136.223 122.34 135.863 120.66 135.623 118.74C135.143 120.3 134.423 121.8 133.463 123.24C132.623 124.56 131.603 125.76 130.403 126.84C129.203 127.8 127.703 128.58 125.903 129.18C124.223 129.78 122.363 130.08 120.323 130.08ZM128.243 113.16C129.323 113.16 130.283 112.98 131.123 112.62C131.963 112.14 132.623 111.48 133.103 110.64C133.703 109.8 134.123 108.72 134.363 107.4C134.603 106.08 134.723 104.58 134.723 102.9V82.56C134.363 82.92 133.943 83.22 133.463 83.46C133.103 83.7 132.683 84 132.203 84.36C131.843 84.6 131.363 84.84 130.763 85.08C130.283 85.2 129.803 85.38 129.323 85.62C128.483 85.86 127.643 86.16 126.803 86.52C126.083 86.88 125.423 87.36 124.823 87.96C124.343 88.44 123.923 89.16 123.563 90.12C123.203 91.08 123.023 92.28 123.023 93.72V104.88C123.023 106.32 123.083 107.58 123.203 108.66C123.443 109.74 123.743 110.64 124.103 111.36C124.583 111.96 125.123 112.44 125.723 112.8C126.443 113.04 127.283 113.16 128.243 113.16ZM188.759 163.38C184.679 163.38 181.079 162.84 177.959 161.76C174.839 160.68 172.259 159.12 170.219 157.08C168.299 155.04 166.859 152.52 165.899 149.52C164.939 146.52 164.459 143.16 164.459 139.44V136.56H183.179V139.8C183.179 141.12 183.239 142.2 183.359 143.04C183.599 144 183.959 144.78 184.439 145.38C185.039 146.1 185.699 146.58 186.419 146.82C187.139 147.06 187.979 147.18 188.939 147.18C190.139 147.18 191.099 147 191.819 146.64C192.659 146.28 193.319 145.68 193.799 144.84C194.279 144 194.639 142.92 194.879 141.6C195.119 140.4 195.239 138.84 195.239 136.92V121.62C194.639 122.94 193.919 124.08 193.079 125.04C192.239 126 191.219 126.84 190.019 127.56C188.819 128.28 187.439 128.82 185.879 129.18C184.439 129.54 182.819 129.72 181.019 129.72C177.539 129.72 174.599 129.12 172.199 127.92C169.919 126.72 168.059 125.04 166.619 122.88C165.299 120.6 164.339 117.84 163.739 114.6C163.139 111.36 162.839 107.7 162.839 103.62V60.06C162.839 55.5 163.199 51.54 163.919 48.18C164.639 44.82 165.719 42 167.159 39.72C168.599 37.44 170.459 35.76 172.739 34.68C175.139 33.48 177.959 32.88 181.199 32.88C182.999 32.88 184.679 33.06 186.239 33.42C187.799 33.78 189.179 34.38 190.379 35.22C191.579 36.06 192.599 37.08 193.439 38.28C194.399 39.36 195.239 40.62 195.959 42.06V34.14H214.499V136.02C214.499 140.22 214.019 143.94 213.059 147.18C212.099 150.54 210.599 153.42 208.559 155.82C206.519 158.22 203.879 160.08 200.639 161.4C197.399 162.72 193.439 163.38 188.759 163.38ZM188.579 112.62C189.899 112.62 190.979 112.38 191.819 111.9C192.659 111.42 193.319 110.7 193.799 109.74C194.399 108.66 194.759 107.4 194.879 105.96C195.119 104.4 195.239 102.66 195.239 100.74V62.4C195.239 60.36 195.119 58.62 194.879 57.18C194.759 55.62 194.399 54.36 193.799 53.4C193.319 52.32 192.599 51.54 191.639 51.06C190.799 50.58 189.779 50.34 188.579 50.34C187.259 50.34 186.179 50.64 185.339 51.24C184.619 51.72 184.019 52.5 183.539 53.58C183.059 54.66 182.699 55.98 182.459 57.54C182.339 59.1 182.279 60.9 182.279 62.94V100.74C182.279 102.78 182.339 104.58 182.459 106.14C182.699 107.58 183.059 108.78 183.539 109.74C184.139 110.7 184.799 111.42 185.519 111.9C186.359 112.38 187.379 112.62 188.579 112.62ZM243.827 129H224.567V34.14H243.107V42.06C243.707 40.62 244.427 39.36 245.267 38.28C246.227 37.2 247.307 36.24 248.507 35.4C249.707 34.56 251.087 33.96 252.647 33.6C254.327 33.12 256.127 32.88 258.047 32.88C259.847 32.88 261.527 33.12 263.087 33.6C264.647 34.08 265.967 34.8 267.047 35.76C268.247 36.6 269.267 37.62 270.107 38.82C271.067 40.02 271.787 41.46 272.267 43.14C272.987 41.46 273.827 40.02 274.787 38.82C275.867 37.5 277.007 36.42 278.207 35.58C279.527 34.74 280.967 34.08 282.527 33.6C284.207 33.12 285.947 32.88 287.747 32.88C290.867 32.88 293.507 33.48 295.667 34.68C297.827 35.76 299.507 37.38 300.707 39.54C302.027 41.58 302.987 44.1 303.587 47.1C304.187 50.1 304.487 53.46 304.487 57.18V129H285.227V60.96C285.227 59.04 285.107 57.42 284.867 56.1C284.747 54.78 284.447 53.7 283.967 52.86C283.607 52.02 283.067 51.42 282.347 51.06C281.747 50.7 280.967 50.52 280.007 50.52C278.807 50.52 277.847 50.7 277.127 51.06C276.407 51.42 275.807 52.08 275.327 53.04C274.847 54 274.487 55.2 274.247 56.64C274.127 57.96 274.067 59.58 274.067 61.5V129H254.807V60.96C254.807 59.04 254.747 57.48 254.627 56.28C254.507 54.96 254.207 53.88 253.727 53.04C253.367 52.2 252.827 51.6 252.107 51.24C251.387 50.76 250.607 50.52 249.767 50.52C248.567 50.52 247.607 50.76 246.887 51.24C246.167 51.6 245.567 52.2 245.087 53.04C244.607 53.88 244.247 54.96 244.007 56.28C243.887 57.6 243.827 59.22 243.827 61.14V129ZM328.8 130.08C325.68 130.08 323.04 129.54 320.88 128.46C318.72 127.26 316.98 125.7 315.66 123.78C314.34 121.74 313.38 119.34 312.78 116.58C312.3 113.82 312.06 110.88 312.06 107.76V97.32C312.06 93.36 312.66 90.24 313.86 87.96C315.06 85.56 316.62 83.64 318.54 82.2C320.58 80.76 322.86 79.56 325.38 78.6C327.9 77.64 330.42 76.62 332.94 75.54C334.62 74.82 336.06 74.16 337.26 73.56C338.58 72.96 339.66 72.3 340.5 71.58C341.34 70.86 342 69.96 342.48 68.88C342.96 67.8 343.2 66.42 343.2 64.74V57.18C343.2 55.74 343.08 54.54 342.84 53.58C342.72 52.62 342.42 51.84 341.94 51.24C341.46 50.52 340.92 50.04 340.32 49.8C339.72 49.56 338.88 49.44 337.8 49.44C336.84 49.44 336 49.56 335.28 49.8C334.56 50.04 333.9 50.52 333.3 51.24C332.82 51.96 332.46 52.86 332.22 53.94C331.98 55.02 331.86 56.34 331.86 57.9V68.34H313.32V58.08C313.32 54.12 313.86 50.58 314.94 47.46C316.02 44.22 317.58 41.52 319.62 39.36C321.66 37.08 324.24 35.4 327.36 34.32C330.48 33.12 334.08 32.52 338.16 32.52C342.72 32.52 346.5 33.12 349.5 34.32C352.62 35.4 355.14 37.08 357.06 39.36C358.98 41.52 360.36 44.22 361.2 47.46C362.04 50.58 362.46 54.18 362.46 58.26V113.34C362.46 115.02 362.58 116.22 362.82 116.94C363.06 117.66 363.66 118.02 364.62 118.02C364.86 118.02 365.04 118.02 365.16 118.02C365.4 118.02 365.64 118.02 365.88 118.02V129C364.32 129.12 362.82 129.18 361.38 129.18C359.94 129.3 358.44 129.36 356.88 129.36C354.6 129.36 352.68 129.18 351.12 128.82C349.56 128.46 348.3 127.86 347.34 127.02C346.38 126.18 345.66 125.1 345.18 123.78C344.7 122.34 344.34 120.66 344.1 118.74C343.62 120.3 342.9 121.8 341.94 123.24C341.1 124.56 340.08 125.76 338.88 126.84C337.68 127.8 336.18 128.58 334.38 129.18C332.7 129.78 330.84 130.08 328.8 130.08ZM336.72 113.16C337.8 113.16 338.76 112.98 339.6 112.62C340.44 112.14 341.1 111.48 341.58 110.64C342.18 109.8 342.6 108.72 342.84 107.4C343.08 106.08 343.2 104.58 343.2 102.9V82.56C342.84 82.92 342.42 83.22 341.94 83.46C341.58 83.7 341.16 84 340.68 84.36C340.32 84.6 339.84 84.84 339.24 85.08C338.76 85.2 338.28 85.38 337.8 85.62C336.96 85.86 336.12 86.16 335.28 86.52C334.56 86.88 333.9 87.36 333.3 87.96C332.82 88.44 332.4 89.16 332.04 90.12C331.68 91.08 331.5 92.28 331.5 93.72V104.88C331.5 106.32 331.56 107.58 331.68 108.66C331.92 109.74 332.22 110.64 332.58 111.36C333.06 111.96 333.6 112.44 334.2 112.8C334.92 113.04 335.76 113.16 336.72 113.16ZM398.135 130.08C394.895 130.08 391.955 129.72 389.315 129C386.795 128.16 384.695 126.9 383.015 125.22C381.335 123.54 380.075 121.38 379.235 118.74C378.395 115.98 377.975 112.62 377.975 108.66V52.68H368.795V34.14H377.975V12.9H397.055V34.14H410.375V52.68H397.055V104.52C397.055 105.84 397.175 106.98 397.415 107.94C397.775 108.9 398.195 109.62 398.675 110.1C399.275 110.58 400.055 110.94 401.015 111.18C401.975 111.42 403.055 111.54 404.255 111.54C405.095 111.54 406.055 111.48 407.135 111.36C408.335 111.24 409.535 111.06 410.735 110.82V128.46C409.295 128.94 407.495 129.3 405.335 129.54C403.175 129.9 400.775 130.08 398.135 130.08ZM437.371 129H418.111V34.14H437.371V129ZM427.831 22.8C426.031 22.8 424.471 22.56 423.151 22.08C421.831 21.48 420.691 20.7 419.731 19.74C418.771 18.66 418.051 17.46 417.571 16.14C417.091 14.82 416.851 13.32 416.851 11.64C416.851 9.96 417.091 8.52 417.571 7.31999C418.051 5.99999 418.711 4.85999 419.551 3.89999C420.511 2.81999 421.651 2.03999 422.971 1.56C424.411 0.959993 426.031 0.659989 427.831 0.659989C429.511 0.659989 431.011 0.959993 432.331 1.56C433.771 2.03999 434.971 2.81999 435.931 3.89999C436.891 4.85999 437.611 5.99999 438.091 7.31999C438.571 8.52 438.811 9.96 438.811 11.64C438.811 13.32 438.571 14.82 438.091 16.14C437.611 17.46 436.891 18.66 435.931 19.74C434.971 20.7 433.831 21.48 432.511 22.08C431.191 22.56 429.631 22.8 427.831 22.8ZM473.01 130.62C468.57 130.62 464.67 130.02 461.31 128.82C458.07 127.5 455.31 125.64 453.03 123.24C450.87 120.72 449.25 117.66 448.17 114.06C447.09 110.34 446.55 106.14 446.55 101.46V60.78C446.55 56.7 447.03 52.92 447.99 49.44C449.07 45.96 450.63 42.96 452.67 40.44C454.71 37.92 457.35 36 460.59 34.68C463.95 33.24 467.97 32.52 472.65 32.52C476.97 32.52 480.69 33.18 483.81 34.5C486.93 35.7 489.51 37.5 491.55 39.9C493.59 42.3 495.09 45.12 496.05 48.36C497.01 51.6 497.49 55.14 497.49 58.98V69.96H478.77V60.24C478.77 58.32 478.65 56.76 478.41 55.56C478.17 54.24 477.81 53.16 477.33 52.32C476.85 51.48 476.19 50.88 475.35 50.52C474.63 50.16 473.73 49.98 472.65 49.98C471.45 49.98 470.43 50.22 469.59 50.7C468.75 51.18 468.03 51.9 467.43 52.86C466.95 53.82 466.59 55.02 466.35 56.46C466.11 57.9 465.99 59.7 465.99 61.86V100.38C465.99 102.42 466.11 104.28 466.35 105.96C466.59 107.52 466.95 108.84 467.43 109.92C467.91 111 468.57 111.84 469.41 112.44C470.37 112.92 471.51 113.16 472.83 113.16C473.91 113.16 474.81 112.92 475.53 112.44C476.37 111.96 476.97 111.3 477.33 110.46C477.81 109.62 478.17 108.48 478.41 107.04C478.65 105.6 478.77 103.92 478.77 102V92.64H497.67V103.44C497.67 107.76 497.13 111.66 496.05 115.14C494.97 118.5 493.35 121.32 491.19 123.6C489.15 125.88 486.57 127.62 483.45 128.82C480.45 130.02 476.97 130.62 473.01 130.62ZM520.929 130.08C517.809 130.08 515.169 129.54 513.009 128.46C510.849 127.26 509.109 125.7 507.789 123.78C506.469 121.74 505.509 119.34 504.909 116.58C504.429 113.82 504.189 110.88 504.189 107.76V97.32C504.189 93.36 504.789 90.24 505.989 87.96C507.189 85.56 508.749 83.64 510.669 82.2C512.709 80.76 514.989 79.56 517.509 78.6C520.029 77.64 522.549 76.62 525.069 75.54C526.749 74.82 528.189 74.16 529.389 73.56C530.709 72.96 531.789 72.3 532.629 71.58C533.469 70.86 534.129 69.96 534.609 68.88C535.089 67.8 535.329 66.42 535.329 64.74V57.18C535.329 55.74 535.209 54.54 534.969 53.58C534.849 52.62 534.549 51.84 534.069 51.24C533.589 50.52 533.049 50.04 532.449 49.8C531.849 49.56 531.009 49.44 529.929 49.44C528.969 49.44 528.129 49.56 527.409 49.8C526.689 50.04 526.029 50.52 525.429 51.24C524.949 51.96 524.589 52.86 524.349 53.94C524.109 55.02 523.989 56.34 523.989 57.9V68.34H505.449V58.08C505.449 54.12 505.989 50.58 507.069 47.46C508.149 44.22 509.709 41.52 511.749 39.36C513.789 37.08 516.369 35.4 519.489 34.32C522.609 33.12 526.209 32.52 530.289 32.52C534.849 32.52 538.629 33.12 541.629 34.32C544.749 35.4 547.269 37.08 549.189 39.36C551.109 41.52 552.489 44.22 553.329 47.46C554.169 50.58 554.589 54.18 554.589 58.26V113.34C554.589 115.02 554.709 116.22 554.949 116.94C555.189 117.66 555.789 118.02 556.749 118.02C556.989 118.02 557.169 118.02 557.289 118.02C557.529 118.02 557.769 118.02 558.009 118.02V129C556.449 129.12 554.949 129.18 553.509 129.18C552.069 129.3 550.569 129.36 549.009 129.36C546.729 129.36 544.809 129.18 543.249 128.82C541.689 128.46 540.429 127.86 539.469 127.02C538.509 126.18 537.789 125.1 537.309 123.78C536.829 122.34 536.469 120.66 536.229 118.74C535.749 120.3 535.029 121.8 534.069 123.24C533.229 124.56 532.209 125.76 531.009 126.84C529.809 127.8 528.309 128.58 526.509 129.18C524.829 129.78 522.969 130.08 520.929 130.08ZM528.849 113.16C529.929 113.16 530.889 112.98 531.729 112.62C532.569 112.14 533.229 111.48 533.709 110.64C534.309 109.8 534.729 108.72 534.969 107.4C535.209 106.08 535.329 104.58 535.329 102.9V82.56C534.969 82.92 534.549 83.22 534.069 83.46C533.709 83.7 533.289 84 532.809 84.36C532.449 84.6 531.969 84.84 531.369 85.08C530.889 85.2 530.409 85.38 529.929 85.62C529.089 85.86 528.249 86.16 527.409 86.52C526.689 86.88 526.029 87.36 525.429 87.96C524.949 88.44 524.529 89.16 524.169 90.12C523.809 91.08 523.629 92.28 523.629 93.72V104.88C523.629 106.32 523.689 107.58 523.809 108.66C524.049 109.74 524.349 110.64 524.709 111.36C525.189 111.96 525.729 112.44 526.329 112.8C527.049 113.04 527.889 113.16 528.849 113.16ZM610.365 129H590.385V2.99999H612.525L631.245 89.22H631.425L629.625 54.84V2.99999H649.605V129H627.645L608.745 44.94H608.565L610.365 76.98V129ZM685.529 130.62C681.209 130.62 677.369 130.02 674.009 128.82C670.769 127.5 668.009 125.64 665.729 123.24C663.449 120.72 661.769 117.66 660.689 114.06C659.609 110.34 659.069 106.14 659.069 101.46V60.6C659.069 56.64 659.549 52.98 660.509 49.62C661.589 46.14 663.149 43.14 665.189 40.62C667.229 37.98 669.929 36 673.289 34.68C676.649 33.24 680.609 32.52 685.169 32.52C689.369 32.52 693.029 33.18 696.149 34.5C699.389 35.82 702.029 37.74 704.069 40.26C706.229 42.66 707.789 45.6 708.749 49.08C709.829 52.44 710.369 56.16 710.369 60.24V87.06H675.089V73.92H691.469V60.06C691.469 58.02 691.349 56.34 691.109 55.02C690.869 53.7 690.449 52.62 689.849 51.78C689.369 50.82 688.709 50.16 687.869 49.8C687.149 49.44 686.249 49.26 685.169 49.26C683.849 49.26 682.769 49.5 681.929 49.98C681.089 50.34 680.429 51 679.949 51.96C679.469 52.92 679.109 54.12 678.869 55.56C678.629 56.88 678.509 58.56 678.509 60.6V102C678.509 104.04 678.569 105.84 678.689 107.4C678.929 108.96 679.289 110.28 679.769 111.36C680.369 112.32 681.149 113.1 682.109 113.7C683.069 114.18 684.209 114.42 685.529 114.42C686.609 114.42 687.509 114.24 688.229 113.88C689.069 113.4 689.669 112.8 690.029 112.08C690.509 111.24 690.809 110.22 690.929 109.02C691.169 107.82 691.349 106.44 691.469 104.88V96.42H710.009V105.06C710.009 109.14 709.469 112.74 708.389 115.86C707.309 118.98 705.749 121.68 703.709 123.96C701.669 126.12 699.149 127.8 696.149 129C693.149 130.08 689.609 130.62 685.529 130.62ZM734.524 129H714.724L729.304 80.4L716.164 34.14H736.144L742.264 62.94L748.924 34.14H768.184L754.504 80.4L769.624 129H749.284L741.544 98.94L734.524 129ZM801.202 130.08C797.962 130.08 795.022 129.72 792.382 129C789.862 128.16 787.762 126.9 786.082 125.22C784.402 123.54 783.142 121.38 782.302 118.74C781.462 115.98 781.042 112.62 781.042 108.66V52.68H771.862V34.14H781.042V12.9H800.122V34.14H813.442V52.68H800.122V104.52C800.122 105.84 800.242 106.98 800.482 107.94C800.842 108.9 801.262 109.62 801.742 110.1C802.342 110.58 803.122 110.94 804.082 111.18C805.042 111.42 806.122 111.54 807.322 111.54C808.162 111.54 809.122 111.48 810.202 111.36C811.402 111.24 812.602 111.06 813.802 110.82V128.46C812.362 128.94 810.562 129.3 808.402 129.54C806.242 129.9 803.842 130.08 801.202 130.08Z" fill="black" fill-opacity="0.2"/>
</svg>
