<svg width="44" height="44" viewBox="0 0 44 44" fill="none" xmlns="http://www.w3.org/2000/svg">
<g clip-path="url(#clip0_3028_303)">
<path d="M39.48 0H3.86C1.72818 0 0 1.72818 0 3.86V39.48C0 41.6118 1.72818 43.34 3.86 43.34H39.48C41.6118 43.34 43.34 41.6118 43.34 39.48V3.86C43.34 1.72818 41.6118 0 39.48 0Z" fill="black"/>
<path d="M28.08 2.78027H15.26C8.51112 2.78027 3.04004 8.25135 3.04004 15.0003V27.8203C3.04004 34.5692 8.51112 40.0403 15.26 40.0403H28.08C34.829 40.0403 40.3 34.5692 40.3 27.8203V15.0003C40.3 8.25135 34.829 2.78027 28.08 2.78027Z" fill="white"/>
</g>
<defs>
<clipPath id="clip0_3028_303">
<rect width="43.34" height="43.34" fill="white"/>
</clipPath>
</defs>
</svg>
