<svg width="49" height="49" viewBox="0 0 49 49" fill="none" xmlns="http://www.w3.org/2000/svg">
<g clip-path="url(#clip0_3028_286)">
<path d="M24.03 48.06C37.3014 48.06 48.06 37.3014 48.06 24.03C48.06 10.7586 37.3014 0 24.03 0C10.7586 0 0 10.7586 0 24.03C0 37.3014 10.7586 48.06 24.03 48.06Z" fill="black"/>
<path d="M32.4402 17.1601C32.1402 20.3301 30.8402 28.0201 30.1802 31.5801C29.9002 33.0801 29.3402 33.5701 28.8202 33.6301C27.6502 33.7401 26.7802 32.8701 25.6602 32.1301C23.9102 30.9801 22.9102 30.2401 21.2102 29.1301C19.2302 27.8301 20.5102 27.1101 21.6402 25.9501C21.9402 25.6501 27.0602 20.9801 27.1602 20.5501C27.1702 20.4901 27.1702 20.4201 27.1602 20.3601C27.1402 20.3001 27.1002 20.2401 27.0602 20.1901C26.9402 20.0901 26.7702 20.1301 26.6402 20.1501C26.4602 20.1901 23.6602 22.0501 18.2202 25.7401C17.4102 26.2801 16.6902 26.5701 16.0602 26.5501C15.3402 26.5301 13.9902 26.1501 12.9702 25.8001C11.7102 25.4001 10.7302 25.1901 10.8102 24.4801C10.8602 24.1201 11.3502 23.7601 12.2902 23.3701C18.1202 20.8301 22.0002 19.1501 23.9302 18.3501C29.4802 16.0201 30.6102 15.6201 31.3702 15.6201C31.5402 15.6201 31.9102 15.6601 32.1502 15.8601C32.3502 16.0201 32.4102 16.2401 32.4402 16.4001C32.4202 16.5201 32.4502 16.8801 32.4402 17.1601Z" fill="#ECECEC"/>
</g>
<defs>
<clipPath id="clip0_3028_286">
<rect width="48.06" height="48.06" fill="white"/>
</clipPath>
</defs>
</svg>
