<?xml version="1.0" encoding="UTF-8" standalone="no"?>
<!DOCTYPE svg PUBLIC "-//W3C//DTD SVG 1.1//EN" "http://www.w3.org/Graphics/SVG/1.1/DTD/svg11.dtd">
<svg width="100%" height="100%" viewBox="0 0 124 58" version="1.1" xmlns="http://www.w3.org/2000/svg" xmlns:xlink="http://www.w3.org/1999/xlink" xml:space="preserve" xmlns:serif="http://www.serif.com/" style="fill-rule:evenodd;clip-rule:evenodd;stroke-linejoin:round;stroke-miterlimit:2;">
    <g transform="matrix(1,0,0,1,-291,0)">
        <g id="Artboard1" transform="matrix(0.673913,0,0,1,291,0)">
            <rect x="0" y="0" width="184" height="58" style="fill:none;"/>
            <g transform="matrix(1.483871,0,0,1,-89.032258,0)">
                <path d="M64.423,56.56C64.019,56.56 63.649,56.459 63.312,56.257C63.043,56.122 62.807,55.853 62.605,55.449C62.403,54.978 62.235,54.372 62.1,53.631C62.033,52.823 61.999,51.813 61.999,50.601L61.999,37.37C61.999,35.956 62.067,34.71 62.201,33.633C62.336,32.556 62.504,31.647 62.706,30.906C62.976,30.098 63.245,29.391 63.514,28.785C63.851,28.179 64.154,27.64 64.423,27.169C64.76,26.63 65.063,26.125 65.332,25.654C65.602,25.183 65.837,24.678 66.039,24.139C66.309,23.6 66.511,23.028 66.645,22.422C66.78,21.749 66.847,20.974 66.847,20.099L66.847,8.282C66.847,7.676 66.814,7.137 66.746,6.666C66.746,6.195 66.679,5.791 66.544,5.454C66.41,5.117 66.208,4.882 65.938,4.747C65.736,4.545 65.433,4.444 65.029,4.444C64.625,4.444 64.289,4.545 64.019,4.747C63.817,4.882 63.649,5.151 63.514,5.555C63.38,5.892 63.279,6.296 63.211,6.767L63.211,18.988L61.999,18.988L61.999,7.878C61.999,7.07 62.067,6.363 62.201,5.757C62.336,5.151 62.538,4.68 62.807,4.343C63.077,3.939 63.38,3.67 63.716,3.535C64.12,3.333 64.558,3.232 65.029,3.232C65.501,3.232 65.905,3.333 66.241,3.535C66.645,3.67 66.982,3.939 67.251,4.343C67.521,4.68 67.723,5.151 67.857,5.757C67.992,6.363 68.059,7.07 68.059,7.878L68.059,54.439C68.127,54.641 68.194,54.776 68.261,54.843C68.329,54.91 68.43,54.944 68.564,54.944L68.766,54.944L68.766,56.156L68.564,56.156C68.497,56.223 68.43,56.257 68.362,56.257L68.16,56.257C67.958,56.257 67.79,56.223 67.655,56.156C67.521,56.156 67.386,56.089 67.251,55.954C67.184,55.819 67.117,55.651 67.049,55.449L67.049,53.934L66.948,53.934C66.814,54.473 66.612,54.91 66.342,55.247C66.14,55.584 65.905,55.853 65.635,56.055C65.433,56.257 65.231,56.392 65.029,56.459C64.827,56.526 64.625,56.56 64.423,56.56ZM64.726,55.348C64.996,55.348 65.231,55.247 65.433,55.045C65.703,54.776 65.938,54.405 66.14,53.934C66.342,53.463 66.511,52.924 66.645,52.318C66.78,51.712 66.847,51.005 66.847,50.197L66.847,22.119L67.655,21.715C67.655,22.388 67.588,22.994 67.453,23.533C67.319,24.072 67.15,24.577 66.948,25.048C66.746,25.519 66.511,25.957 66.241,26.361C65.972,26.765 65.703,27.203 65.433,27.674C65.164,28.145 64.895,28.684 64.625,29.29C64.356,29.829 64.12,30.468 63.918,31.209C63.716,31.95 63.548,32.791 63.413,33.734C63.279,34.677 63.211,35.754 63.211,36.966L63.211,51.106C63.211,52.049 63.245,52.823 63.312,53.429C63.38,53.968 63.481,54.405 63.615,54.742C63.817,55.011 63.986,55.18 64.12,55.247C64.322,55.314 64.524,55.348 64.726,55.348ZM105.02,57.166C100.038,57.166 95.56,56.863 91.587,56.257C87.615,55.651 84.248,54.708 81.487,53.429C78.727,52.15 76.606,50.5 75.124,48.48C73.643,46.46 72.902,44.036 72.902,41.208L72.902,40.4C72.902,37.639 73.879,35.384 75.831,33.633C77.851,31.815 80.477,30.367 83.709,29.29C86.941,28.145 90.611,27.304 94.718,26.765C98.826,26.226 103.034,25.856 107.343,25.654C111.653,25.385 115.861,25.216 119.968,25.149C124.076,25.014 127.745,24.846 130.977,24.644C134.209,24.442 136.802,24.105 138.754,23.634C140.774,23.095 141.784,22.321 141.784,21.311L141.784,20.705C141.784,20.234 141.582,19.796 141.178,19.392C140.842,18.921 140.168,18.55 139.158,18.281C138.148,17.944 136.768,17.675 135.017,17.473C133.267,17.271 131.011,17.17 128.25,17.17C126.163,17.17 124.109,17.237 122.089,17.372C120.137,17.507 118.386,17.776 116.837,18.18C115.289,18.517 114.043,19.022 113.1,19.695C112.158,20.368 111.686,21.21 111.686,22.22L111.686,22.725L77.144,22.725L77.144,22.22C77.144,18.988 78.053,16.025 79.871,13.332C81.689,10.639 84.652,8.316 88.759,6.363C92.934,4.343 98.388,2.794 105.121,1.717C111.922,0.572 120.271,0 130.169,0C139.192,0 146.767,0.505 152.894,1.515C159.089,2.525 164.072,4.107 167.842,6.262C171.68,8.417 174.407,11.177 176.023,14.544C177.707,17.911 178.548,21.951 178.548,26.664L178.144,44.339C178.144,45.012 178.212,45.618 178.346,46.157C178.548,46.696 178.818,47.133 179.154,47.47C179.558,47.739 179.996,47.975 180.467,48.177C181.006,48.312 181.578,48.379 182.184,48.379L183.396,48.379L183.396,56.156C181.578,56.291 179.861,56.392 178.245,56.459C176.629,56.594 175.013,56.661 173.397,56.661C171.781,56.728 170.098,56.762 168.347,56.762L162.388,56.762C158.146,56.762 154.746,56.56 152.187,56.156C149.629,55.819 147.642,55.281 146.228,54.54C144.882,53.732 143.973,52.756 143.501,51.611C143.03,50.399 142.794,49.019 142.794,47.47L142.794,47.167L142.39,47.167C141.65,48.042 140.404,49.052 138.653,50.197C136.903,51.342 134.546,52.453 131.583,53.53C128.621,54.54 124.951,55.415 120.574,56.156C116.198,56.829 111.013,57.166 105.02,57.166ZM124.008,41.107C127.442,41.107 130.304,41.006 132.593,40.804C134.883,40.535 136.701,40.097 138.047,39.491C139.394,38.885 140.337,38.077 140.875,37.067C141.481,36.057 141.784,34.811 141.784,33.33L141.784,27.674L144.915,27.674C144.915,28.617 144.41,29.425 143.4,30.098C142.458,30.704 141.178,31.209 139.562,31.613C137.946,32.017 136.095,32.32 134.007,32.522C131.92,32.724 129.799,32.926 127.644,33.128C125.557,33.33 123.47,33.532 121.382,33.734C119.295,33.869 117.443,34.071 115.827,34.34C114.211,34.609 112.898,35.013 111.888,35.552C110.946,36.023 110.474,36.629 110.474,37.37L110.474,37.572C110.474,38.245 110.71,38.818 111.181,39.289C111.72,39.693 112.528,40.03 113.605,40.299C114.683,40.568 116.063,40.77 117.746,40.905C119.497,41.04 121.584,41.107 124.008,41.107Z" style="fill-rule:nonzero;"/>
            </g>
        </g>
    </g>
</svg>
