<svg width="184" height="58" viewBox="0 0 184 58" fill="none" xmlns="http://www.w3.org/2000/svg">
<path d="M2.42338 56.56C2.01938 56.56 1.64904 56.459 1.31238 56.257C1.04304 56.1223 0.807375 55.853 0.605375 55.449C0.403375 54.9777 0.235042 54.3717 0.100375 53.631C0.0330417 52.823 -0.00062494 51.813 -0.00062494 50.601V37.37C-0.00062494 35.956 0.0667084 34.7103 0.201375 33.633C0.336042 32.5557 0.504375 31.6467 0.706375 30.906C0.975708 30.098 1.24504 29.391 1.51438 28.785C1.85104 28.179 2.15404 27.6403 2.42338 27.169C2.76004 26.6303 3.06304 26.1253 3.33238 25.654C3.60171 25.1827 3.83738 24.6777 4.03938 24.139C4.30871 23.6003 4.51071 23.028 4.64538 22.422C4.78004 21.7487 4.84738 20.9743 4.84738 20.099V8.282C4.84738 7.676 4.81371 7.13734 4.74638 6.666C4.74638 6.19467 4.67904 5.79067 4.54438 5.454C4.40971 5.11734 4.20771 4.88167 3.93838 4.74701C3.73638 4.545 3.43338 4.444 3.02938 4.444C2.62538 4.444 2.28871 4.545 2.01938 4.74701C1.81738 4.88167 1.64904 5.151 1.51438 5.555C1.37971 5.89167 1.27871 6.29567 1.21138 6.767C1.21138 7.23834 1.21138 7.777 1.21138 8.383V18.988H-0.00062494V7.878C-0.00062494 7.07 0.0667084 6.363 0.201375 5.757C0.336042 5.151 0.538042 4.67967 0.807375 4.343C1.07671 3.939 1.37971 3.66967 1.71638 3.535C2.12038 3.333 2.55804 3.232 3.02938 3.232C3.50071 3.232 3.90471 3.333 4.24138 3.535C4.64538 3.66967 4.98204 3.939 5.25138 4.343C5.52071 4.67967 5.72271 5.151 5.85738 5.757C5.99204 6.363 6.05938 7.07 6.05938 7.878V52.116C6.05938 52.722 6.05938 53.227 6.05938 53.631C6.05938 53.9677 6.05938 54.237 6.05938 54.439C6.12671 54.641 6.19404 54.7757 6.26138 54.843C6.32871 54.9103 6.42971 54.944 6.56438 54.944C6.63171 54.944 6.69904 54.944 6.76638 54.944V56.156C6.69904 56.156 6.63171 56.156 6.56438 56.156C6.49704 56.2233 6.42971 56.257 6.36238 56.257C6.36238 56.257 6.32871 56.257 6.26138 56.257C6.19404 56.257 6.16038 56.257 6.16038 56.257C5.95838 56.257 5.79004 56.2233 5.65538 56.156C5.52071 56.156 5.38604 56.0887 5.25138 55.954C5.18404 55.8193 5.11671 55.651 5.04938 55.449C5.04938 55.1797 5.04938 54.843 5.04938 54.439V53.934H4.94838C4.81371 54.4727 4.61171 54.9103 4.34238 55.247C4.14038 55.5837 3.90471 55.853 3.63538 56.055C3.43338 56.257 3.23138 56.3917 3.02938 56.459C2.82738 56.5263 2.62538 56.56 2.42338 56.56ZM2.72638 55.348C2.99571 55.348 3.23138 55.247 3.43338 55.045C3.70271 54.7757 3.93838 54.4053 4.14038 53.934C4.34238 53.4627 4.51071 52.924 4.64538 52.318C4.78004 51.712 4.84738 51.005 4.84738 50.197V22.119L5.65538 21.715C5.65538 22.3883 5.58804 22.9943 5.45338 23.533C5.31871 24.0717 5.15038 24.5767 4.94838 25.048C4.74638 25.5193 4.51071 25.957 4.24138 26.361C3.97204 26.765 3.70271 27.2027 3.43338 27.674C3.16404 28.1453 2.89471 28.684 2.62538 29.29C2.35604 29.8287 2.12038 30.4683 1.91838 31.209C1.71638 31.9497 1.54804 32.7913 1.41338 33.734C1.27871 34.6767 1.21138 35.754 1.21138 36.966V51.106C1.21138 52.0487 1.24504 52.823 1.31238 53.429C1.37971 53.9677 1.48071 54.4053 1.61538 54.742C1.81738 55.0113 1.98571 55.1797 2.12038 55.247C2.32238 55.3143 2.52438 55.348 2.72638 55.348ZM49.1154 18.786L38.4094 5.555H43.2574L55.3774 20.806L43.2574 36.057H38.4094L49.1154 22.826H20.3304V18.786H49.1154ZM105.02 57.166C100.038 57.166 95.5601 56.863 91.5874 56.257C87.6148 55.651 84.2481 54.7083 81.4874 53.429C78.7268 52.1497 76.6058 50.5 75.1244 48.48C73.6431 46.46 72.9024 44.036 72.9024 41.208V40.4C72.9024 37.6393 73.8788 35.3837 75.8314 33.633C77.8514 31.815 80.4774 30.3673 83.7094 29.29C86.9414 28.1453 90.6111 27.3037 94.7184 26.765C98.8258 26.2263 103.034 25.856 107.343 25.654C111.653 25.3847 115.861 25.2163 119.968 25.149C124.076 25.0143 127.745 24.846 130.977 24.644C134.209 24.442 136.802 24.1053 138.754 23.634C140.774 23.0953 141.784 22.321 141.784 21.311V20.705C141.784 20.2337 141.582 19.796 141.178 19.392C140.842 18.9207 140.168 18.5503 139.158 18.281C138.148 17.9443 136.768 17.675 135.017 17.473C133.267 17.271 131.011 17.17 128.25 17.17C126.163 17.17 124.109 17.2373 122.089 17.372C120.137 17.5067 118.386 17.776 116.837 18.18C115.289 18.5167 114.043 19.0217 113.1 19.695C112.158 20.3683 111.686 21.21 111.686 22.22V22.725H77.1444V22.22C77.1444 18.988 78.0534 16.0253 79.8714 13.332C81.6894 10.6387 84.6521 8.31567 88.7594 6.363C92.9341 4.343 98.3881 2.79434 105.121 1.717C111.922 0.572334 120.271 4.17233e-07 130.169 4.17233e-07C139.192 4.17233e-07 146.767 0.505002 152.894 1.515C159.089 2.525 164.072 4.10734 167.842 6.262C171.68 8.41667 174.407 11.1773 176.023 14.544C177.707 17.9107 178.548 21.9507 178.548 26.664L178.144 44.339C178.144 45.0123 178.212 45.6183 178.346 46.157C178.548 46.6957 178.818 47.1333 179.154 47.47C179.558 47.7393 179.996 47.975 180.467 48.177C181.006 48.3117 181.578 48.379 182.184 48.379C182.454 48.379 182.689 48.379 182.891 48.379C183.093 48.379 183.262 48.379 183.396 48.379V56.156C181.578 56.2907 179.861 56.3917 178.245 56.459C176.629 56.5937 175.013 56.661 173.397 56.661C171.781 56.7283 170.098 56.762 168.347 56.762C166.597 56.762 164.61 56.762 162.388 56.762C158.146 56.762 154.746 56.56 152.187 56.156C149.629 55.8193 147.642 55.2807 146.228 54.54C144.882 53.732 143.973 52.7557 143.501 51.611C143.03 50.399 142.794 49.0187 142.794 47.47V47.167H142.39C141.65 48.0423 140.404 49.0523 138.653 50.197C136.903 51.3417 134.546 52.4527 131.583 53.53C128.621 54.54 124.951 55.4153 120.574 56.156C116.198 56.8293 111.013 57.166 105.02 57.166ZM124.008 41.107C127.442 41.107 130.304 41.006 132.593 40.804C134.883 40.5347 136.701 40.097 138.047 39.491C139.394 38.885 140.337 38.077 140.875 37.067C141.481 36.057 141.784 34.8113 141.784 33.33V27.674H144.915C144.915 28.6167 144.41 29.4247 143.4 30.098C142.458 30.704 141.178 31.209 139.562 31.613C137.946 32.017 136.095 32.32 134.007 32.522C131.92 32.724 129.799 32.926 127.644 33.128C125.557 33.33 123.47 33.532 121.382 33.734C119.295 33.8687 117.443 34.0707 115.827 34.34C114.211 34.6093 112.898 35.0133 111.888 35.552C110.946 36.0233 110.474 36.6293 110.474 37.37V37.572C110.474 38.2453 110.71 38.8177 111.181 39.289C111.72 39.693 112.528 40.0297 113.605 40.299C114.683 40.5683 116.063 40.7703 117.746 40.905C119.497 41.0397 121.584 41.107 124.008 41.107Z" fill="black"/>
</svg>
