<svg width="49" height="49" viewBox="0 0 49 49" fill="none" xmlns="http://www.w3.org/2000/svg">
<g clip-path="url(#clip0_3028_289)">
<path d="M24.03 48.06C37.3014 48.06 48.06 37.3014 48.06 24.03C48.06 10.7586 37.3014 0 24.03 0C10.7586 0 0 10.7586 0 24.03C0 37.3014 10.7586 48.06 24.03 48.06Z" fill="black"/>
<path d="M25.2096 32.4395C16.1896 32.4395 11.0296 27.0295 10.8096 18.0195H15.3396C15.4796 24.6295 18.8096 27.4295 21.4596 28.0095V18.0195H25.7296V23.7195C28.3396 23.4795 31.0796 20.8795 31.9996 18.0195H36.2696C35.5496 21.5395 32.5796 24.1395 30.4696 25.2095C32.5796 26.0795 35.9696 28.3495 37.2596 32.4395H32.5696C31.5596 29.6995 29.0496 27.5695 25.7296 27.2795V32.4395H25.2096Z" fill="#ECECEC"/>
</g>
<defs>
<clipPath id="clip0_3028_289">
<rect width="48.06" height="48.06" fill="white"/>
</clipPath>
</defs>
</svg>
