<svg width="48" height="48" viewBox="0 0 48 48" fill="none" xmlns="http://www.w3.org/2000/svg">
<g clip-path="url(#clip0_3028_292)">
<path d="M23.81 47.62C36.9599 47.62 47.62 36.9599 47.62 23.81C47.62 10.6601 36.9599 0 23.81 0C10.6601 0 0 10.6601 0 23.81C0 36.9599 10.6601 47.62 23.81 47.62Z" fill="black"/>
<path d="M39.0204 16.1702C38.6504 14.8002 37.5804 13.7302 36.2104 13.3602C33.7304 12.7002 23.8104 12.7002 23.8104 12.7002C23.8104 12.7002 13.8804 12.7002 11.4104 13.3602C10.0404 13.7302 8.97043 14.8002 8.60043 16.1702C7.94043 18.6502 7.94043 23.8102 7.94043 23.8102C7.94043 23.8102 7.94043 28.9802 8.60043 31.4502C8.97043 32.8202 10.0404 33.8902 11.4104 34.2602C13.8904 34.9202 23.8104 34.9202 23.8104 34.9202C23.8104 34.9202 33.7404 34.9202 36.2104 34.2602C37.5804 33.8902 38.6504 32.8202 39.0204 31.4502C39.6804 28.9702 39.6804 23.8102 39.6804 23.8102C39.6804 23.8102 39.6804 18.6402 39.0204 16.1702ZM20.6304 28.5702V19.0502L28.8804 23.8102L20.6304 28.5702Z" fill="white"/>
</g>
<defs>
<clipPath id="clip0_3028_292">
<rect width="47.62" height="47.62" fill="white"/>
</clipPath>
</defs>
</svg>
